<?xml version="1.0" encoding="utf-8"?>
<!-- Generator: Adobe Illustrator 19.0.0, SVG Export Plug-In . SVG Version: 6.00 Build 0)  -->
<svg version="1.1" id="Layer_1" xmlns="http://www.w3.org/2000/svg" xmlns:xlink="http://www.w3.org/1999/xlink" x="0px" y="0px"
	 viewBox="0 0 1400 980" style="enable-background:new 0 0 1400 980;" xml:space="preserve">
<style type="text/css">
	.st0{fill:#96959D;}
	.st1{fill:#5E6484;}
	.st2{fill:url(#XMLID_313_);}
	.st3{fill:url(#XMLID_314_);}
	.st4{fill:url(#XMLID_315_);}
	.st5{fill:url(#XMLID_316_);}
	.st6{fill:url(#XMLID_317_);}
	.st7{fill:url(#XMLID_318_);}
	.st8{fill:url(#XMLID_319_);}
	.st9{fill:#FDB79E;}
	.st10{fill:url(#XMLID_320_);}
	.st11{fill:url(#XMLID_321_);}
	.st12{fill:url(#XMLID_322_);}
	.st13{fill:url(#XMLID_323_);}
	.st14{fill:url(#XMLID_324_);}
	.st15{fill:url(#XMLID_325_);}
	.st16{fill:url(#XMLID_326_);}
	.st17{fill:url(#XMLID_327_);}
	.st18{fill:#E37542;}
	.st19{fill:#831E2E;}
	.st20{fill:#FFF7AF;}
	.st21{fill:url(#XMLID_328_);}
	.st22{fill:url(#XMLID_329_);}
	.st23{fill:#D6A492;}
	.st24{fill:#551A20;}
	.st25{fill:url(#XMLID_330_);}
	.st26{fill:url(#XMLID_331_);}
	.st27{fill:#996D82;}
	.st28{fill:url(#XMLID_332_);}
	.st29{fill:url(#XMLID_333_);}
	.st30{fill:url(#XMLID_334_);}
	.st31{fill:url(#XMLID_335_);}
	.st32{fill:#F19D83;}
	.st33{fill:#FDFBE4;}
	.st34{fill:#FD5578;}
	.st35{fill:url(#XMLID_336_);}
	.st36{fill:url(#XMLID_337_);}
	.st37{fill:url(#XMLID_339_);}
	.st38{fill:url(#XMLID_340_);}
	.st39{fill:url(#XMLID_341_);}
	.st40{fill:url(#XMLID_342_);}
	.st41{fill:url(#XMLID_343_);}
	.st42{fill:url(#XMLID_344_);}
	.st43{fill:url(#XMLID_345_);}
	.st44{fill:url(#XMLID_346_);}
	.st45{fill:url(#XMLID_347_);}
	.st46{fill:url(#XMLID_357_);}
	.st47{fill:url(#XMLID_358_);}
	.st48{fill:url(#XMLID_359_);}
	.st49{fill:url(#XMLID_360_);}
	.st50{fill:url(#XMLID_361_);}
	.st51{fill:url(#XMLID_362_);}
	.st52{fill:url(#XMLID_363_);}
	.st53{fill:url(#XMLID_364_);}
	.st54{fill:url(#XMLID_365_);}
	.st55{fill:url(#XMLID_366_);}
	.st56{fill:url(#XMLID_367_);}
	.st57{fill:url(#XMLID_368_);}
	.st58{fill:#31705B;}
	.st59{fill:#E97649;}
	.st60{fill:url(#XMLID_369_);}
	.st61{fill:url(#XMLID_370_);}
	.st62{fill:url(#XMLID_371_);}
	.st63{fill:url(#XMLID_372_);}
	.st64{fill:url(#XMLID_373_);}
	.st65{fill:url(#XMLID_374_);}
	.st66{fill:url(#XMLID_375_);}
	.st67{fill:url(#XMLID_376_);}
	.st68{fill:#FFFFFF;}
	.st69{fill:url(#XMLID_377_);}
	.st70{fill:url(#XMLID_378_);}
	.st71{fill:url(#XMLID_379_);}
	.st72{fill:url(#XMLID_380_);}
	.st73{fill:url(#XMLID_381_);}
	.st74{fill:url(#XMLID_382_);}
	.st75{fill:url(#XMLID_383_);}
	.st76{fill:url(#XMLID_384_);}
	.st77{fill:url(#XMLID_385_);}
	.st78{fill:url(#XMLID_386_);}
	.st79{fill:url(#XMLID_387_);}
	.st80{fill:url(#XMLID_388_);}
	.st81{fill:url(#XMLID_389_);}
	.st82{fill:url(#XMLID_390_);}
	.st83{fill:url(#XMLID_391_);}
	.st84{fill:url(#XMLID_392_);}
	.st85{fill:url(#XMLID_393_);}
	.st86{fill:url(#XMLID_394_);}
	.st87{fill:url(#XMLID_395_);}
	.st88{fill:url(#XMLID_396_);}
</style>
<g id="XMLID_311_">
	<rect id="XMLID_3_" class="st0" width="1400" height="980"/>
	<g id="XMLID_45_">
		<g id="XMLID_43_">
			<g id="XMLID_42_">
				<path id="XMLID_8_" class="st1" d="M222.5,905.5c0,0,99.1-27.8,221.4-27.8s221.4,27.8,221.4,27.8s-99.1,27.8-221.4,27.8
					S222.5,905.5,222.5,905.5z"/>
				<g id="XMLID_94_">
					<linearGradient id="XMLID_313_" gradientUnits="userSpaceOnUse" x1="350.1868" y1="913.3431" x2="350.1868" y2="728.6314">
						<stop  offset="0" style="stop-color:#FDB79E"/>
						<stop  offset="1" style="stop-color:#FF9991"/>
					</linearGradient>
					<path id="XMLID_18_" class="st2" d="M297,761c-4.4,18.8,2.5,38.3,10.5,55.8s17.5,35.2,18.6,54.4c-9.6,13.1-23.8,22.1-39.7,25.6
						c-4.9,1.1-10.5,2.1-13.1,6.4c-1.8,3.1-1.2,7.5,1.5,9.9s7,2.8,10,0.7c3.5,3.6,9,5.5,13.8,4c5.6,2.9,13,2.9,18.9,0.6
						c2.3,1.7,7.1,3.2,10,2.7c2.8-0.4,5.5-1.6,8.1-2.8c5.7,3.9,13,4.7,19.3,1.9c6.3-2.7,11.5-7.5,16.5-12.3c5-4.7,10-9.6,16.2-12.7
						c3.1-1.5,6.6-2.7,8.5-5.6c1.3-2,1.5-4.6,1.7-7c0.6-10,0.3-20-0.8-29.9c-1.4-13.3,14.1-23.3,20.2-35.2
						c4.5-8.8,6.7-18.7,6.5-28.5c-0.1-3.5-0.5-7-0.3-10.4c0.4-5.2,2.2-10.3,3.3-15.4c1.3-6,1.6-12.2,0.9-18.2
						c-0.4-3.6-1.2-7.3-3.8-9.8c-1.4-1.4-3.2-2.2-5-3c-21.7-9.4-46.2-9.2-69.7-7.9c-13.1,0.7-26.5,1.8-38.8,6.3
						c-3.9,1.4-7.8,3.3-10.4,6.7C295.5,743.1,298.7,754,297,761z"/>
					<linearGradient id="XMLID_314_" gradientUnits="userSpaceOnUse" x1="554.3041" y1="915.2798" x2="554.3041" y2="734.7336">
						<stop  offset="0" style="stop-color:#FDB79E"/>
						<stop  offset="1" style="stop-color:#FF9991"/>
					</linearGradient>
					<path id="XMLID_19_" class="st3" d="M500.1,759c4.6,11.2,0.5,23.7-1.9,35.6c-1.5,7.4-2.2,15-1.5,22.5
						c1.3,13.3,7.2,26.5,4.6,39.6c-1.4,7.1-5.2,13.6-6.8,20.7s0.1,15.9,6.6,19.1c4.1,2,9.5,3,13.8,4.4c2,0.7,3.9,1.8,5.9,2.7
						c7.5,3.2,15.9,3.1,24,2.3c1.3-0.1,2.8-0.2,3.8,0.7c5.3,4.9,12.6,8.6,19.9,8.6c3.6,0,7.6-0.9,9.8-3.7c3.8,1.9,9.3,2.3,12.9,0.2
						c3,2,8.4,0.4,10.3-2.7c3,0.2,6.6-1.7,7.7-4.5c2,0.6,5.3-1.4,5.2-3.5c-0.1-2.1-1.8-3.9-3.7-4.6c-1.9-0.8-4.1-0.8-6.2-0.8
						c-5.9-10-16.4-17.2-26.5-22.8c-1.5-0.9-3.1-1.7-4.3-3s-2-3-1.7-4.8c2.5-13.4,8.9-27.1,16.5-38.5c5.3-7.9,11.6-15.3,15.6-23.9
						c9.1-19.4,5.9-42,2.5-63.2c-0.2-1.4-0.5-2.9-1.3-4.1c-0.8-1-1.9-1.7-3-2.3c-14.1-7.6-31-8.7-46.7-5.9
						c-15.8,2.8-30.6,9.2-45.2,15.7c-3.5,1.6-7.1,3.2-9.6,6.2C498.3,751.8,498.6,755.4,500.1,759z"/>
					<linearGradient id="XMLID_315_" gradientUnits="userSpaceOnUse" x1="211.5187" y1="680.0887" x2="166.8481" y2="679.1629">
						<stop  offset="0" style="stop-color:#FDB79E"/>
						<stop  offset="1" style="stop-color:#FF9991"/>
					</linearGradient>
					<path id="XMLID_62_" class="st4" d="M174.5,704.8c6.4-0.5,13.1-0.3,19.2-2.4c6.9-2.3,12.8-7.6,15.9-14.2c1-2.1,1.7-4.3,3.2-6
						c1.2-1.4,2.9-2.3,4.5-3.3c7.1-4.4,13.5-12.7,10.6-20.5c-2.6-7.2-11.5-9.7-19.2-9.7c-16.6,0.1-32.5,7.9-45.2,18.6
						c-2.6,2.2-5.1,4.6-6.7,7.6c-1.9,3.7-2,8.1-2,12.3c0,3.8-1.7,20.7,1.6,22.6c1.9,1.1,6.6-2.7,8.5-3.3
						C168,705.6,171.3,705.1,174.5,704.8z"/>
					<linearGradient id="XMLID_316_" gradientUnits="userSpaceOnUse" x1="211.5187" y1="680.0887" x2="166.8481" y2="679.1629">
						<stop  offset="0" style="stop-color:#A7A9AC;stop-opacity:0"/>
						<stop  offset="1" style="stop-color:#BCBEC0"/>
					</linearGradient>
					<path id="XMLID_77_" class="st5" d="M174.5,704.8c6.4-0.5,13.1-0.3,19.2-2.4c6.9-2.3,12.8-7.6,15.9-14.2c1-2.1,1.7-4.3,3.2-6
						c1.2-1.4,2.9-2.3,4.5-3.3c7.1-4.4,13.5-12.7,10.6-20.5c-2.6-7.2-11.5-9.7-19.2-9.7c-16.6,0.1-32.5,7.9-45.2,18.6
						c-2.6,2.2-5.1,4.6-6.7,7.6c-1.9,3.7-2,8.1-2,12.3c0,3.8-1.7,20.7,1.6,22.6c1.9,1.1,6.6-2.7,8.5-3.3
						C168,705.6,171.3,705.1,174.5,704.8z"/>
					<linearGradient id="XMLID_317_" gradientUnits="userSpaceOnUse" x1="155.1805" y1="722.382" x2="155.8749" y2="703.4028">
						<stop  offset="0" style="stop-color:#FDB79E"/>
						<stop  offset="1" style="stop-color:#FF9991"/>
					</linearGradient>
					<path id="XMLID_40_" class="st6" d="M147.6,715c2.9,2.5,6.6,4,10.3,5.3c1.7,0.6,3.4,1.1,5.2,1s3.6-0.8,4.6-2.3
						c1.6-2.5,0.2-5.9-1.9-7.9c-4-3.9-11.8-13.4-18-12.1C139.5,700.8,143.1,711.1,147.6,715z"/>
					<linearGradient id="XMLID_318_" gradientUnits="userSpaceOnUse" x1="149.2263" y1="706.416" x2="153.8554" y2="689.0569">
						<stop  offset="0" style="stop-color:#FDB79E"/>
						<stop  offset="1" style="stop-color:#FF9991"/>
					</linearGradient>
					<path id="XMLID_39_" class="st7" d="M145.1,700.3c4.1,4.5,10.1,7.2,16.2,7.4c1.1,0,2.2,0,3.2-0.5c2.4-1.1,3.3-4.1,2.6-6.6
						s-2.7-4.4-4.9-5.8c-2.2-1.4-4.6-2.3-6.8-3.7c-3.5-2.1-10.3-14.7-14.5-12.2C134.7,682.6,142,697,145.1,700.3z"/>
					<linearGradient id="XMLID_319_" gradientUnits="userSpaceOnUse" x1="155.8151" y1="670.0706" x2="148.64" y2="690.4385">
						<stop  offset="0" style="stop-color:#FF9991"/>
						<stop  offset="1" style="stop-color:#FDB79E"/>
					</linearGradient>
					<path id="XMLID_35_" class="st8" d="M141.1,664.2c-2.8,2.5-4.3,6.6-3.6,10.3c0.8,4.4,4,7.8,7.1,11c2.1,2.2,4.2,4.3,6.3,6.5
						c1.8,1.8,3.6,3.7,5.9,4.7c2.3,1,5.3,1.1,7.2-0.6c1.7-1.5,2.2-3.9,1.9-6.1c-0.3-2.2-1.3-4.2-2.4-6.2
						C159.7,676.3,153.3,653.5,141.1,664.2z"/>
					<path id="XMLID_2_" class="st9" d="M385.3,353.7c-23.8,14.2-47.7,28.4-71.5,42.5c-9.6,5.7-19.2,11.4-27.7,18.5
						c-10.4,8.6-19,19.2-27.2,29.9c-19.3,25.3-36.5,52.2-51.4,80.4c-13.4,25.3-29.1,52.3-29.5,81c-0.2,13.6,1.6,27.9-3.8,40.4
						c-1.7,4-7.4,4.3-11.7,4.9c-4.3,0.6-8.7,0.4-13,1.1c-1,0.2-2.1,0.4-2.9,1c-0.7,0.5-1.2,1.3-1.6,2c-4.3,7.5-2.9,17.8,3.2,24
						c3.1,3.1,7.1,5.2,11.3,6.8c3.4,1.3,8,2,10.1-0.9c1.8-2.5,0.6-6.2-1.3-8.7c-1.8-2.6-4.2-5-4.6-8.1c4.6,0.1,9.6,1.5,13.5,3.7
						c4.7,2.6,9.2,5.7,13.4,9.1c1.8,1.5,3.6,3.1,5.8,4.1c7.1,3.4,16.1-0.4,20.8-6.8s6.2-14.5,7.3-22.3c7.2-4.6,14.3-8.6,20.4-14.5
						c4.9-4.7,9.5-10.1,11.6-16.5c6.4-19.2,18.7-37.9,23.3-57.6c1.9-8.2,3.4-16.9,8.3-23.8c5.2-7.2,13.6-11.3,21.4-15.6
						c37.9-21,69.3-53.5,89.1-92.1c1.7-3.4,4.4-7.4,8.2-7c1.8,0.2,3.2,1.4,4.6,2.5c30.6,25.3,63,48.5,96.9,69.3
						c17.3,10.6,35.2,20.7,54.6,26.4s40.8,6.8,59.8-0.4c6.3-2.4,12.5-5.9,16.3-11.5c6.8-10.2,3.9-24-1.4-35
						c-5.7-12.2-13.8-23.1-22.4-33.4c-27.6-33.2-61.6-61.1-99.4-81.9c-12.5-6.8-25.5-12.9-39.3-16.4
						C446.8,341.5,411.5,338.1,385.3,353.7z"/>
					<linearGradient id="XMLID_320_" gradientUnits="userSpaceOnUse" x1="301.272" y1="468.5245" x2="218.1078" y2="658.4537">
						<stop  offset="0" style="stop-color:#BCBEC0"/>
						<stop  offset="1" style="stop-color:#A7A9AC;stop-opacity:0"/>
					</linearGradient>
					<path id="XMLID_79_" class="st10" d="M271.1,468.3c-11.1,21-17.2,45.1-14.8,68.7c0.2,1.8,0.4,3.6,0.6,5.4
						c-2.6,21.9-7.4,43.5-14.1,64.4c-4.1,12.8-9.4,25.9-19.7,34.7c-7,6-16.6,10.4-19.2,19.3c6.4-2.1,13.3-2.2,19.9-0.5
						c0.2-1.3,0.4-2.7,0.6-4c7.2-4.6,14.3-8.6,20.4-14.5c1.9-1.9,3.8-3.8,5.5-5.9l0,0c0,0,0,0,0,0c0.3-0.4,0.6-0.8,0.9-1.2
						c0,0,0.1-0.1,0.1-0.1c0.3-0.4,0.6-0.8,0.8-1.1c0,0,0-0.1,0.1-0.1c0.6-0.8,1.1-1.7,1.6-2.5c0-0.1,0.1-0.1,0.1-0.2
						c0.2-0.4,0.4-0.7,0.6-1.1c0.1-0.1,0.1-0.2,0.2-0.4c0.2-0.3,0.3-0.6,0.4-0.9c0.1-0.1,0.1-0.3,0.2-0.4c0.1-0.3,0.3-0.6,0.4-0.9
						c0.1-0.1,0.1-0.3,0.2-0.4c0.2-0.4,0.3-0.9,0.5-1.3c6.4-19.2,18.7-37.9,23.3-57.6c0.3-1.4,0.6-2.8,0.9-4.2
						c0.1-0.3,0.1-0.6,0.2-0.9c1.5-6.6,3.2-13.3,7.2-18.7c4.2-5.7,10.3-9.5,16.6-13c0.3-39.6,3.9-79.1,11.1-117.8
						C298.1,429.1,282.2,447.3,271.1,468.3z"/>
					<linearGradient id="XMLID_321_" gradientUnits="userSpaceOnUse" x1="443.8872" y1="430.0334" x2="443.8872" y2="625.394">
						<stop  offset="0" style="stop-color:#FDB79E"/>
						<stop  offset="1" style="stop-color:#FF9991"/>
					</linearGradient>
					<path id="XMLID_16_" class="st11" d="M603.2,628.4c-9.8,2.6-19,7.1-28.2,11.2c-76.5,33.5-164.6,40.1-245.2,18.2
						c-17.7-4.8-35.2-11-50-21.8c-4.2-3.1-8.2-6.5-11-10.9c-3.1-4.9-4.4-10.7-5.3-16.4c-4.3-27.8,3.4-58.4,18-82.5
						c-5.7-16.6-11.4-34.3-6.9-51.2c3.5-13,12.6-23.6,18.7-35.6c3.8-7.6,6.4-15.8,7.7-24.2c12.3-12.9,27.2-21.4,42.9-29.8
						c13.9-7.5,28.1-14.7,43.4-18.9c33.6-9.1,69.5-2.2,102.7,8.2c20.2,6.3,40.1,14.1,57.6,26c17.5,11.9,32.4,28.4,39.5,48.3
						c7.1,19.9,5.6,43.4-6.6,60.7c1.7,1.4,4.5,0.3,6.1,1.8c17.1,14.8,31.5,33.5,37.3,55.4S619,612.2,603.2,628.4z"/>
					<linearGradient id="XMLID_322_" gradientUnits="userSpaceOnUse" x1="520.8991" y1="472.2122" x2="616.7487" y2="472.2122">
						<stop  offset="0" style="stop-color:#BCBEC0"/>
						<stop  offset="1" style="stop-color:#A7A9AC;stop-opacity:0"/>
					</linearGradient>
					<path id="XMLID_81_" class="st12" d="M526.1,453.8c0.9,5.6,1.7,11.2,2.6,16.7c1.9,12.3,3.9,24.8,9,36.1
						c6.5,14.5,18.2,26.7,32.8,33.2c14.5,6.5,31.7,6.9,46.3,0.7c-18.9-43.8-41.3-86.1-66.8-126.4c-5.5-8.6-20-23.1-26.9-7.9
						C517.5,418.3,524.2,441.2,526.1,453.8z"/>
					<linearGradient id="XMLID_323_" gradientUnits="userSpaceOnUse" x1="376.2854" y1="370.2074" x2="487.3195" y2="370.2074">
						<stop  offset="0" style="stop-color:#BCBEC0"/>
						<stop  offset="1" style="stop-color:#A7A9AC;stop-opacity:0"/>
					</linearGradient>
					<path id="XMLID_80_" class="st13" d="M401.9,388c12.8,6.1,27.5,7.7,41.7,6.4c7.2-0.7,14.4-2.1,20.9-5c6.1-2.8,11.7-6.9,16-12
						c5.6-6.6,9.3-16.5,4.5-23.7c-4.6-7.1-14.5-7.9-23-8c-23.2-0.2-46.9-0.4-69.5,5.5c-11.4,3-21.1,3.5-13.9,16.1
						C384,376.3,392.6,383.5,401.9,388z"/>
					<linearGradient id="XMLID_324_" gradientUnits="userSpaceOnUse" x1="288.4774" y1="490.6704" x2="439.5045" y2="490.6704">
						<stop  offset="0" style="stop-color:#BCBEC0"/>
						<stop  offset="1" style="stop-color:#A7A9AC;stop-opacity:0"/>
					</linearGradient>
					<path id="XMLID_70_" class="st14" d="M313.6,528.7c12.6-0.5,23.8-6.8,33.6-13.4c14.1-9.5,27.1-20.1,38.8-31.7
						c15.5-15.4,30.5-33.6,53.6-39.1c-17.6,10.5-30,26-42,41.1s-24.5,30.6-42.3,40.9c-17.8,10.3-42.3,14.5-61,5.5
						c-2.8-1.4-4.9-3.2-5.6-5.8C295.6,524.1,305.5,529,313.6,528.7z"/>
					<linearGradient id="XMLID_325_" gradientUnits="userSpaceOnUse" x1="457.7665" y1="490.2522" x2="572.7818" y2="490.2522">
						<stop  offset="0" style="stop-color:#A7A9AC;stop-opacity:0"/>
						<stop  offset="1" style="stop-color:#BCBEC0"/>
					</linearGradient>
					<path id="XMLID_72_" class="st15" d="M484.8,478.6c14.4,13.7,24.4,32.9,42.5,41.3c14.6,6.8,32.9,4.7,45.5-5.2
						c-11.7,0.2-23.8,0.3-34.5-4.3c-16-6.8-26.1-22.5-39.2-34c-11.2-9.9-26.3-18.1-41.3-19.9C468.7,462.7,478.7,472.8,484.8,478.6z"
						/>
					<linearGradient id="XMLID_326_" gradientUnits="userSpaceOnUse" x1="563.0765" y1="398.6409" x2="605.664" y2="533.1926">
						<stop  offset="0" style="stop-color:#FDB79E"/>
						<stop  offset="1" style="stop-color:#FF9991"/>
					</linearGradient>
					<path id="XMLID_26_" class="st16" d="M595.2,406.8c3.9,6,5.1,13.7,3.2,20.7c-0.4,1.4-1,2.9-0.8,4.4c0.2,1.7,1.3,3.2,2.5,4.5
						c8.1,9.7,17.5,18.2,26,27.6c8.5,9.4,16.1,19.8,20,31.8s3.4,25.9-3.4,36.5c-2.6,4-5.9,7.3-9.5,10.5c-3.7,3.3-7.8,6.3-12.6,7.4
						c-4.6,1-9.4,0.1-14.1-0.8c-7.5-1.5-15-2.9-22.2-5.6c-13.5-5-25.4-14.4-33.4-26.3c-2.7-4-4.9-8.2-6.4-12.8
						c-6.3-19.3,1.8-40.7,1.5-61c-4.5-3.1-7.5-8.1-9-13.3c-1.5-5.2-1.7-10.8-1.6-16.2c0.1-3.5,0.3-7.1,1.5-10.4
						c2.9-8.3,14.2-11.6,23.1-11.8s17.5,2.7,25.4,6.6C588.8,400.3,593.1,403.6,595.2,406.8z"/>
					<linearGradient id="XMLID_327_" gradientUnits="userSpaceOnUse" x1="566.8627" y1="409.9196" x2="554.0739" y2="466.1905">
						<stop  offset="0" style="stop-color:#BCBEC0"/>
						<stop  offset="1" style="stop-color:#A7A9AC;stop-opacity:0"/>
					</linearGradient>
					<path id="XMLID_68_" class="st17" d="M589.9,426.4c0.7,1,1.3,2.1,1.5,3.5c0.3,2-9.4,0.5-10.3,2.2c-5.3,9.5-5.9,17.4-9.6,28.3
						c-0.5,1.6-0.9,3.3-1.8,4.6c-2.1,3.3-6,2.5-9,0.9c-13.1-7-22.9-24.6-24.7-44.1c-0.2-2.5-0.3-5.1,0.5-7.3
						c0.8-2.2,2.4-3.5,3.9-4.7c5.1-4.2,10.3-8.5,16-10.9c5.9-2.4,13-3.3,17.6,2.5C580,408.6,584.8,418.4,589.9,426.4z"/>
					<path id="XMLID_33_" class="st18" d="M511.6,346.5c-7.9,6.8-11.7,17.6-11.3,28.1c0.3,10.4,4.4,20.5,10.1,29.2
						c2.2,3.3,4.7,6.5,7.6,9.3c3.5,3.3,7.7,5.8,12.1,7.7c11,4.7,24.5,5.2,34.6-1.2c1.7-1.1,3.5-2.6,3.7-4.7c0.1-1-0.3-2.1-0.6-3.1
						c-3.4-9.8-6.8-19.7-12.4-28.5c-6.1-9.6-14.5-17.6-21.3-26.6c-3.3-4.3-6.4-9.1-11.3-11.6C518.8,343,514.9,343.7,511.6,346.5z"/>
					<path id="XMLID_30_" class="st19" d="M508.2,348.7c-2.9,4.8-3.6,10.6-3.6,16.3c0,22.2,11.7,44.8,31.4,55.1
						c4.9,2.6,10.3,4.4,15.9,4.6c5.6,0.1,11.3-1.5,15.4-5.2c1.5-1.4,2.9-3,3.7-5c0.8-2,1-4.2,1.1-6.4c0.1-9.2-3.3-18.1-7.6-26.3
						c-5.3-10.2-12.2-19.6-20.2-27.9c-5.8-6-12.6-15.7-21.8-14.3C516.7,340.4,511.2,343.7,508.2,348.7z"/>
					<path id="XMLID_28_" class="st20" d="M495.8,359.6c9.4,6.2,19.2,11.6,29.5,16.2c0.3,0.1,0.5-13.6,0.3-14.9
						c-0.4-3-1.3-11.6-5.1-12.6c-2.8-0.7-8.3,5.2-10.9,6.6C505.3,357.2,500.6,358.8,495.8,359.6z"/>
					<path id="XMLID_29_" class="st20" d="M517.2,411.9c9.8,1,19.6,1.9,29.5,2.5c-3.5-4.3-7-8.5-9.8-13.3c-1.8-3.2-6.3-18-11.2-12.1
						c-2.2,2.6-2.8,7.8-3.9,10.9C520.4,404,518.9,407.9,517.2,411.9z"/>
					<path id="XMLID_27_" class="st18" d="M562.7,348.7c-5.5-5-12-9.3-19.2-11s-15.4-0.7-21.2,4c-5.8,4.7-8.5,12.3-8.6,19.7
						c-0.1,7.4,2.3,14.6,5.3,21.4c4.3,9.8,10.2,19.2,18.2,26.3s18.3,12.1,29.1,12.3c6,0.1,12.6-1.5,16.2-6.4c2.6-3.5,3.1-8,3-12.3
						c-0.1-5.9-1.5-11.6-2.9-17.2c-1.1-4.4-1.4-8.7-3-13C576,363.3,569.9,355.2,562.7,348.7z"/>
					<linearGradient id="XMLID_328_" gradientUnits="userSpaceOnUse" x1="555.3287" y1="394.4335" x2="595.3569" y2="394.4335">
						<stop  offset="0" style="stop-color:#BCBEC0"/>
						<stop  offset="1" style="stop-color:#A7A9AC;stop-opacity:0"/>
					</linearGradient>
					<path id="XMLID_98_" class="st21" d="M564.4,368.8c-4.6,0.7-9,5-7.9,9.5c0.2,0.8,0.6,1.7,0.5,2.5c-0.1,0.8-0.5,1.5-0.8,2.2
						c-2,4.1-0.5,9.5,3.2,12.1c0.6,0.4,1.3,0.8,1.7,1.5c0.3,0.7,0.1,1.4,0,2.2c-0.6,4.1,1.4,8.4,4.9,10.7c1.2,0.8,2.6,1.4,3.1,2.8
						c0.4,1.1,0,2.4,0.4,3.5c0.5,1.5,2.2,2.3,3.7,2.7c6.6,2,13.9,2.1,20.5,0.1c0.6-0.2,1.3-0.4,1.5-1c0.2-0.5,0-1.1-0.3-1.7
						c-5.1-10.9-10.3-21.8-15.3-32.8C575.6,374.1,576,368.8,564.4,368.8z"/>
					<path id="XMLID_101_" class="st20" d="M530.9,342.2c-0.2,0-0.3,0.1-0.5,0.1c-0.1,0-0.3,0.2-0.3,0.3c0,0.3,0,0.5,0,0.7
						c0.1,0.2,0.4,0.3,0.5,0.1c0.1-0.1,0.2-0.2,0.2-0.3c0.1,0,0.2,0,0.3-0.1C531.8,343,531.5,342.1,530.9,342.2z"/>
					<path id="XMLID_102_" class="st20" d="M524.9,350.4c-1.5-0.1-2.1,2.5-1.5,3.5c0.1,0.2,0.4,0.2,0.5-0.1c0.2-0.9,0-2.5,1.1-2.9
						C525.3,350.9,525.2,350.5,524.9,350.4z"/>
					<path id="XMLID_103_" class="st20" d="M534.9,357.8c-0.5-0.3-0.9-0.3-0.9-1c0-0.6-1-0.6-1,0c0,0.9,0.9,2.1,1.9,1.5
						C535.1,358.3,535.1,358,534.9,357.8z"/>
					<path id="XMLID_104_" class="st20" d="M526.4,364.2c-0.5-1-1.2-1.8-1.1-3c0-0.4-0.6-0.5-0.7-0.1c-0.2,1.3,0.4,2.7,1.5,3.4
						C526.2,364.7,526.5,364.4,526.4,364.2z"/>
					<path id="XMLID_105_" class="st20" d="M536.9,348.1c-0.1-0.2-0.2-0.4-0.4-0.5c-0.2-0.2-0.6-0.3-0.8-0.4c-0.7-0.3-1.3,0.6-0.6,1
						c0.3,0.1,0.5,0.3,0.8,0.4c0.3,0.1,0.5,0,0.8,0C536.9,348.5,537,348.3,536.9,348.1z"/>
					<path id="XMLID_106_" class="st20" d="M518.5,362.4c0-0.5-0.8-0.5-0.8,0c0,0.8-0.1,1.8,0.2,2.5c0.1,0.3,0.4,0.3,0.5,0
						C518.7,364.2,518.5,363.3,518.5,362.4z"/>
					<path id="XMLID_107_" class="st20" d="M533.3,381.8c-0.6-0.6-1.2-1.2-1.1-2.1c0.1-0.6-1-0.8-1.1-0.1c-0.1,0.8,0,1.6,0.6,2.2
						c0.4,0.5,1.1,1.4,1.8,1.3C534.4,383.1,533.6,382.1,533.3,381.8z"/>
					<path id="XMLID_108_" class="st20" d="M541.4,373.7c-0.5,0-0.9-0.1-1.3-0.5c-0.5-0.5-1.2,0.3-0.7,0.7c0.5,0.5,1.3,0.9,2.1,0.8
						C542.1,374.6,542.1,373.7,541.4,373.7z"/>
					<path id="XMLID_109_" class="st20" d="M550.5,365.4c-0.3-0.9-1.5-1.2-2.3-1c-0.6,0.2-0.4,1.1,0.3,1c0.7-0.1,1.1,0.7,1.8,0.5
						C550.5,365.8,550.6,365.6,550.5,365.4z"/>
					<path id="XMLID_110_" class="st20" d="M534.1,367.4c-0.2,0-0.4,0-0.6,0c-0.8,0.1-0.8,1.1,0,1.2c0.2,0,0.4,0,0.6,0
						C534.9,368.5,534.9,367.5,534.1,367.4z"/>
					<path id="XMLID_111_" class="st20" d="M546.3,355.1c-0.8,0-1.5,0-2.3,0c-0.7,0-0.7,1.1,0,1.1c0.8,0,1.5,0.1,2.3,0
						C547.1,356.2,547.1,355.1,546.3,355.1z"/>
					<path id="XMLID_112_" class="st20" d="M548.5,343.7c-0.4-0.4-1-0.2-1.4-0.2c-0.5,0-0.5,0.7,0,0.8c0.5,0,1.1,0.2,1.4-0.2
						C548.7,344,548.7,343.8,548.5,343.7z"/>
					<path id="XMLID_113_" class="st20" d="M539.1,359.5c-0.7,0-0.7,1,0,1C539.8,360.5,539.8,359.5,539.1,359.5z"/>
					<path id="XMLID_114_" class="st20" d="M558.8,359.3c-0.8,0-0.8,1.3,0,1.3c0.8,0,1.6,0.6,2.3,0.9c0.3,0.1,0.7-0.1,0.6-0.4
						C561.3,360,560,359.3,558.8,359.3z"/>
					<path id="XMLID_115_" class="st20" d="M561.6,376.3c-0.3-0.7-0.5-1.3-0.6-2.1c0-0.5-0.7-0.5-0.7,0c-0.1,0.9,0.1,1.7,0.5,2.6
						C561.1,377.3,561.9,376.8,561.6,376.3z"/>
					<path id="XMLID_116_" class="st20" d="M556.4,348.7c-0.4-0.2-0.8-0.3-1.1-0.6c-0.2-0.2-0.5,0.1-0.4,0.3
						c0.3,0.5,0.9,0.9,1.5,0.7C556.7,349,556.6,348.7,556.4,348.7z"/>
					<path id="XMLID_117_" class="st20" d="M559.2,369.8c-0.1-0.2-0.2-0.3-0.4-0.4c-0.1-1-0.3-2-0.7-2.9c-0.3-0.7-1.3-0.1-1,0.6
						c0.4,0.9,0.5,1.9,0.7,2.8c0.1,0.3,0.3,0.4,0.5,0.4c0.3,0,0.5,0.1,0.8-0.2C559.2,370,559.2,369.9,559.2,369.8z"/>
					<path id="XMLID_118_" class="st20" d="M569.6,371.2c-0.2-0.2-0.3-0.3-0.5-0.5c-0.5-0.5-1.3,0.3-0.8,0.8
						c0.2,0.2,0.3,0.3,0.5,0.5c0.2,0.2,0.4,0.2,0.6,0.1c0.1,0,0.2-0.1,0.2-0.2C569.8,371.6,569.8,371.4,569.6,371.2z"/>
					<path id="XMLID_119_" class="st20" d="M554.1,378.7c-1,0.9-0.8,2.1-0.8,3.3c0,0.7,1.1,0.7,1.1,0c0-0.9-0.2-1.9,0.4-2.5
						C555.4,379,554.6,378.3,554.1,378.7z"/>
					<path id="XMLID_120_" class="st20" d="M548.8,374.8c0-0.6-1-0.6-1,0c0,0.5-0.1,1.2,0.3,1.5c0.1,0.1,0.2,0.1,0.3,0
						C549,376,548.8,375.3,548.8,374.8z"/>
					<path id="XMLID_121_" class="st20" d="M544.1,393.6c-0.3-0.1-0.6,0.1-0.9,0.2c-0.3,0.1-0.7,0.2-1.1,0.2c-0.6,0-0.6,1,0,0.9
						c0.6-0.1,2-0.2,2.2-1C544.4,393.8,544.3,393.7,544.1,393.6z"/>
					<path id="XMLID_122_" class="st20" d="M556.5,401.3c-0.2-0.6-0.3-1.2-0.3-1.8c0.1-0.6-0.8-0.5-0.9,0c-0.1,0.6,0,1.2,0.2,1.8
						c0.1,0.5,0.2,1.2,0.6,1.5c0.1,0.1,0.4,0.1,0.5-0.1C556.9,402.2,556.6,401.8,556.5,401.3z"/>
					<path id="XMLID_123_" class="st20" d="M569.5,400.5c-0.4-0.2-0.8-0.4-1.1-0.7c-0.3-0.4-0.9,0.2-0.6,0.6c0.4,0.5,1,0.8,1.6,0.6
						C569.6,400.9,569.7,400.6,569.5,400.5z"/>
					<path id="XMLID_124_" class="st20" d="M566.4,390c-0.4-0.2-0.9-0.2-1.4-0.2c-0.6,0-0.6,0.9,0,0.9c0.5,0,0.9,0,1.4-0.2
						C566.6,390.4,566.6,390.1,566.4,390z"/>
					<path id="XMLID_125_" class="st20" d="M548.5,387c-0.3-0.2-0.4-0.2-0.8-0.1c-0.1,0-0.2,0.1-0.3,0.3c0,0.2-0.1,0.3-0.1,0.5
						c-0.1,0.5,0.7,0.7,0.8,0.2c0-0.1,0-0.2,0.1-0.3c0.2-0.1,0.3-0.1,0.4-0.3C548.6,387.2,548.6,387,548.5,387z"/>
					<path id="XMLID_126_" class="st20" d="M559.1,395.2c0.1-0.3-0.2-0.5-0.4-0.3c-0.1,0.1-0.3,0.2-0.5,0.2c-0.2,0-0.4,0-0.6,0
						c-0.8,0-0.8,1.3,0,1.2c0.4,0,0.8-0.1,1-0.4C558.9,395.8,559,395.6,559.1,395.2z"/>
					<path id="XMLID_127_" class="st20" d="M566.6,382.1c-0.1-0.2-0.3-0.4-0.5-0.4c-0.9,0-1.6,0.4-2.5,0.6c-0.7,0.2-0.4,1.3,0.3,1.1
						c0.6-0.2,1.1-0.4,1.7-0.5C566,382.7,566.9,382.7,566.6,382.1z"/>
					<path id="XMLID_128_" class="st20" d="M576.3,388.3c-0.1-0.2-0.3-0.5-0.4-0.8c-0.4-0.8-1.4,0.3-0.7,0.7
						c0.3,0.1,0.5,0.2,0.8,0.4C576.2,388.7,576.4,388.5,576.3,388.3z"/>
					<path id="XMLID_129_" class="st20" d="M577.3,401.2c-0.2-0.8-1.3-0.4-1.2,0.3c0.2,0.7,0.5,1.3,0.8,1.9c0.3,0.6,0.4,1.2,0.7,1.8
						c0.1,0.2,0.4,0.2,0.5,0.1C579.3,404.3,577.6,402.3,577.3,401.2z"/>
					<path id="XMLID_130_" class="st20" d="M570,413.7c0,0.2,0,0.3,0,0.5c0,0.8,1.2,0.8,1.2,0c0-0.2,0-0.3,0-0.5
						C571.2,412.9,569.9,412.9,570,413.7z"/>
					<path id="XMLID_131_" class="st20" d="M563,406.9c0-0.7-1-0.7-1,0c0,0.6-0.2,1.6,0.3,2c0.1,0.1,0.3,0.1,0.4,0
						C563.2,408.5,563,407.5,563,406.9z"/>
					<path id="XMLID_132_" class="st20" d="M545.3,408.2c-0.8,0-0.8,1.2,0,1.2C546,409.3,546,408.2,545.3,408.2z"/>
					<path id="XMLID_133_" class="st20" d="M535.7,392.5c-0.3-0.4-1-0.4-1.5-0.4c-0.8,0-0.8,1.2,0,1.2c0.5,0,1.2,0,1.5-0.4
						C535.7,392.8,535.7,392.6,535.7,392.5z"/>
					<linearGradient id="XMLID_329_" gradientUnits="userSpaceOnUse" x1="399.6589" y1="193.0247" x2="399.6589" y2="346.4142">
						<stop  offset="0" style="stop-color:#B9304A"/>
						<stop  offset="1" style="stop-color:#EF7069"/>
					</linearGradient>
					<path id="XMLID_4_" class="st22" d="M336.9,222.1c-6,6.9-18.8,6-22.6,14.2c-3.4,7.2,2.9,15.3,2.6,23.2
						c-0.6,13.6-19.8,21.5-18.6,35c0.5,5.1,3.8,9.3,7,13.2c2.4,3,4.9,6,7.3,9c9.7,11.9,20.2,24.3,34.8,29c6.4,2.1,13.3,2.5,20.1,2.9
						c23.6,1.4,47.2,2.9,70.8,4.3c9.9,0.6,20.2,1.1,29.3-2.9c9.1-4,15.7-12.1,21.9-19.8c6.1-7.6,12.6-16.3,11.8-26.1
						c-0.8-9.8-8.7-17.9-9.3-27.7c-0.3-5.8,2-11.5,3.2-17.2c4.5-21.4-7.6-43.8-25.6-56.3c-11.6-8-25.7-12.3-39.8-12.6
						c-13.8-0.3-26.6,5.9-40.3,5.2c-11.3-0.6-23.2-7.7-34.6-4.8C337.7,195.2,345.8,211.9,336.9,222.1z"/>
					<path id="XMLID_6_" class="st9" d="M462.7,256.7c-9.2-0.5-18.4-7.3-21.4-16c-1.9,2.8-3.8,5.7-6.4,7.9c-2.6,2.2-6,3.7-9.4,3.3
						c-3.4-0.4-6.7-3.2-6.9-6.6c-0.4,3.2-3.4,5.8-6.6,5.8c-3.2,0-7-2.6-7.4-5.8c-1.5,3.5-5.2,6-9,6c-3.8,0-7.5-2.4-9-5.9
						c2.8,6.7-2.3,15.3-8.3,19.3c4,7.9-0.9,18.7-9,22.3c3,4.7,0.9,11.6-4.3,13.7c1.6-4.2-4-9.9-8.3-10.8c-4.4-0.8-8.9,2-10.9,6
						c-3,6.2-0.5,13.5,2,19.9c1.8,4.6,3.7,9.3,7.1,12.9c3.4,3.6,8.8,5.7,13.4,4c-4.7,17.7,8.6,36,25,44.1
						c16.4,8.1,35.7,7.6,53.8,4.5c12.9-2.2,27.2-6.7,32.8-18.6c4.1-8.6,2.3-18.7,0.5-28C475.5,309.6,467.6,281.7,462.7,256.7z"/>
					<g id="XMLID_41_">
						<path id="XMLID_57_" class="st23" d="M460.3,329.4c-17.5-6-36.9-2.6-54.2,3.8c-8.8,3.2-17.4,7.3-24.4,13.6
							c-3.5,3.2-6.6,7.1-8.8,11.4c4.8,7.8,12.2,14.4,20.5,18.5c16.4,8.1,35.7,7.6,53.8,4.5c12.9-2.2,27.2-6.7,32.8-18.6
							c2.5-5.4,2.8-11.3,2.2-17.3C476.7,338.1,468.9,332.4,460.3,329.4z"/>
					</g>
					<path id="XMLID_7_" class="st19" d="M414.2,270.4c-9.6-1.5-19.6-0.3-28.1,4.2c-0.8-1.8-1.5-3.9-2.3-5.7c3.2-3.9,8.1-6,13.1-6.7
						c5-0.8,10-0.3,15,0.2C412.3,264.5,413.7,268.4,414.2,270.4z"/>
					<path id="XMLID_9_" class="st19" d="M413.9,270c0-2.6,0-5.1,0-7.7c0.7,0.1,1.4,0.2,2.2,0.3C415.6,264.8,414.4,267.7,413.9,270z
						"/>
					<path id="XMLID_10_" class="st19" d="M432.4,260.1c0.7,2.9,1.5,5.8,2.2,8.6c-0.4-3.3,0.2-6.3,0.5-9.6
						C434.3,259.1,433,259.6,432.4,260.1z"/>
					<path id="XMLID_11_" class="st19" d="M454.4,271.7c-5.8-3.4-13.2-5.1-19.8-3.9c0.9-2.6,1.9-5.1,2.8-7.7
						c6.1-1.3,12.7,0.1,17.6,4C455,266.6,454.4,269.2,454.4,271.7z"/>
					<ellipse id="XMLID_12_" class="st24" cx="407.4" cy="287.3" rx="3.9" ry="9.6"/>
					
						<ellipse id="XMLID_14_" transform="matrix(0.9992 -4.040956e-002 4.040956e-002 0.9992 -11.1232 18.1069)" class="st24" cx="442.3" cy="284.2" rx="3.9" ry="9.6"/>
					<linearGradient id="XMLID_330_" gradientUnits="userSpaceOnUse" x1="448.7748" y1="323.1511" x2="423.7778" y2="291.6733">
						<stop  offset="0" style="stop-color:#FF7083"/>
						<stop  offset="1" style="stop-color:#FDB79E"/>
					</linearGradient>
					<path id="XMLID_13_" class="st25" d="M440.1,295.8c4.4,4.1,10.2,8,10.5,14c0.2,4.3-2.9,8.3-6.9,9.9c-4,1.5-8.7,0.7-12.3-1.6
						c-3.7-2.2-6.4-5.8-8.4-9.6c-3.8-7.5-4.8-16.3-2.7-24.5C425,265.7,435.4,291.4,440.1,295.8z"/>
					<path id="XMLID_15_" class="st19" d="M407.3,342.7c0,0,0.5-0.6,1.3-1.5c0.4-0.5,1-1,1.7-1.6c0.3-0.3,0.7-0.6,1.1-1
						c0.4-0.3,0.8-0.6,1.3-1c0.5-0.3,0.9-0.7,1.4-1c0.5-0.3,1-0.6,1.6-1c0.5-0.4,1.1-0.6,1.7-1c0.6-0.3,1.2-0.6,1.9-0.9
						c1.3-0.5,2.6-1.1,4.1-1.5c1.4-0.5,2.9-0.8,4.3-1.2c1.5-0.2,3-0.5,4.4-0.6c1.5-0.2,2.9-0.1,4.3-0.2c1.4,0.1,2.8,0.1,4,0.3
						c0.6,0.1,1.3,0.2,1.8,0.3c0.6,0.1,1.2,0.3,1.7,0.4c0.5,0.1,1.1,0.3,1.5,0.4c0.5,0.2,0.9,0.3,1.4,0.5c0.9,0.3,1.6,0.6,2.2,0.9
						c1.2,0.5,1.8,0.9,1.8,0.9s-0.8,0-2,0c-0.6,0-1.4,0-2.3,0c-0.4,0-0.9,0-1.4,0c-0.5,0-1,0-1.5,0c-1.1,0-2.2,0.1-3.4,0.1
						c-0.6,0-1.2,0.1-1.8,0.1c-0.6,0.1-1.3,0.1-1.9,0.2c-1.3,0.2-2.6,0.3-4,0.5c-1.3,0.2-2.7,0.5-4,0.7c-1.3,0.3-2.7,0.6-4,0.9
						c-1.3,0.3-2.6,0.7-3.9,1.1c-1.2,0.4-2.4,0.8-3.6,1.2c-1.1,0.4-2.2,0.8-3.2,1.2c-1,0.4-1.9,0.7-2.7,1.1
						c-0.8,0.3-1.5,0.6-2.1,0.9C408,342.4,407.3,342.7,407.3,342.7z"/>
					<linearGradient id="XMLID_331_" gradientUnits="userSpaceOnUse" x1="447.0169" y1="614.7827" x2="447.0169" y2="756.4321">
						<stop  offset="0" style="stop-color:#6A5965"/>
						<stop  offset="0.9946" style="stop-color:#673C4D"/>
					</linearGradient>
					<path id="XMLID_17_" class="st26" d="M626.7,602.2c10,41.7,10.4,85.7,1,127.5c-11,6-19,16.2-28.7,24.1
						c-22,17.9-53.9,21.8-80.4,11.8c-0.8-2.9-2.3-5.5-3.1-8.4c-1.9-1.3-4.4-1-6.7-0.7c-13.3,1.8-27.1,1.5-40.4,0.4
						c-1.9-10.8-3.1-20.8-3.9-31.8c-6.2,0.7-11.7,1.7-17.9,0.9c-0.3,9.7,0,19.1,0.6,28.8c-20.1,1.7-38,12.7-57.3,18.4
						c-31,9.1-64.5,3.8-95.3-5.9c-5.9-1.9-14.7-3.7-16.1-9.7c-0.6-2.4-0.7-5.4-0.4-7.9c-7.1,0.3-13.8-3.9-18.7-9
						c1.6-7.7,3.1-15.5,2.5-23.3c-0.4-5.1-1.7-10.1-2.1-15.2c-0.6-9.1,1.8-18.2,2-27.3c0.5-19.4-1.7-39.9-2.3-59.3
						c-0.2-7.4,0.4-14.6,0.7-22c23.2,10.8,48.5,16.4,73.8,20.8c49.4,8.5,99.8,12.4,149.7,7.2c49.8-5.2,99.2-19.7,141.8-46
						C625.4,583.5,624.9,594.4,626.7,602.2z"/>
					<path id="XMLID_92_" class="st27" d="M507.3,643c42.9-3,82.6-17.9,120.2-37.6c-0.2-1.1-0.5-2.1-0.7-3.2
						c-1.9-7.8-1.4-18.7-1.1-26.7c-42.6,26.4-91.9,40.9-141.8,46c-49.8,5.2-100.3,1.3-149.7-7.2c-25.3-4.3-50.6-10-73.8-20.8
						c-0.3,7.4-0.9,14.6-0.7,22c0,1.6,0.1,3.2,0.2,4.8C338.6,648.6,424.2,649.1,507.3,643z"/>
					<linearGradient id="XMLID_332_" gradientUnits="userSpaceOnUse" x1="574.9688" y1="370.9318" x2="576.3575" y2="382.9674">
						<stop  offset="0" style="stop-color:#FDB79E"/>
						<stop  offset="1" style="stop-color:#FF9991"/>
					</linearGradient>
					<path id="XMLID_20_" class="st28" d="M586.4,374.4c-6.7-6-17-8-25.1-4.1c-0.4,0.2-0.8,0.4-1,0.8c-0.2,0.4-0.2,0.8-0.2,1.2
						c0.4,4.8,3.8,9,8,11.5c4.4,2.6,15.5,7,20.4,4.6C594.7,385.3,589.8,377.4,586.4,374.4z"/>
					<linearGradient id="XMLID_333_" gradientUnits="userSpaceOnUse" x1="577.5272" y1="383.1635" x2="579.8417" y2="400.754">
						<stop  offset="0" style="stop-color:#FDB79E"/>
						<stop  offset="1" style="stop-color:#FF9991"/>
					</linearGradient>
					<path id="XMLID_21_" class="st29" d="M586.9,383.7c-7-2.5-14.5-3.7-22-4.1c-2.1-0.1-4.3,0-5.8,1.4c-1.2,1.1-1.5,2.9-1.4,4.5
						c0.2,3.2,2,6.3,4.7,8c1.8,1.1,3.9,1.6,6,2.1c5.1,1.3,10.3,2.5,15.4,3.8c3.2,0.8,11,4.3,14,2.4c3-1.9,1.6-7.5,0.3-9.9
						C595.9,387.6,591.3,385.3,586.9,383.7z"/>
					<linearGradient id="XMLID_334_" gradientUnits="userSpaceOnUse" x1="582.3456" y1="398.5698" x2="586.5118" y2="412.9199">
						<stop  offset="0" style="stop-color:#FDB79E"/>
						<stop  offset="1" style="stop-color:#FF9991"/>
					</linearGradient>
					<path id="XMLID_24_" class="st30" d="M602.5,403.6c-2.2-2.1-5.3-3.1-8.2-4c-7.3-2.1-14.7-3.8-22.2-5.1
						c-2.9-0.5-6.5-0.7-8.2,1.7c-1.1,1.6-1,3.8-0.2,5.6c1.9,3.9,6.4,5.7,10.6,6.8c3.6,0.9,7.2,1.6,10.8,2.3c3.2,0.6,6.5,1.2,9.7,1.9
						c2,0.4,6.9,2.3,8.8,1.6C607.1,412.9,604.6,405.7,602.5,403.6z"/>
					
						<linearGradient id="XMLID_335_" gradientUnits="userSpaceOnUse" x1="741.8395" y1="697.598" x2="784.427" y2="832.1498" gradientTransform="matrix(0.9398 -0.3416 0.3416 0.9398 -363.4411 -3.5697)">
						<stop  offset="0" style="stop-color:#FDB79E"/>
						<stop  offset="1" style="stop-color:#FF9991"/>
					</linearGradient>
					<path id="XMLID_25_" class="st31" d="M611.5,425.1c1-1.7,1.9-3.4,1.9-5.4c0-3.3-2.6-6-5.4-7.7c-8.7-5.5-19.9-4.9-29.7-2
						c-1.1,0.3-2.2,0.7-2.8,1.7c-1.4,2.1,1,4.7,3.2,5.9c3.4,1.8,7.2,2.9,11,3.3c-3.4,3.2-6.3,7-8.5,11.2c-3.7,7-1.5,19.6,8.6,14.5
						C598.7,442.2,606.5,433.6,611.5,425.1z"/>
					<path id="XMLID_37_" class="st32" d="M456.6,292.9c-3.1,3.1-5.3,6.9-7.4,10.6l0,4.7c-0.9,1.8,0.8,4.1,2.8,4.3
						c2,0.3,3.9-0.9,5.3-2.4c5.7-6.2,4.3-17.2,10.9-22.5C463.8,287.6,459.7,289.9,456.6,292.9z"/>
					<path id="XMLID_31_" class="st20" d="M518.1,390.2c-1.7-0.1-3.6-0.8-5.1-1.5c0.2-2.5,0.5-5.1,0.7-7.6
						C514.2,383.8,516.2,388,518.1,390.2z"/>
					<path id="XMLID_32_" class="st20" d="M513,348.8c0-1.1,0-2.2,0-3.2c0.7,0.1,1.5-0.1,2.1-0.5C514.6,346,513.2,347.8,513,348.8z"
						/>
					<g id="XMLID_36_">
						<path id="XMLID_38_" class="st33" d="M450.6,309.8c-0.3-6-6.1-9.9-10.5-14c-2.7-2.5-7.3-12-11.5-16.2
							c3.8,8.3,8,16.5,14.1,23.2c2.3,2.5,4.9,5.1,5.4,8.5c0.4,3.1-1.2,6-3.6,8.1C448.1,317.7,450.8,313.9,450.6,309.8z"/>
					</g>
					<path id="XMLID_22_" class="st34" d="M363.1,310c0-2.6-0.2-5.3-1.6-7.5c-1.4-2.2-4.1-3.6-6.7-3.5c-2.6,0.1-5.2,1.6-6.5,3.9
						c1.4-1.6,4-1.9,6-1.1c2,0.8,3.5,2.5,4.6,4.4c-2.1-1.1-4.8,0.6-5.4,2.8c-0.9,2.9,2.3,10.4,5.8,10.9
						C363.7,320.5,363.1,312.8,363.1,310z"/>
					<path id="XMLID_23_" class="st32" d="M375.2,317.2c7-1.9,14.5-2.2,21.6-0.7c5.3,1.1,15.6,6.3,18.5-0.7
						c2.3-5.4-3.5-9.6-7.7-11.7c-6.3-3.1-14.1-3.7-20.6-0.7c-2.9,1.3-5.5,3.4-7.6,5.9C378.5,310.3,375.7,317.1,375.2,317.2z"/>
					<path id="XMLID_34_" class="st9" d="M438.4,336.5c1.3-0.2,2.8-0.3,3.9,0.4c1.2,0.6,1.8,2.4,0.9,3.4c-9,1.3-18.1,2.9-27.1,3.7
						C423.4,340.6,430.3,337.6,438.4,336.5z"/>
					<linearGradient id="XMLID_336_" gradientUnits="userSpaceOnUse" x1="203.1844" y1="678.1279" x2="224.7096" y2="655.4455">
						<stop  offset="0" style="stop-color:#FDB79E"/>
						<stop  offset="1" style="stop-color:#FF9991"/>
					</linearGradient>
					<path id="XMLID_65_" class="st35" d="M199.4,666c-1,1.4-1.9,3-2,4.7c-0.2,2.3,1.2,4.5,3,5.8c1.9,1.3,4.2,1.8,6.4,1.9
						c6.9,0.3,13.6-3,19-7.3c7.1-5.6,11.6-18.9-0.4-22C215.2,646.6,204.5,658.6,199.4,666z"/>
					<linearGradient id="XMLID_337_" gradientUnits="userSpaceOnUse" x1="419.0536" y1="224.0665" x2="480.4008" y2="224.0665">
						<stop  offset="0" style="stop-color:#F4816E"/>
						<stop  offset="1" style="stop-color:#EF7069;stop-opacity:0"/>
					</linearGradient>
					<path id="XMLID_82_" class="st36" d="M435.3,220.3c1.8,1.5,4.3,1.7,6.6,1.7c4.5,0,9.2-0.8,13.6,0.4c4.4,1.2,8.6,5.1,8,9.6
						c-0.3,2.5-1.7,5.9,0.6,7c0.8,0.4,1.8,0.3,2.7,0.3c3.3,0.2,5.8,3.2,6.5,6.4c0.7,3.2,0,6.5-0.6,9.7c2.8-2.7,5.8-5.5,7.2-9.2
						s0.7-8.4-2.6-10.5c-1.4-0.9-3.2-1.2-4.4-2.4c-4.3-4,1.9-11.4-0.2-16.8c-1.4-3.6-6.1-4.9-10-4.4c-3.9,0.5-7.6,2.2-11.5,2.4
						s-8.4-2-8.9-5.9c-0.6-4.6,4.7-9.2,2.4-13.2c-1.3-2.3-4.3-2.8-7-2.8c-6.1-0.1-16.4-0.3-18.5,6.1
						C439,200.7,425.2,211.6,435.3,220.3z"/>
					<linearGradient id="XMLID_339_" gradientUnits="userSpaceOnUse" x1="318.8281" y1="258.7799" x2="373.3951" y2="258.7799">
						<stop  offset="0" style="stop-color:#F4816E"/>
						<stop  offset="1" style="stop-color:#EF7069;stop-opacity:0"/>
					</linearGradient>
					<path id="XMLID_95_" class="st37" d="M335.5,243.2c0.5,2.3,1.4,4.5,2.5,6.5c0.9,1.6,2.2,3.1,3.9,3.5c3,0.6,5.4-2.3,6.9-5
						c1.4-2.5,2.6-5.2,4.9-7s5.9-2.2,7.8-0.1c2.9,3.2-0.2,9,2.4,12.5c0.9,1.2,2.4,1.9,3.6,2.7c3.8,2.6,5.7,7.4,5.8,12
						c0.1,4.6-1.3,9.1-3,13.4c0.2-4.2-0.3-8.4-1.4-12.5c-0.5-1.8-1.4-3.8-3.2-4.1c-3-0.5-5.7,4.4-8.3,2.7c-0.6-2.8-1.1-5.5-1.7-8.3
						c-0.1-0.7-0.3-1.4-0.7-1.9c-1.7-1.9-4.5,0.6-5.8,2.7c-1.4,2.3-2.9,4.6-5.1,6.2c-2.2,1.6-5.1,2.3-7.6,1.2
						c-4.7-2.1-4.6-8.6-5.3-13.7c-1-7.2-8.2-1.8-10.7,0.9C313.2,244.2,331.7,225.5,335.5,243.2z"/>
					<ellipse id="XMLID_100_" class="st20" cx="405.4" cy="284.7" rx="1.9" ry="3"/>
					<ellipse id="XMLID_135_" class="st20" cx="439.6" cy="281.7" rx="1.9" ry="3"/>
					<linearGradient id="XMLID_340_" gradientUnits="userSpaceOnUse" x1="287.8639" y1="904.9765" x2="287.8639" y2="877.7282">
						<stop  offset="0" style="stop-color:#BCBEC0"/>
						<stop  offset="1" style="stop-color:#A7A9AC;stop-opacity:0"/>
					</linearGradient>
					<path id="XMLID_134_" class="st38" d="M283.7,912.9c0,0-0.1-0.1-0.2-0.2c-0.1-0.1-0.3-0.3-0.4-0.5c-0.2-0.2-0.4-0.6-0.5-0.9
						c-0.2-0.4-0.4-0.8-0.5-1.3c-0.1-0.5-0.2-1.1-0.3-1.7c0-0.6,0-1.3,0.1-1.9c0.1-0.7,0.3-1.3,0.6-2c0.3-0.7,0.6-1.3,1.1-1.9
						c0.4-0.5,1-1.1,1.5-1.5c0.6-0.4,1.2-0.8,1.8-1c0.6-0.3,1.2-0.5,1.8-0.6c0.6-0.1,1.2-0.2,1.7-0.2c0.5,0,1,0.1,1.4,0.2
						c0.4,0.1,0.8,0.2,1,0.3c0.3,0.1,0.5,0.2,0.6,0.3c0.1,0.1,0.2,0.1,0.2,0.1s-0.3,0-0.9,0c-0.3,0-0.6,0-1,0
						c-0.4,0-0.8,0.1-1.3,0.2c-0.5,0.1-0.9,0.2-1.4,0.4c-0.5,0.2-1,0.4-1.5,0.7c-0.5,0.3-1,0.6-1.4,1c-0.5,0.4-0.8,0.7-1.2,1.3
						c-0.3,0.4-0.7,0.9-0.9,1.5c-0.2,0.5-0.5,1.1-0.6,1.6c-0.1,0.5-0.3,1.1-0.3,1.6c-0.1,0.5-0.1,1-0.1,1.5c0,0.5,0.1,0.9,0.1,1.3
						c0.1,0.4,0.1,0.7,0.2,1C283.6,912.6,283.7,912.9,283.7,912.9z"/>
					<linearGradient id="XMLID_341_" gradientUnits="userSpaceOnUse" x1="302.9182" y1="904.9765" x2="302.9182" y2="877.7282">
						<stop  offset="0" style="stop-color:#BCBEC0"/>
						<stop  offset="1" style="stop-color:#A7A9AC;stop-opacity:0"/>
					</linearGradient>
					<path id="XMLID_138_" class="st39" d="M300,916.9c0,0-0.1-0.1-0.2-0.2c-0.1-0.1-0.3-0.2-0.5-0.5c-0.2-0.2-0.5-0.5-0.7-0.9
						c-0.3-0.4-0.5-0.8-0.7-1.3c-0.2-0.5-0.4-1.1-0.5-1.7c-0.1-0.6-0.2-1.3-0.2-2c0-0.7,0.1-1.5,0.3-2.2c0.2-0.7,0.5-1.4,1-2.2
						c0.3-0.5,0.9-1.3,1.5-1.7c0.6-0.5,1.2-0.9,1.8-1.3c0.6-0.3,1.3-0.6,1.9-0.7c0.6-0.2,1.2-0.2,1.8-0.3c0.6,0,1.1,0,1.5,0.1
						c0.4,0.1,0.8,0.2,1.1,0.3c0.3,0.1,0.5,0.2,0.7,0.3c0.2,0.1,0.2,0.1,0.2,0.1s-0.4,0-1,0c-0.3,0-0.7,0-1.1,0.1
						c-0.4,0.1-0.9,0.1-1.3,0.3c-0.5,0.1-1,0.3-1.5,0.5c-0.5,0.2-1,0.5-1.5,0.8c-0.5,0.3-1,0.7-1.4,1.2c-0.4,0.5-0.8,0.8-1.2,1.5
						c-0.3,0.5-0.6,1.1-0.8,1.6c-0.2,0.6-0.3,1.2-0.4,1.8c-0.1,0.6-0.1,1.2-0.1,1.7c0,0.6,0.1,1.1,0.2,1.6c0.1,0.5,0.2,0.9,0.4,1.3
						c0.2,0.4,0.3,0.7,0.4,1C299.8,916.6,300,916.9,300,916.9z"/>
					<linearGradient id="XMLID_342_" gradientUnits="userSpaceOnUse" x1="320.6186" y1="904.9765" x2="320.6186" y2="877.7282">
						<stop  offset="0" style="stop-color:#BCBEC0"/>
						<stop  offset="1" style="stop-color:#A7A9AC;stop-opacity:0"/>
					</linearGradient>
					<path id="XMLID_139_" class="st40" d="M317.9,916.8c0,0-0.1-0.1-0.2-0.2c-0.1-0.1-0.3-0.3-0.4-0.5c-0.2-0.2-0.4-0.5-0.6-0.9
						c-0.2-0.3-0.4-0.8-0.6-1.2c-0.3-0.9-0.6-2.1-0.5-3.4c0-0.6,0.1-1.3,0.3-1.9c0.2-0.7,0.4-1.3,0.7-1.9c0.3-0.5,0.7-1.2,1.1-1.7
						c0.4-0.5,0.9-1,1.4-1.3c1-0.8,2.1-1.3,3-1.5c0.5-0.1,0.9-0.2,1.3-0.3c0.4,0,0.7,0,1,0c0.3,0,0.5,0,0.7,0.1c0.1,0,0.2,0,0.2,0
						s-0.3,0.1-0.8,0.3c-0.3,0.1-0.6,0.2-0.9,0.4c-0.3,0.2-0.7,0.3-1.1,0.6c-0.4,0.2-0.8,0.5-1.2,0.8c-0.4,0.3-0.8,0.6-1.2,1
						c-0.4,0.4-0.7,0.8-1.1,1.2c-0.3,0.5-0.6,0.9-0.9,1.4c-0.2,0.4-0.5,1-0.6,1.5c-0.2,0.5-0.3,1.1-0.4,1.6
						c-0.1,0.5-0.1,1.1-0.1,1.6c0,0.5,0,1,0.1,1.4c0.1,0.4,0.1,0.9,0.2,1.2c0.1,0.4,0.2,0.7,0.2,0.9
						C317.8,916.5,317.9,916.8,317.9,916.8z"/>
					<linearGradient id="XMLID_343_" gradientUnits="userSpaceOnUse" x1="339.6007" y1="904.9765" x2="339.6007" y2="877.7282">
						<stop  offset="0" style="stop-color:#BCBEC0"/>
						<stop  offset="1" style="stop-color:#A7A9AC;stop-opacity:0"/>
					</linearGradient>
					<path id="XMLID_140_" class="st41" d="M335.9,917.8c0,0-0.1-0.1-0.2-0.2c-0.1-0.1-0.3-0.3-0.6-0.6c-0.2-0.3-0.5-0.7-0.8-1.1
						c-0.3-0.5-0.5-1-0.8-1.6c-0.2-0.6-0.5-1.3-0.6-2c-0.2-0.7-0.2-1.5-0.2-2.4c0-0.8,0.1-1.7,0.3-2.6c0.2-0.9,0.6-1.7,1-2.5
						c0.3-0.4,0.4-0.7,0.8-1.1c0.3-0.4,0.6-0.7,0.9-1c0.7-0.6,1.4-1.1,2.1-1.5c0.7-0.4,1.5-0.7,2.2-0.9c0.7-0.2,1.5-0.3,2.1-0.3
						c0.3,0,0.6,0,0.9,0c0.3,0,0.6,0.1,0.8,0.1c0.5,0.1,1,0.3,1.3,0.4c0.4,0.1,0.6,0.3,0.8,0.4c0.2,0.1,0.3,0.2,0.3,0.2
						s-0.1,0-0.3-0.1c-0.2,0-0.5-0.1-0.8-0.1c-0.4-0.1-0.8-0.1-1.3-0.1c-0.5,0-1,0.1-1.6,0.2c-0.6,0.1-1.2,0.3-1.8,0.5
						c-0.6,0.2-1.2,0.6-1.8,1c-0.6,0.4-1.2,0.9-1.7,1.4c-0.2,0.3-0.5,0.5-0.7,0.8c-0.2,0.2-0.5,0.7-0.6,0.9
						c-0.4,0.6-0.7,1.3-0.9,2.1c-0.2,0.7-0.4,1.4-0.4,2.2c0,0.7-0.1,1.4,0,2.1c0,0.7,0.1,1.3,0.2,1.9c0.1,0.6,0.3,1.1,0.4,1.6
						c0.2,0.5,0.3,0.9,0.4,1.2C335.7,917.4,335.9,917.8,335.9,917.8z"/>
					<linearGradient id="XMLID_344_" gradientUnits="userSpaceOnUse" x1="572.9962" y1="916.6926" x2="572.9962" y2="889.4443">
						<stop  offset="0" style="stop-color:#BCBEC0"/>
						<stop  offset="1" style="stop-color:#A7A9AC;stop-opacity:0"/>
					</linearGradient>
					<path id="XMLID_141_" class="st42" d="M576.8,911.5c0,0,0-0.1,0.1-0.2c0.1-0.1,0.2-0.3,0.3-0.6c0.1-0.3,0.2-0.6,0.4-1
						c0.1-0.4,0.2-0.8,0.2-1.3c0-0.5,0-1-0.1-1.5c-0.1-0.5-0.2-1.1-0.4-1.6c-0.2-0.6-0.5-1.1-0.7-1.6c-0.3-0.5-0.7-1-1.1-1.5
						c-0.5-0.5-0.9-0.9-1.4-1.3c-0.5-0.4-1-0.8-1.5-1.1c-1-0.7-2.1-1.2-3-1.7c-0.9-0.5-1.7-0.9-2.2-1.2c-0.5-0.3-0.8-0.5-0.8-0.5
						s0.4,0,1,0.1c0.6,0.1,1.5,0.2,2.5,0.5c1,0.3,2.2,0.7,3.4,1.3c0.6,0.3,1.2,0.7,1.8,1.1c0.6,0.4,1.2,1,1.6,1.5
						c0.5,0.6,1,1.2,1.3,1.9c0.3,0.7,0.6,1.4,0.7,2c0.2,0.7,0.2,1.4,0.2,2c0,0.6-0.1,1.2-0.3,1.8c-0.1,0.3-0.2,0.5-0.3,0.8
						c-0.1,0.2-0.2,0.4-0.3,0.6c-0.2,0.4-0.5,0.7-0.7,0.9c-0.2,0.2-0.4,0.3-0.6,0.4C576.9,911.5,576.8,911.5,576.8,911.5z"/>
					<linearGradient id="XMLID_345_" gradientUnits="userSpaceOnUse" x1="588.2662" y1="916.6926" x2="588.2662" y2="889.4443">
						<stop  offset="0" style="stop-color:#BCBEC0"/>
						<stop  offset="1" style="stop-color:#A7A9AC;stop-opacity:0"/>
					</linearGradient>
					<path id="XMLID_143_" class="st43" d="M591.3,911c0,0,0.1-0.3,0.2-0.8c0.1-0.5,0.2-1.2,0.2-2.1c0-0.4,0-0.9,0-1.4
						c0-0.5-0.1-1-0.2-1.5c-0.2-1-0.6-2-1.1-3c-0.3-0.5-0.6-0.9-0.9-1.3c-0.3-0.4-0.7-0.8-1-1.2c-0.4-0.3-0.7-0.7-1.1-1
						c-0.4-0.3-0.8-0.5-1.1-0.8c-0.7-0.4-1.4-0.7-1.9-0.9c-0.5-0.2-0.8-0.3-0.8-0.3s0.1,0,0.2,0c0.1,0,0.4-0.1,0.6,0
						c0.3,0,0.6,0,1,0.1c0.4,0,0.8,0.1,1.3,0.3c0.9,0.3,1.9,0.7,2.9,1.5c0.5,0.4,0.9,0.8,1.4,1.3c0.4,0.5,0.8,1.1,1.1,1.6
						c0.6,1.2,1,2.4,1.1,3.6c0.1,1.2,0,2.3-0.3,3.2c-0.1,0.5-0.3,0.9-0.5,1.2c-0.2,0.3-0.3,0.6-0.5,0.9c-0.1,0.2-0.3,0.4-0.4,0.5
						C591.3,910.9,591.3,911,591.3,911z"/>
					<linearGradient id="XMLID_346_" gradientUnits="userSpaceOnUse" x1="597.4601" y1="916.6926" x2="597.4601" y2="889.4443">
						<stop  offset="0" style="stop-color:#BCBEC0"/>
						<stop  offset="1" style="stop-color:#A7A9AC;stop-opacity:0"/>
					</linearGradient>
					<path id="XMLID_145_" class="st44" d="M601.3,908c0,0,0-0.3,0-0.7c0-0.2,0-0.5-0.1-0.8c0-0.3-0.1-0.6-0.2-1
						c-0.1-0.4-0.2-0.7-0.3-1.1c-0.1-0.4-0.3-0.8-0.5-1.2c-0.2-0.4-0.4-0.8-0.6-1.2c-0.2-0.4-0.5-0.8-0.8-1.2
						c-0.3-0.4-0.6-0.7-0.9-1.1c-0.3-0.3-0.6-0.6-1-0.9c-0.3-0.3-0.7-0.6-1-0.8c-0.3-0.2-0.7-0.4-1-0.6c-0.3-0.2-0.6-0.3-0.9-0.4
						c-0.3-0.1-0.5-0.2-0.7-0.3c-0.4-0.1-0.7-0.3-0.7-0.3s0.3-0.1,0.7-0.1c0.2,0,0.5-0.1,0.8,0c0.2,0,0.3,0,0.5,0
						c0.2,0,0.4,0.1,0.6,0.1c0.4,0.1,0.8,0.2,1.3,0.4c0.4,0.2,0.9,0.4,1.3,0.7c0.4,0.3,0.9,0.6,1.3,1c0.4,0.4,0.8,0.8,1.1,1.2
						c0.3,0.5,0.6,0.9,0.9,1.4c0.3,0.5,0.4,1,0.6,1.5c0.1,0.5,0.2,1,0.3,1.5c0.1,0.5,0.1,0.9,0,1.3c0,0.2,0,0.4-0.1,0.6
						c0,0.2-0.1,0.4-0.1,0.5c-0.1,0.3-0.2,0.6-0.3,0.8C601.5,907.8,601.3,908,601.3,908z"/>
					<linearGradient id="XMLID_347_" gradientUnits="userSpaceOnUse" x1="601.8" y1="916.6926" x2="601.8" y2="889.4443">
						<stop  offset="0" style="stop-color:#BCBEC0"/>
						<stop  offset="1" style="stop-color:#A7A9AC;stop-opacity:0"/>
					</linearGradient>
					<path id="XMLID_146_" class="st45" d="M607.7,905c0,0-0.1-0.3-0.3-0.7c-0.1-0.2-0.2-0.5-0.3-0.8c-0.1-0.3-0.3-0.7-0.5-1
						c-0.2-0.4-0.4-0.8-0.6-1.2c-0.2-0.4-0.5-0.8-0.8-1.2c-0.3-0.4-0.6-0.8-0.9-1.2c-0.3-0.4-0.7-0.8-1.1-1.2
						c-0.4-0.4-0.8-0.8-1.2-1.1c-0.4-0.4-0.8-0.7-1.2-1c-0.4-0.3-0.8-0.6-1.2-0.8c-0.4-0.2-0.8-0.5-1.1-0.7c-0.4-0.2-0.7-0.4-1-0.5
						c-0.3-0.2-0.6-0.3-0.8-0.4c-0.5-0.2-0.7-0.3-0.7-0.3s0.3,0,0.8,0c0.3,0,0.6,0,0.9,0.1c0.4,0,0.8,0.1,1.2,0.2
						c0.4,0.1,0.9,0.3,1.4,0.4c0.5,0.2,1,0.4,1.5,0.7c0.5,0.3,1,0.6,1.4,1c0.5,0.4,0.9,0.8,1.3,1.2c0.4,0.5,0.8,0.9,1.1,1.4
						c0.4,0.5,0.6,1,0.9,1.5c0.2,0.5,0.5,1,0.6,1.5c0.2,0.5,0.3,1,0.4,1.4c0.1,0.4,0.1,0.8,0.2,1.2c0,0.4,0,0.7,0,0.9
						C607.7,904.7,607.7,905,607.7,905z"/>
					<g id="XMLID_154_">
						<g id="XMLID_348_">
							<g id="XMLID_355_">
								<linearGradient id="XMLID_357_" gradientUnits="userSpaceOnUse" x1="265.0436" y1="700.6124" x2="278.9161" y2="700.6124">
									<stop  offset="0" style="stop-color:#673C4D;stop-opacity:0"/>
									<stop  offset="1" style="stop-color:#996D82"/>
								</linearGradient>
								<path id="XMLID_356_" class="st46" d="M274.7,651.5c-0.5,16.3-1,32.6-1.5,48.9c-0.2,7.5-0.5,15-1.6,22.3
									c-1.3,7.8-3.5,15.4-6.5,22.7c3.9,2.7,8.5,4.5,13.1,4.3C279.8,718,278.7,683,274.7,651.5z"/>
							</g>
							<g id="XMLID_353_">
								<linearGradient id="XMLID_358_" gradientUnits="userSpaceOnUse" x1="335.739" y1="725.6686" x2="447.2971" y2="725.6686">
									<stop  offset="0" style="stop-color:#673C4D;stop-opacity:0"/>
									<stop  offset="1" style="stop-color:#996D82"/>
								</linearGradient>
								<path id="XMLID_354_" class="st47" d="M385.8,720.6c-18.4-4.7-31.1-25.4-50.1-25.2c10.8,1.7,18.3,11.5,25.2,19.9
									c33.4,40.7,61.6,27.8,72.8,35.3c2.2,1.5,4.1,3.3,5.9,5.3c2.5-0.5,5.1-0.9,7.6-1.1c-0.6-9.7-0.9-19.1-0.6-28.8
									C433.5,729.7,395.3,723,385.8,720.6z"/>
							</g>
							<g id="XMLID_351_">
								<linearGradient id="XMLID_359_" gradientUnits="userSpaceOnUse" x1="598.3206" y1="693.7849" x2="615.5039" y2="693.7849">
									<stop  offset="0" style="stop-color:#996D82"/>
									<stop  offset="1" style="stop-color:#673C4D;stop-opacity:0"/>
								</linearGradient>
								<path id="XMLID_352_" class="st48" d="M613.1,633.1c2.8,28.2-12.6,55.4-12.7,83.7c0,11,2.2,22.3-0.5,33
									c-0.4,1.6-0.9,3.1-1.5,4.6c0.3-0.2,0.5-0.4,0.8-0.6c5.8-4.7,10.9-10.2,16.4-15.1C613.7,703.7,616.2,668.2,613.1,633.1z"/>
							</g>
							<g id="XMLID_349_">
								<linearGradient id="XMLID_360_" gradientUnits="userSpaceOnUse" x1="464.5715" y1="728.8382" x2="579.123" y2="728.8382">
									<stop  offset="0" style="stop-color:#996D82"/>
									<stop  offset="1" style="stop-color:#673C4D;stop-opacity:0"/>
								</linearGradient>
								<path id="XMLID_350_" class="st49" d="M579.1,699.9c-35.3,16.3-75.7,25.2-114.6,25.2c0.8,10.9,2,21,3.9,31.8
									c13.3,1.1,27.2,1.4,40.4-0.4c1.1-0.1,2.2-0.3,3.3-0.2C528.6,755.9,550.2,723.7,579.1,699.9z"/>
							</g>
						</g>
					</g>
				</g>
			</g>
			<g id="XMLID_5_">
				<path id="XMLID_251_" class="st1" d="M819.9,905.5c0,0,99.1-27.8,221.4-27.8s221.4,27.8,221.4,27.8s-99.1,27.8-221.4,27.8
					S819.9,905.5,819.9,905.5z"/>
				<g id="XMLID_73_">
					<linearGradient id="XMLID_361_" gradientUnits="userSpaceOnUse" x1="1045.4277" y1="643.5341" x2="1045.4277" y2="907.8199">
						<stop  offset="0" style="stop-color:#FF9991"/>
						<stop  offset="1" style="stop-color:#FDB79E"/>
					</linearGradient>
					<path id="XMLID_204_" class="st50" d="M964.2,874c-0.1-12,6-23.1,12.8-33c6.8-9.9,14.6-19.3,18.7-30.6
						c2.6-7.1,3.7-14.8,7.2-21.5c4.2-8.2,11.5-14.4,18-20.9c13.8-13.8,24.8-30.4,32.2-48.5c3.7-9.2,7.6-18.3,13.5-26.2
						c3.7-0.4,7.8-1.6,11.5-2c2.7,28.4,18.5,53.6,31.7,78.9c2.6,5,6,10.1,5.4,15.7c-8.1,11.2-9,26.1-7.5,39.9s10.6,28.8,5.7,41.8
						c-2,5.2-4,10.4-6,15.5c-2.1,5.5-4.2,11.8-1.6,17c1.5,3.1,4.5,5.3,7.9,5.9c2.6,0.4,5.2-0.1,7.7-0.6c9.5-1.9,20.7-3.3,30.2-5.3
						c5.3,4.5,13.2,5.7,19.6,2.9c2.3-1,5.5-2.5,8-2.7c4.3,1.5,9.3,1.8,13.1-0.7c3.8-2.5,5.5-8.3,2.5-11.7c-2.4-2.8-6.7-2.9-10.4-3
						c-5.5-0.2-11-0.7-16.4-1.7c-2.8-0.5-5.7-1.1-8.2-2.4c-2.2-1.1-4.2-2.7-6.2-4.3c-4.6-3.7-9.9-8.1-14.5-11.8
						c4.3-20.5,12.1-47.7,16.9-61.2c3.4-9.5,12.3-16.7,13.1-26.8c0.6-7.6-1.7-15.1-2.6-22.7c-1-7.4-0.7-14.9-0.5-22.4
						c1.1-37.1,0.4-74.6-13.9-108.8c-16.3,10.6-36,18.7-55.2,21.3s-38.8,2.1-58.2,0.6c-19.5-1.4-39.3-3.9-56.9-12.3
						c-5.9-2.8-11.9-6.7-14.5-12.7c-10.5,37.1-15.1,76-13.1,114.5c0.2,4.1,0.5,8.2-0.2,12.3c-0.5,2.9-1.5,5.7-1.9,8.6
						c-1.2,7.5,0.9,15,3,22.3c-9.3,28.3-3.4,62.6-16.4,89.4c-3.9,8.1-14.5,11.7-19.8,19c-1.8,2.4-3.5,5-6.2,6.2
						c-4.9,2.3-11.5-0.3-15.2,3.5c-0.8,0.8-1.3,1.8-1.8,2.9c-1,2.3-1.6,4.9-0.7,7.3s3.7,4,5.9,3c2.1,4.7,9.2,7.3,13.6,4.6
						c1.6,1.9,4.7,2.7,7,1.9c2.8,2.4,8.1,2.7,11.5,1.2c2.1,2.6,7.2,1.9,10.4,0.7s5.8-3.5,8.2-5.8c2.5-2.3,5-4.7,8.2-5.8
						c2.4-0.9,5.2-1,7.1-2.8c1.8-1.6,2.3-4.2,2.4-6.5c0.3-4.6-0.2-9.3-1.6-13.7C966.8,879,964.2,877.7,964.2,874z"/>
					<linearGradient id="XMLID_362_" gradientUnits="userSpaceOnUse" x1="1115.4756" y1="453.5354" x2="1257.6405" y2="453.5354">
						<stop  offset="0" style="stop-color:#FF9991"/>
						<stop  offset="1" style="stop-color:#FDB79E"/>
					</linearGradient>
					<path id="XMLID_182_" class="st51" d="M1115.5,365.1c11.1,2.4,22.2,4.9,32.4,10c10.1,5.1,19.3,12.9,23.9,23.2
						c1.7,4,2.8,8.3,5.6,11.6c4,4.9,10.9,5.8,16.6,8.4c8.3,3.8,16.7,7.8,23.6,13.8c14.3,12.7,19.4,32.5,23.4,51.2
						c12.4,11.5,18.8,28.2,16.2,44.9c-0.4,2.6-1.1,5.3-2.6,7.5c-3.4,4.9-10,6.1-15.9,6.2c-20.3,0.6-40.3-6.6-57.4-17.6
						c-17.1-11-31.6-25.6-44.9-40.9c-5.1-5.9-10.2-12.1-13.2-19.3c-2.8-6.5-3.8-13.5-4.4-20.6
						C1116.5,417.6,1121.5,390.4,1115.5,365.1z"/>
					<linearGradient id="XMLID_363_" gradientUnits="userSpaceOnUse" x1="891.7509" y1="558.0966" x2="1164.8462" y2="558.0966">
						<stop  offset="0" style="stop-color:#FF9991"/>
						<stop  offset="1" style="stop-color:#FDB79E"/>
					</linearGradient>
					<path id="XMLID_183_" class="st52" d="M1153.8,629.9c-4.1-14.1-3.8-29.4,0.7-43.4c1.9-5.8,4.4-11.4,6.3-17.2
						c7-21.6,4-45.2-1-67.3c-7.4-4.2-13.5-13.3-19.8-19c-13.2-12-30.5-18.2-47.6-22.8c-53.3-14.5-112.2-16.1-161.9,7.9
						c-9.5,4.6-18.7,10.1-25.9,17.8c-7.2,7.7-12.4,17.6-12.8,28.1c-0.5,12.6,11.7,22.9,17.1,34.3c2.7,5.7,5.4,11.4,9.4,16.3
						c4,4.9,9.2,8.7,14.4,12.4c8.5,6.1,17.3,12.2,27.4,14.6c5.2,9.3,5.5,21.7,9.9,31.4c3.6,8,3.9,17.6,10.5,23.3
						c6.6,5.8,14.9,9.1,23.3,11.7c37.5,11.8,78.1,10.5,116.8,3.8c8.7-1.5,17.6-3.4,24.7-8.6C1152.3,647.9,1156.2,638.3,1153.8,629.9
						z"/>
					<linearGradient id="XMLID_364_" gradientUnits="userSpaceOnUse" x1="1127.5746" y1="446.1557" x2="1245.7665" y2="446.1557">
						<stop  offset="0" style="stop-color:#BCBEC0"/>
						<stop  offset="1" style="stop-color:#A7A9AC;stop-opacity:0"/>
					</linearGradient>
					<path id="XMLID_242_" class="st53" d="M1178.9,434.1c2.4,8.2,3,17.3,8.3,24.1c9.1,11.7,27.1,10.5,40.3,17.3
						c9.5,4.9,16.5,14.5,18.3,25.1c-26.1-2.2-52.8-4.6-77-14.6c-5-2.1-10-4.5-13.7-8.4c-3.8-3.9-6.1-9-8.2-14
						c-5.4-12.8-29.6-59.7-14.1-69.5C1150.4,382.6,1174.9,420.8,1178.9,434.1z"/>
					<linearGradient id="XMLID_365_" gradientUnits="userSpaceOnUse" x1="1058.9404" y1="449.6875" x2="1070.085" y2="528.2488">
						<stop  offset="0" style="stop-color:#FDB79E"/>
						<stop  offset="1" style="stop-color:#FF9991"/>
					</linearGradient>
					<path id="XMLID_205_" class="st54" d="M971.9,548.9c3.3,7.2,8.3,14.1,15.6,17.3c7.4,3.3,16.2,2.4,23.8-0.4
						c7.6-2.8,14.5-7.3,21.6-11.3c12-6.8,24.9-12,38.2-15.7c9.5-2.6,19.3-4.4,29.1-3.3c9.7,1.1,18.8,4.9,28.3,7.1
						c9.5,2.1,20.1,2.3,28.1-3.2c10.3-7.1,12.9-21.1,14.5-33.5c0.3-2.1,0.5-4.3-0.3-6.2c-0.8-1.8-2.6-3.1-4.3-4.2
						c-47-31.1-108.7-40.5-161.7-21.2c-7.1,2.6-14.2,5.8-19.9,10.8c-7.7,6.8-12.2,16.3-16.6,25.6
						C961.9,524.5,965.7,535.4,971.9,548.9z"/>
					<linearGradient id="XMLID_366_" gradientUnits="userSpaceOnUse" x1="947.2601" y1="576.6244" x2="959.6043" y2="547.6155">
						<stop  offset="0" style="stop-color:#FDB79E"/>
						<stop  offset="1" style="stop-color:#FF9991"/>
					</linearGradient>
					<path id="XMLID_218_" class="st55" d="M931.2,550.9c0.5,2.9,1.8,5.5,3.3,8c4.3,6.9,11.1,12.3,18.8,14.6s16.6,1.4,23.5-2.8
						c3.4-2.1,6.6-6,5.2-9.8c-1.1-2.9-4.5-4.1-7.5-5c-9.1-2.6-18.9-5-25.2-12c-3.5-4-6.1-11.7-12.2-8.1
						C932.4,538.6,930.3,545.8,931.2,550.9z"/>
					<linearGradient id="XMLID_367_" gradientUnits="userSpaceOnUse" x1="949.2929" y1="557.2094" x2="959.1683" y2="533.1382">
						<stop  offset="0" style="stop-color:#FDB79E"/>
						<stop  offset="1" style="stop-color:#FF9991"/>
					</linearGradient>
					<path id="XMLID_217_" class="st56" d="M953.6,552.5c7.4,4.7,17.5,6,24.9,1.3c0.5-0.3,1-0.7,1.2-1.2c0.3-0.5,0.3-1.2,0.3-1.8
						c-0.3-5-4.4-9.1-8.8-11.6c-4.4-2.5-9.3-4.1-13.3-7.2c-5-3.8-8.2-9.6-13.4-13.2c-0.7-0.5-1.5-1-2.4-1c-1.1,0-2,0.6-2.8,1.2
						c-2.3,1.7-4.5,3.7-5.5,6.4c-2.1,5.5,3.7,9.4,6.5,13.5C943.9,544.1,948.1,549,953.6,552.5z"/>
					<g id="XMLID_282_">
						<linearGradient id="XMLID_368_" gradientUnits="userSpaceOnUse" x1="891.7509" y1="518.9716" x2="1164.8461" y2="518.9716">
							<stop  offset="0" style="stop-color:#BCBEC0"/>
							<stop  offset="1" style="stop-color:#A7A9AC;stop-opacity:0"/>
						</linearGradient>
						<path id="XMLID_284_" class="st57" d="M1139.9,482.9c-13.2-12-30.5-18.2-47.6-22.8c-53.3-14.5-112.2-16.1-161.9,7.9
							c-9.5,4.6-18.7,10.1-25.9,17.8c-7.2,7.7-12.4,17.6-12.8,28.1c-0.5,12.6,11.7,22.9,17.1,34.3c2.7,5.7,5.4,11.4,9.4,16.3
							c4,4.9,9.2,8.7,14.4,12.4c6,4.3,12.2,8.6,18.9,11.7c4.1-11.9,10-23,18.4-32.6c2.2-2.5,4.7-5,7.8-6.4c3.7-1.7,7.9-1.6,12-1.9
							c18.6-1.2,36.6-10,49-23.9c12.4-13.9,19-32.9,18-51.5c16.5,13.6,34.5,21.4,54.3,29.5c15.8,6.4,33,9,48.4,16.3
							c1.3,0.6,2.5,1.2,3.7,1.9c-0.9-6-2.1-12-3.4-17.9C1152.3,497.7,1146.2,488.6,1139.9,482.9z"/>
					</g>
					<path id="XMLID_240_" class="st58" d="M899,588.5c-5.1,8.3-10.3,16.6-15.4,24.9c5.5-7.4,11.9-14.2,19-20
						c1.8,1.2,3.5,2.3,5.3,3.5c-8.1,8.2-16.2,16.3-24.2,24.5c8.4-7.3,16.9-14.6,25.3-22c-8.7,10-17.6,19.9-26.5,29.7
						c9.4-8.4,18.7-16.9,28.1-25.3c0.5-0.5,1.1-1,1.8-1c0.8,0,1.5,0.5,2.1,1c2.4,2.1,4.9,4.3,7.3,6.4
						c-19.2,15.6-38.6,31.3-53.5,51.1c8.1-11.4,16.6-22.4,25.4-33.3c-7.9,8.1-15.8,16.3-23.7,24.4c3.1-5.4,6.1-10.8,9.2-16.3
						c-2.4,3.1-5,6.2-8,8.8c-3.4,3-5,3-8.9,0.1c-3.4-2.6-3.3-1.3-1.3-5.4c1.8-3.7,5.3-7.2,7.8-10.5
						C878.9,615.8,890.3,602.7,899,588.5z"/>
					<path id="XMLID_239_" class="st59" d="M869.7,636.3c3.6,2.1,5.4,6.4,6.1,10.5c1.9,11.4-2.6,23.6-11.4,31.1
						c-1.2,1-2.6,2-4.2,1.8c-1.9-0.2-3.2-1.9-4.3-3.5c-6.6-9.6-11.4-19-6.3-30.3C852.7,638.8,861.6,631.6,869.7,636.3z"/>
					<linearGradient id="XMLID_369_" gradientUnits="userSpaceOnUse" x1="1010.1353" y1="179.7239" x2="1010.1353" y2="349.5035">
						<stop  offset="0" style="stop-color:#B9304A"/>
						<stop  offset="1" style="stop-color:#EF7069"/>
					</linearGradient>
					<path id="XMLID_96_" class="st60" d="M964.6,341.1c-5.9-14.3-7.4-29.9-10.4-45.1s-7.9-30-18.6-41.2c-1.3-1.4-1.1-3.6-0.8-5.4
						c1.5-10.1,3.2-20.4,8.5-29.1c1.7-2.7,3.7-5.2,6.4-6.9c2.8-1.7,6.2-2.4,9.5-2.7c4.5-0.5,9-0.6,13.5-0.4
						c5.1-12.9,20.1-21.2,33.8-22.8s27.5,2.1,40.8,5.9c13.8,4,28.4,8.9,37.2,20.3c-4.3-2-8.6-4.1-12.9-6.1c8.8,10.9,12.8,25,13.7,39
						c0.9,14-1.1,27.9-3.1,41.8c-0.4-7-2.9-13.9-7.2-19.5c1.9,16.2,1.6,32.7-1.1,48.8c-0.9,5.2-2,10.5-5,14.9
						c-2.4,3.5-5.8,6.2-9.3,8.6c-14.1,9.7-30.5,15.9-47.5,17.9c-8.5,1-17.4,0.9-25.6-1.7C978.4,354.8,964.7,340,964.6,341.1z"/>
					<linearGradient id="XMLID_370_" gradientUnits="userSpaceOnUse" x1="988.1248" y1="311.646" x2="988.1248" y2="523.7511">
						<stop  offset="0" style="stop-color:#FF9991"/>
						<stop  offset="1" style="stop-color:#FDB79E"/>
					</linearGradient>
					<path id="XMLID_164_" class="st61" d="M1169.7,447.8c3.4,17,3.6,34.6,0.5,51.7c-1,5.3-2.8,11.2-7.7,13.4c-2.3,1-4.9,1-7.4,1
						c-17.9-0.1-35.8-0.2-53.8-0.4c-6.8,0-13.8-0.1-20.1-2.5c-11.1-4.1-19.2-12.5-25.9-22.1c-5.9,9.5-12,19.3-20.7,26.4
						c-11.3,9.2-25.9,13-40,16.6c-9.8,2.5-20.6,4.9-29.7,0.6c-6.9-3.3-11.5-9.8-15.8-16.1c-5.6-8.2-13.4-16.1-19-24.3
						c3,12.8,5.1,26.4,0.9,38.8c-4.7,13.9-16.1,24.2-27.3,33.7c-0.5,15-9.8,28.1-19.6,39.4s-19.4,21.5-24.3,35.6
						c3.2,2.4,5.7,5.7,7.2,9.4c1.7,4.2,2,9,4.5,12.8c2,3.1,5.4,5.7,5.2,9.4c-0.1,1.3-0.6,2.6-1.3,3.7c-1.8,3-5.4,5.3-8.4,7
						c1.3,1.9,2.7,3.9,3.3,6.1c0.7,2.2,0.6,4.8-0.8,6.7c-0.7,1-1.7,1.7-2.7,2.4c-6.7,4.7-13.3,9.5-20,14.2c-1,0.7-2,1.4-3.2,1.6
						c-2.4,0.4-4.5-1.4-6.2-3.1c-3.2-3.2-6.7-9-9.6-12.4c-7.5-8.6-14.7-17.8-18.6-28.5c-2.6-7.3-3.6-15-4.5-22.7
						c-3.4-29.1,7-58.8,4.2-88c-1-9.7,4-20.6,10.7-27.7c-0.8-12.2,2.3-24.4,7.8-35.3c5.5-10.9,12.5-20.4,21.2-29
						c-2.6-19,5.1-38.6,18.5-52.3s32.9-22.1,51.9-24.2c13.1-12.2,28.6-24,43.9-33.3c-2.2-12.6-1.7-25.6,1.3-38
						c17.4-4.7,35.9-10.2,53.8-11.7c6.3-0.5,12.6-0.6,18.8,0.5c11.5,2.1,21.9,8.1,31.9,14c2.5,5.7,4.4,11.7,5.6,17.8
						c16.4,8.1,32.6,18.1,48,27.8C1148.4,383.4,1163.6,417.4,1169.7,447.8z"/>
					<linearGradient id="XMLID_371_" gradientUnits="userSpaceOnUse" x1="1024.8287" y1="349.8431" x2="1035.938" y2="416.4985">
						<stop  offset="0" style="stop-color:#BCBEC0"/>
						<stop  offset="1" style="stop-color:#A7A9AC;stop-opacity:0"/>
					</linearGradient>
					<path id="XMLID_221_" class="st62" d="M1004.9,380.4c2.1,3.3,4.9,6.2,7.6,9c7.3,7.6,14.7,15.3,22,22.9c1.5,1.5,3.1,3.1,5.2,3.5
						c1.4-7.6,0.1-15.6,2-23.1c1.7-6.9,5.8-12.8,9-19.1s5.5-13.7,3.2-20.4c-8.4-0.3-16.8-0.6-25.2-0.9c-7.2-0.3-15.7-1.8-22.8-0.5
						C993.1,354.3,999.5,373.2,1004.9,380.4z"/>
					<linearGradient id="XMLID_372_" gradientUnits="userSpaceOnUse" x1="970.8029" y1="388.0102" x2="1005.4467" y2="388.0102">
						<stop  offset="0" style="stop-color:#BCBEC0"/>
						<stop  offset="1" style="stop-color:#A7A9AC;stop-opacity:0"/>
					</linearGradient>
					<path id="XMLID_222_" class="st63" d="M970.8,364.7c4.1,8,7.4,16.3,9.9,24.9c1.2,4,2.2,8.2,4.3,11.8c3.2,5.3,9.5,9.6,15.8,9.9
						c8.1,0.4,3.7-5.1,0.7-9.4C992.3,388.7,982.4,376,970.8,364.7z"/>
					<linearGradient id="XMLID_373_" gradientUnits="userSpaceOnUse" x1="1050.7645" y1="385.8841" x2="1067.8542" y2="385.8841">
						<stop  offset="0" style="stop-color:#BCBEC0"/>
						<stop  offset="1" style="stop-color:#A7A9AC;stop-opacity:0"/>
					</linearGradient>
					<path id="XMLID_223_" class="st64" d="M1061,386.8c3-8.2,7.7-16.4,6.7-25.1c-4.1,8.3-8.1,16.5-12.2,24.8
						c-1.9,3.8-3.8,7.7-4.5,11.8c-0.7,3.9-0.2,8.8,2.6,11.8C1059.1,404.2,1058.4,394.1,1061,386.8z"/>
					<linearGradient id="XMLID_374_" gradientUnits="userSpaceOnUse" x1="1041.2535" y1="436.671" x2="1130.0315" y2="436.671">
						<stop  offset="0" style="stop-color:#FDB79E"/>
						<stop  offset="1" style="stop-color:#FDFBE4"/>
					</linearGradient>
					<path id="XMLID_220_" class="st65" d="M1041.9,435.4c2.7-8.4,5.6-17.3,12.3-23.1c4.4-3.8,9.9-5.8,15.4-7.7
						c9-3.1,18.2-6,27.4-8.5c5.7-1.6,11.5-3.1,17.3-2.9c5.9,0.2,11.9,2.3,15.7,6.9c-18-4.8-36.9,2.6-53.4,11.3
						c-3.3,1.7-6.7,3.6-9.3,6.3c-4.1,4.2-6.1,10.1-7.9,15.7c-1.6,4.9-3.2,9.8-3.8,14.9c-1.3,10.7,1.6,22.3-3.5,31.9
						c-3.6-17.4-7.3-34.8-10.9-52.3"/>
					<linearGradient id="XMLID_375_" gradientUnits="userSpaceOnUse" x1="1048.7913" y1="536.1565" x2="1050.5778" y2="581.4154">
						<stop  offset="0" style="stop-color:#DDA08A;stop-opacity:0"/>
						<stop  offset="1" style="stop-color:#DF867F"/>
					</linearGradient>
					<path id="XMLID_208_" class="st66" d="M1079.8,557.1c-0.9,7.7-4,15.5-10,20.6c-5.5,4.7-12.8,6.5-19.8,8.2
						c-8.4,2-18.3,3.8-25-1.7c-6.7-5.4-7.1-15.5-5.9-24c0.3-1.9,0.6-3.9,1.8-5.3c1-1.3,2.6-2.1,4.1-2.8c11.9-5.9,24-11.8,36.9-15.3
						c3.5-0.9,14.1-4.7,16.8-1.8C1081.9,538.3,1080.3,552.8,1079.8,557.1z"/>
					<path id="XMLID_148_" class="st9" d="M1070.6,268.1c3.7,12-0.4,25.3,1.5,37.7c1.5,10.2,5.1,22.2,1.8,32
						c-2.9,8.8-7.9,17.4-14,24.4c-8.2,2.6-16.2,6.1-24.8,6.6c-16.9,0.9-31.6,0.2-48.4-1.4c-4-13.8-9.1-27.4-13.3-41.1
						c-2.6,0-5.3,0.1-7.9-0.4c-8.1-1.6-13.7-8.7-18.5-15.4c-1.9-2.7-4-5.6-3.8-8.9c0.2-4.2,4-7.2,7.4-9.7c0.9-0.7,1.9-1.4,3-1.4
						c2-0.1,3.4,1.8,4.5,3.5c4.4,7,8.2,15.3,12.6,22.3c-2.1-9.1-1.7-17.1-2.5-26.5c3.1-2.7,4.7-6.7,5.2-10.7c0.5-4,2.8-8.9,2.3-12.9
						c17.6-8.7,36-17.5,53.8-25.8c-14.2,10.4-28.9,19.1-45.7,24.6c21.5-6.1,42.1-15.5,60.7-28c-0.5,3.8,1.6,7.6,4.6,10
						c3.1,2.4,7.4,3,11,1.6C1061.8,255.4,1068.5,261.5,1070.6,268.1z"/>
					<g id="XMLID_281_">
						<g id="XMLID_299_">
							<g id="XMLID_300_">
								<path id="XMLID_301_" class="st23" d="M1010.8,313.9c-7.6-0.1-15.3,0.4-22.9,1.4c-4.4,0.6-9,1.5-12.4,4.3
									c-2,1.7-3.5,4.2-3.8,6.7c0.6,0,1.2,0,1.7,0c4.2,13.7,9.3,27.4,13.3,41.1c16.8,1.6,31.5,2.4,48.4,1.4
									c8.5-0.5,16.6-4.1,24.8-6.6c6-7,11.1-15.6,14-24.4c3.2-9.8-0.3-21.8-1.8-32c-0.2-1.5-0.4-3-0.4-4.6c-2.9,0.2-5.5,2.6-8,4.5
									C1049.2,317,1029,314.1,1010.8,313.9z"/>
							</g>
						</g>
					</g>
					<g id="XMLID_203_">
						<path id="XMLID_200_" class="st19" d="M1021.3,266c-9.6-1.5-19.6-0.3-28.1,4.2c-0.8-1.8-1.5-3.9-2.3-5.7
							c3.2-3.9,8.1-6,13.1-6.7c5-0.8,10-0.3,15,0.2C1019.4,260.1,1020.7,264,1021.3,266z"/>
						<path id="XMLID_197_" class="st19" d="M1021,265.6c0-2.6,0-5.1,0-7.7c0.7,0.1,1.4,0.2,2.2,0.3
							C1022.6,260.4,1021.5,263.3,1021,265.6z"/>
						<path id="XMLID_194_" class="st19" d="M1039.4,255.7c0.7,2.9,1.5,5.8,2.2,8.6c-0.4-3.3,0.2-6.3,0.5-9.6
							C1041.3,254.7,1040.1,255.2,1039.4,255.7z"/>
						<path id="XMLID_191_" class="st19" d="M1061.5,267.4c-5.8-3.4-13.2-5.1-19.8-3.9c0.9-2.6,1.9-5.1,2.8-7.7
							c6.1-1.3,12.7,0.1,17.6,4C1062.1,262.2,1061.5,264.8,1061.5,267.4z"/>
						<ellipse id="XMLID_188_" class="st24" cx="1014.5" cy="282.9" rx="3.9" ry="9.6"/>
						
							<ellipse id="XMLID_185_" transform="matrix(0.9992 -4.040956e-002 4.040956e-002 0.9992 -10.4505 42.6337)" class="st24" cx="1049.4" cy="279.8" rx="3.9" ry="9.6"/>
						<linearGradient id="XMLID_376_" gradientUnits="userSpaceOnUse" x1="1055.8187" y1="318.7729" x2="1030.8217" y2="287.2952">
							<stop  offset="0" style="stop-color:#FF7083"/>
							<stop  offset="1" style="stop-color:#FDB79E"/>
						</linearGradient>
						<path id="XMLID_184_" class="st67" d="M1047.2,291.4c4.4,4.1,10.2,8,10.5,14c0.2,4.3-2.9,8.3-6.9,9.9s-8.7,0.7-12.3-1.6
							c-3.7-2.2-6.4-5.8-8.4-9.6c-3.8-7.5-4.8-16.3-2.7-24.5C1032.1,261.3,1042.4,287,1047.2,291.4z"/>
						<path id="XMLID_178_" class="st32" d="M1062.6,290.9c-1.8,1.8-3.1,4-4.3,6.3l0,2.8c-0.5,1.1,0.5,2.4,1.6,2.5
							c1.2,0.2,2.3-0.5,3.1-1.4c3.4-3.6,2.5-10.1,6.4-13.2C1066.8,287.7,1064.4,289.1,1062.6,290.9z"/>
						<g id="XMLID_172_">
							<path id="XMLID_173_" class="st33" d="M1057.7,305.5c-0.3-6-6.1-9.9-10.5-14c-2.7-2.5-7.3-12-11.5-16.2
								c3.8,8.3,8,16.5,14.1,23.2c2.3,2.5,4.9,5.1,5.4,8.5c0.4,3.1-1.2,6-3.6,8.1C1055.1,313.3,1057.9,309.5,1057.7,305.5z"/>
						</g>
						<path id="XMLID_165_" class="st32" d="M987.2,306.5c5.3-1.5,11-1.7,16.4-0.5c4,0.8,11.8,4.8,14.1-0.6c1.7-4.1-2.7-7.3-5.9-8.9
							c-4.8-2.3-10.7-2.8-15.6-0.6c-2.2,1-4.2,2.6-5.8,4.5C989.7,301.2,987.6,306.3,987.2,306.5z"/>
						<ellipse id="XMLID_152_" class="st20" cx="1012.5" cy="280.3" rx="1.9" ry="3"/>
						<ellipse id="XMLID_149_" class="st20" cx="1046.6" cy="277.3" rx="1.9" ry="3"/>
						<path id="XMLID_253_" class="st68" d="M1059.3,334.6c-10.1,6.5-22.3,9.7-34.3,8.8c-3.3-0.2-8.6,0.2-10.7-2.4
							c-2.8-3.6-4.7-7.7-5.9-12.2c-0.3-1.1-0.5-2.2-0.7-3.3c-0.4-2.3-0.7-4.6-0.8-6.9c14.3,6.6,31.6,6.4,45.7-0.6
							c0.8,3.1,2.1,6.1,3.4,9.1c0.1,0.3,0.3,0.6,0.4,0.9C1057.4,330.3,1058.4,332.5,1059.3,334.6z"/>
						<g id="XMLID_163_">
							<g id="XMLID_302_">
								<g id="XMLID_303_">
									<path id="XMLID_304_" class="st24" d="M1056.4,328.1c-1.6,1-3.5,1.7-5.1,2l-0.4,0.1l-0.1-0.4c-0.3-0.9-0.7-1.7-1.1-2.5
										c-0.1-0.2-0.3-0.5-0.4-0.7c0,0.4-0.1,0.9-0.1,1.3c-0.1,1.1-0.2,2.2-0.2,3.2v0.3l-0.2,0.1c-5.7,3.4-13.1,5.2-20.5,5.2
										c-3.2,0-6.5-0.3-9.6-1l-0.3-0.1l-0.1-0.3c-0.3-1-0.7-2-1.1-3c-0.2-0.4-0.3-0.9-0.5-1.3c-0.3,1.4-0.5,2.8-0.2,3.9l0.1,0.5
										l-0.5,0.1c-2.4,0.5-4.7-1.2-6.8-5.1l-0.9-1.6c-0.3-1.1-0.5-2.2-0.7-3.3l2.4,4.5c1.7,3.2,3.5,4.8,5.4,4.7
										c-0.2-1.3,0.1-2.7,0.3-4.1c0.1-0.5,0.2-1,0.2-1.5l0.3-2.2l0.6,2.2c0.3,1,0.7,2,1.1,3c0.4,0.9,0.7,1.9,1,2.8
										c10.1,2.1,21.1,0.6,29-4c0-1,0.1-2.1,0.2-3.1c0.1-1.1,0.2-2.2,0.2-3.2v-2.9l0.9,2.7c0.3,0.9,0.7,1.7,1.1,2.5
										c0.4,0.7,0.8,1.4,1.1,2.2c1.5-0.3,3.1-0.9,4.5-1.8C1056.2,327.5,1056.3,327.8,1056.4,328.1z"/>
								</g>
							</g>
						</g>
						<path id="XMLID_207_" class="st24" d="M1055.2,325.3c0.9,3.6,1.3,7.2,1.3,10.9c0.9-0.5,1.9-1.1,2.8-1.7
							C1058,331.6,1056.5,328.5,1055.2,325.3z"/>
						<path id="XMLID_206_" class="st24" d="M1011.7,320.6c-1.6-0.6-3.2-1.2-4.8-1.9c0.4,8,2.5,16.1,7.4,22.4
							c0.2,0.3,0.5,0.5,0.8,0.8C1012.6,335.2,1011.4,328,1011.7,320.6z"/>
					</g>
					<g id="XMLID_275_">
						<linearGradient id="XMLID_377_" gradientUnits="userSpaceOnUse" x1="1076.4478" y1="863.8" x2="1076.4478" y2="719.5035">
							<stop  offset="0" style="stop-color:#A7A9AC;stop-opacity:0"/>
							<stop  offset="1" style="stop-color:#BCBEC0"/>
						</linearGradient>
						<path id="XMLID_279_" class="st69" d="M1155.6,884.4c-6.6-2.9-10.5-10-16.6-13.7c-1.8-1.1-4-2-5-3.9c-0.8-1.5-0.8-3.3-0.7-5
							c1.1-19.7,5.9-39.2,14-57.2c-5.6,0.2-11.2-2.4-14.6-6.8c5.9-0.3,12-0.6,17.4-2.9s10.3-7,11-12.9c1-8.2-5.9-15.3-6.6-23.5
							c-0.7-8.1,4.7-15.3,6.9-23.1c2.7-9.6,0.7-19.8-1.4-29.6c-5.5-25.9-11-51.8-16.5-77.8c-14.4,8-30.6,14-46.6,16.2
							c-19.3,2.6-38.8,2.1-58.2,0.6c-11.6-0.9-23.4-2.1-34.7-4.7c2.7,26.4,4.5,55.3,0.3,81.1c-2.2,13.2-1.2,27.3-6.7,39.5
							c-6.1,13.6-20.2,23.1-35.1,23.6c5.5,4.1,12.7,5.7,19.4,4.4c-3.5,25.5-23.8,46.8-25.1,72.5c-0.7,13.3,3.8,26.2,6.2,39.3
							c0.2,1.3,0.4,2.6,0.6,3.9c1.3-0.4,2.5-0.8,3.5-1.7c1.8-1.6,2.3-4.2,2.4-6.5c0.3-4.6-0.2-9.3-1.6-13.7
							c-1.1-3.6-3.8-4.8-3.8-8.5c-0.1-12,6-23.1,12.8-33c6.8-9.9,14.6-19.3,18.7-30.6c2.6-7.1,3.7-14.8,7.2-21.5
							c4.2-8.2,11.5-14.4,18-20.9c13.8-13.8,24.8-30.4,32.2-48.5c3.7-9.2,7.6-18.3,13.5-26.2c3.7-0.4,7.8-1.6,11.5-2
							c2.7,28.4,18.5,53.6,31.7,78.9c2.6,5,6,10.1,5.4,15.7c-8.1,11.2-9,26.1-7.5,39.9c1.4,13.8,10.6,28.8,5.7,41.8
							c-2,5.2-4,10.4-6,15.5c-2.1,5.5-4.2,11.8-1.6,17c1.5,3.1,4.5,5.3,7.9,5.9c2.6,0.4,5.2-0.1,7.7-0.6c9.5-1.9,20.7-3.3,30.2-5.3
							c5.3,4.5,13.2,5.7,19.6,2.9c2.3-1,5.5-2.5,8-2.7c4.3,1.5,9.3,1.8,13.1-0.7c3.8-2.5,5.5-8.3,2.5-11.7c-2.4-2.8-6.7-2.9-10.4-3
							c-3.4-0.1-6.9-0.4-10.3-0.8C1167.8,885.8,1161.4,887,1155.6,884.4z"/>
					</g>
					<linearGradient id="XMLID_378_" gradientUnits="userSpaceOnUse" x1="1060.084" y1="639.7527" x2="1060.084" y2="741.5924">
						<stop  offset="0" style="stop-color:#6A5965"/>
						<stop  offset="0.9946" style="stop-color:#673C4D"/>
					</linearGradient>
					<path id="XMLID_262_" class="st70" d="M1109.5,739.7c20.1-4.7,41.5-12.3,56.8-25.5c0.2-31.3-2.2-62.5-14.2-91.3
						c-16.3,10.6-36,18.7-55.2,21.3c-19.3,2.6-38.8,2.1-58.2,0.6c-19.5-1.4-39.3-3.9-56.9-12.3c-5.9-2.8-11.9-6.7-14.5-12.7
						c-9.7,34.2-14.3,70-13.4,105.5c25,18.1,58,28.1,86.5,18.1c4.9-7.6,9.1-15.7,12.6-24.2c3.7-9.2,7.6-18.3,13.5-26.2
						c3.7-0.4,7.8-1.6,11.5-2c1.7,17.4,8.2,33.6,16.1,49.3C1099.1,741.4,1104.2,741.4,1109.5,739.7z"/>
					<linearGradient id="XMLID_379_" gradientUnits="userSpaceOnUse" x1="1109.6796" y1="531.4745" x2="1113.3828" y2="572.2103">
						<stop  offset="0" style="stop-color:#DDA08A;stop-opacity:0"/>
						<stop  offset="1" style="stop-color:#DF867F"/>
					</linearGradient>
					<path id="XMLID_209_" class="st71" d="M1085.5,552.2c2.1,7,6.5,13.6,13.1,16.7c3.3,1.6,6.9,2.2,10.5,2.5
						c6.3,0.5,12.6,0.1,18.8-1.3c2.6-0.6,5.3-1.4,7-3.4c1.6-1.9,2.1-4.5,2.5-7c0.8-6,1.1-12.1,0.9-18.1c-0.1-3.1-0.5-6.4-2.6-8.7
						c-1.9-2.1-4.7-2.9-7.4-3.5c-11.3-2.8-23.5-5-35-2.1c-3.8,1-8.7,2-10.1,5.9C1081.5,538.1,1084.1,547.6,1085.5,552.2z"/>
					<linearGradient id="XMLID_380_" gradientUnits="userSpaceOnUse" x1="1053.2653" y1="566.3048" x2="1053.2653" y2="624.9398">
						<stop  offset="0" style="stop-color:#DDA08A;stop-opacity:0"/>
						<stop  offset="1" style="stop-color:#DF867F"/>
					</linearGradient>
					<path id="XMLID_213_" class="st72" d="M1078.6,606.2c-2,3.7-4.7,7.1-8.3,9.2c-2.5,1.4-5.4,2.1-8.2,2.6
						c-9.1,1.6-18.4,1.8-27.6,0.5c-2.1-0.3-4.3-0.7-5.9-2.1c-1.8-1.5-2.7-3.8-3.4-6c-2.6-8.3-3.6-17.9,1-25.2
						c3.9-6.2,11-9.6,17.8-12.5c8.2-3.5,28.8-14.7,34.9-4.6C1085.6,579,1084.7,595.1,1078.6,606.2z"/>
					<linearGradient id="XMLID_381_" gradientUnits="userSpaceOnUse" x1="1114.2378" y1="570.3715" x2="1116.7065" y2="611.7246">
						<stop  offset="0" style="stop-color:#DDA08A;stop-opacity:0"/>
						<stop  offset="1" style="stop-color:#DF867F"/>
					</linearGradient>
					<path id="XMLID_216_" class="st73" d="M1088.8,580.8c0.3,6.5,0.7,13.3,3.7,19.1c3.1,6.1,9,10.6,15.5,12.7
						c6.5,2.1,13.7,1.9,20.3,0.1c5.9-1.7,12.1-5.4,13.4-11.4c0.6-2.9,0-5.9-0.5-8.8c-0.7-4.8-1.1-9.6-0.9-14.4
						c0.1-4.2,0.5-8.6-1.1-12.5c-1.7-3.9-5.3-6.7-9.2-8.3c-3.9-1.6-8.2-2.2-12.4-2.7c-6.9-0.9-18.2-3.5-24.3,1.4
						C1086.7,561.3,1088.5,573.6,1088.8,580.8z"/>
					<linearGradient id="XMLID_382_" gradientUnits="userSpaceOnUse" x1="920.8917" y1="448.0064" x2="1053.5311" y2="448.0064">
						<stop  offset="0" style="stop-color:#FDB79E"/>
						<stop  offset="1" style="stop-color:#FDFBE4"/>
					</linearGradient>
					<path id="XMLID_219_" class="st74" d="M986,411c16.7,0.2,32.8,5.8,48.6,11.3c1.7,0.6,3.4,1.2,4.7,2.4c1.1,1,1.8,2.3,2.4,3.6
						c8.7,17.5,12.7,37.2,11.7,56.7c0.3-2.9-1.3-5.7-2.8-8.2c-5.4-8.6-11.1-17.1-17-25.3c-2.7-3.7-5.4-7.4-9-10.2
						c-6-4.6-13.7-6.1-21.1-7.9c-12.1-2.9-24.1-6.8-36.5-8.4c-15.4-2-31.3-0.4-46.1,4.6c4.8-1.6,23.7-10.4,28.7-12
						C961.4,413.8,973.6,410.8,986,411z"/>
					<path id="XMLID_224_" class="st59" d="M1103.3,368c-12.2,2.7-19.3,15.1-24.5,26.5c-15.8,34.8-27.1,71.7-33.5,109.3
						c7.6-1.6,12.1-7.5,16.7-13.7c21.2-28.4,38.3-59.8,50.8-92.9c2.2-5.7,4.2-11.8,3.2-17.8C1115.1,373.4,1109.3,366.7,1103.3,368z"
						/>
					<path id="XMLID_234_" class="st59" d="M1114.6,397.9c-23.9,30.2-41.4,65.4-50.9,102.7c6-1.4,11-5.5,15.7-9.5
						c19.7-17.3,37.5-36.8,52.9-58c5.4-7.4,10.6-15.2,12.6-24.1c1.7-7.3,1.5-22-7.2-25.4C1128.9,380.2,1119.2,392.1,1114.6,397.9z"
						/>
					<linearGradient id="XMLID_383_" gradientUnits="userSpaceOnUse" x1="854.1497" y1="682.0439" x2="826.3752" y2="647.7888">
						<stop  offset="0" style="stop-color:#BCBEC0"/>
						<stop  offset="1" style="stop-color:#A7A9AC;stop-opacity:0"/>
					</linearGradient>
					<path id="XMLID_255_" class="st75" d="M863.9,673.3c-0.6-2-1.9-3.6-3.3-5.2c-5.4-6.3-11.7-12-18.5-16.8c-5,8.7-7,19.2-5.5,29.1
						l-0.2,1.6c2.6,0.3,3.7,3.3,5.3,5.3c3,3.8,8.7,4.8,13.1,2.9s7.6-6.2,8.8-10.9C864.2,677.5,864.5,675.3,863.9,673.3z"/>
					<path id="XMLID_235_" class="st58" d="M1103.6,372.9c7.8-27.8,22.2-53.7,41.5-75.2c-7.3,7.3-12.9,16.3-16.4,26
						c6.1-9.9,13.7-18.8,22.4-26.5c2.5,2.5,4.8,5.2,7,8c-9.2,7.5-17.3,16.3-24,26.1c7.8-8.3,16.2-16.1,25.1-23.3
						c0.5,0.6,0.9,1.1,1.4,1.7c-8.5,7-15.9,15.2-21.9,24.4c7.7-7,15.9-13.5,24.6-19.2c-8.6,6.9-16.3,15-22.8,23.9
						c8.6-6.8,17.4-13.7,27.2-18.6c-24.7,18.6-46.7,40.9-65.1,65.8c6.4-11.8,13.8-23.1,22.2-33.5c-11.1,9.8-19.9,22.1-25.7,35.7
						c2.5-8.9,6-17.5,10.3-25.6"/>
					<path id="XMLID_236_" class="st58" d="M1157.2,347.1c-2.2,5.2-4.9,10.1-8.1,14.8c4.2-5.1,8.3-10.1,12.5-15.2
						c-4.2,6.4-8.5,12.8-12.7,19.3c4.8-6.2,9.5-12.4,14.3-18.6c0.4-0.5,0.8-1.1,1.4-1.4c0.7-0.5,1.6-0.6,2.5-0.7
						c3.6-0.5,7.1-1.1,10.7-1.6c-7.4,6.6-14.2,13.9-20.1,21.8c7-7.1,14-14.2,21.1-21.2c1.5,2.3,3.2,4.5,5.2,6.4
						c-7.8,6-15,12.8-21.4,20.1c4.9-4,9.8-8,14.7-12c-4.9,5.1-10,10-15.3,14.7c5.9-4.4,11.7-8.8,17.6-13.3c0.9,1.4,1.8,2.8,2.6,4.2
						c-18.5,10.5-35,24.4-48.7,40.7c6-8,12.3-15.8,18.8-23.4c-6.2,5-12,10.5-17.2,16.5c-2.3-1.7-1.1-5.4,0.3-7.9
						c3-5.3,6-10.5,8.9-15.8c-5.4,7-10.6,14.3-16.4,21c-0.9-3.5,2.4-6.7,3.9-9.6c2.4-4.7,5-9.3,7.7-13.8c2.7-4.4,5.5-8.7,8.5-12.9
						C1150.7,355.4,1155.5,351.2,1157.2,347.1z"/>
					<path id="XMLID_237_" class="st58" d="M1085.8,328.5c1.6,4,2.8,8.2,3.6,12.5c0.1-3.1-0.1-6.1-0.7-9.1c0.5,2.7,1.2,5.3,2.2,7.8
						c-0.8-4.5-1.7-9-2.5-13.6c-0.1-0.8-0.3-1.7,0.1-2.4c0.3-0.5,0.8-0.8,1.3-1c1.7-1,3.4-2,5.1-2.9c0.5,9.1,2,18.1,4.2,26.8
						c0.1-8.1-0.1-16.3-0.7-24.4c0.9,5.9,2.2,11.8,3.9,17.5c0.7-0.1,1.4-0.2,2.1-0.2c0.7-6.4,0.8-12.9,0.3-19.3
						c2.5,23.6,3.7,47.4,3.5,71.2c0,0.7-6.3-1.8-6.7-2.1c-2.2-1.4-3.9-3.4-5-5.8c-1.9-4.2-0.5-9.1-1.5-13.5
						C1092,356.2,1088.7,342.4,1085.8,328.5z"/>
					<path id="XMLID_238_" class="st59" d="M835.3,675.9c1.3-2.5,2.6-5,4.6-6.8c4.4-4,11.8-3.9,16.3-0.1c4.6,3.8,6.1,10.6,4.1,16.2
						c-1,2.8-2.8,5.3-4.6,7.7c-16.8,22.8-33.5,47.9-54.8,66.8c0.3-5.8,11.6-31.5,14.5-39.3C821.2,705.3,827.9,690.4,835.3,675.9z"/>
					<linearGradient id="XMLID_384_" gradientUnits="userSpaceOnUse" x1="982.4945" y1="314.6383" x2="990.4105" y2="364.7728">
						<stop  offset="0" style="stop-color:#BCBEC0"/>
						<stop  offset="1" style="stop-color:#A7A9AC;stop-opacity:0"/>
					</linearGradient>
					<path id="XMLID_241_" class="st76" d="M990.9,327.7c0.9,0.4,1.9,0.9,2.5,1.7c0.5,0.7,0.7,1.6,0.8,2.4
						c2.1,11.7,4.3,23.4,6.4,35.1c-2.3-3.5-6.3-5.5-9.3-8.4c-3.8-3.7-6-8.6-7.9-13.6c-6-15.3-11.2-31.5-13.7-47.8
						C975,308.1,979.1,321.9,990.9,327.7z"/>
					<linearGradient id="XMLID_385_" gradientUnits="userSpaceOnUse" x1="1067.2007" y1="315.8082" x2="1072.0662" y2="315.8082">
						<stop  offset="0" style="stop-color:#BCBEC0"/>
						<stop  offset="1" style="stop-color:#A7A9AC;stop-opacity:0"/>
					</linearGradient>
					<path id="XMLID_1_" class="st77" d="M1067.3,316.1c0.5,8,3.2,15.9,2.2,23.9c0.6-5.3,1.2-10.6,1.8-16c0.4-3.4,0.8-6.8,0.7-10.2
						c-0.1-6.4-0.5-14.2-1.4-22.2C1069,299.8,1066.8,307.7,1067.3,316.1z"/>
					<path id="XMLID_159_" class="st34" d="M964.1,308.8c0-2.6-0.2-5.3-1.6-7.5c-1.4-2.2-4.1-3.6-6.7-3.5c-2.6,0.1-5.2,1.6-6.5,3.9
						c1.4-1.6,4-1.9,6-1.1c2,0.8,3.5,2.5,4.6,4.4c-2.1-1.1-4.8,0.6-5.4,2.8c-0.9,2.9,2.3,10.4,5.8,10.9
						C964.7,319.3,964.1,311.6,964.1,308.8z"/>
					<linearGradient id="XMLID_386_" gradientUnits="userSpaceOnUse" x1="1053.1124" y1="463.5287" x2="1167.0676" y2="463.5287">
						<stop  offset="0" style="stop-color:#BCBEC0"/>
						<stop  offset="1" style="stop-color:#A7A9AC;stop-opacity:0"/>
					</linearGradient>
					<path id="XMLID_243_" class="st78" d="M1125.3,396.3c10.9,11.4,18,26.3,20,41.9c0.4,3.4,0.6,6.8,1.5,10.1
						c3,11.1,13,18.9,17.5,29.5c0.6,1.5,1.1,3,1.2,4.6c0.1,2.1-0.5,4.2-1.3,6.2c3.4,12.7,2.9,29,2.8,42.1
						c-14.2-6.8-28.3-13.6-42.5-20.5c-11.4-5.5-23.2-11.1-35.8-12.4c-6.4,5.1-12.8,10.2-19.2,15.4c2-7.1,3.9-14.2,5.9-21.3
						c-7.4,6.7-14.9,13.3-22.3,20c8.7-30.4,19.8-60,33-88.7c2.1-4.4,4.3-9,7.9-12.2C1101.2,404.9,1123.4,405.6,1125.3,396.3z"/>
					<linearGradient id="XMLID_387_" gradientUnits="userSpaceOnUse" x1="1053.0088" y1="472.0444" x2="1260.3026" y2="472.0444">
						<stop  offset="0" style="stop-color:#FF9991"/>
						<stop  offset="1" style="stop-color:#FDB79E"/>
					</linearGradient>
					<path id="XMLID_181_" class="st79" d="M1118.7,491.4c-13.6-1.2-27.8-2.6-39.2-10c-5.3-3.5-9.8-8.2-15.3-11.5
						c-3.6-2.1-7.8-3.8-10.2-7.2s-0.4-9.3,3.7-10c-4.5-5.3-2.6-14.5,1.9-19.9c-0.2-2.7-0.4-5.4,0.2-8c0.5-2.6,1.9-5.2,4.1-6.6
						c1.7-1.1,3.9-1,5.2-2.6c-1.7-2.9-3.4-5.9-4.2-9.2c-0.8-3.3-0.5-7,1.5-9.7c2.7-3.6,8.4-4.5,12.1-1.8c3.8,2.8,4.9,8.2,8.5,11.2
						c2.2,1.9,5.2,2.7,7.7,4.3c2.6,1.8,3.8,5.3,6.9,5.9c3.3-0.6,7.6-1.9,10.7-3.3c-1.2-5.2,0.1-10.9,1.9-15.9
						c-4.3-3.6-7.9-8.9-7.1-14.4c0.2-1.4,0.8-3,2.1-3.6c0.7-0.4,1.6-0.4,2.4-0.4c2,0.1,4,0.7,5.7,1.7c1,0.6,1.9,1.3,3,1.7
						c3.2,1.2,7.3,0.5,9.9,2.7c-0.3,6.1,6.1,10.6,6.6,16.7c0.3,3.4-1.4,7.4-0.6,10.7c0.8,3.3,1.6,6.6,2.3,9.9
						c1.9,7.8,3.7,15.9,2,23.8c6.3,8.3,17.2,12.6,26.5,17.1c16.7,7.9,33.7,15.8,51.6,20.5c12.9,3.4,27.6,6.1,35,17.1
						c2.9,4.4,4.3,9.6,5.2,14.7c1.3,7.3,1.9,14.9,0.5,22.2s-4.9,14.4-10.7,19c-6.5,5.3-15.1,7.1-23.4,8.3c-4.2,0.6-8.4,1.1-12.6,0.6
						c-4.7-0.6-9.2-2.5-13.5-4.7c-13.7-7-25.4-17.2-36.8-27.4C1147.9,520.1,1132.8,505.1,1118.7,491.4z"/>
					<linearGradient id="XMLID_388_" gradientUnits="userSpaceOnUse" x1="981.4164" y1="214.7757" x2="1051.7504" y2="214.7757">
						<stop  offset="0" style="stop-color:#F4816E"/>
						<stop  offset="1" style="stop-color:#EF7069;stop-opacity:0"/>
					</linearGradient>
					<path id="XMLID_244_" class="st80" d="M995.6,199.4c-4.6,2.5-7.8,7.4-8.4,12.7c2.5-1,4.9-2,7.4-2.9c1.4,2.6-3.2,6-1.3,8.2
						c0.7,0.8,1.9,0.9,2.9,1.2c3.8,1.3,5,6.7,8.8,8.1c4.2,1.5,8.6-2.8,12.9-1.7c-2.7,2.9-4.8,6.3-6.1,10c4.5-0.1,8.9-2,12.1-5.1
						c-0.5,2.9-1.6,5.6-3.2,8c9.2-6.2,20-9.8,31.1-10.4c-5.3-3.6-11.9-5.3-18.2-4.5c3.7-3.3,7.8-5.9,12.3-8
						c-5.2-0.8-10.4-1.7-15.6-2.5c1.5-1.3,0.5-4-1.2-4.9c-1.8-1-3.9-0.9-5.8-1.4c-3.4-0.9-6-3.6-9-5.5s-7.3-2.8-9.8-0.3
						c2.8-3.3,6-6.2,9.5-8.9c-4.3,0.3-37.2,6.8-31.9,13.7C986.2,203.1,991.6,201.6,995.6,199.4z"/>
					<linearGradient id="XMLID_389_" gradientUnits="userSpaceOnUse" x1="938.3709" y1="251.4243" x2="998.5993" y2="251.4243">
						<stop  offset="0" style="stop-color:#F4816E"/>
						<stop  offset="1" style="stop-color:#EF7069;stop-opacity:0"/>
					</linearGradient>
					<path id="XMLID_246_" class="st81" d="M948.2,219.7c-0.2,6.1-0.5,12.2-0.7,18.3c3.1-1.6,6.2-3.2,9.2-4.8c0,2.3,0,4.7,0,7
						c0,0.7,0,1.4,0.5,1.9c0.7,0.6,1.7,0.3,2.5-0.1c2.3-1,4.5-2.1,6.9-2.5c8.1-1.6,15.8,3.7,22.4,8.7c-4.3,2.7-8.4,5.7-12.2,9.2
						c7.2-2.2,14.4-4.4,21.6-6.5c-9,3.1-17.6,6.9-25.9,11.5c-2.3,1.3-4.7,2.7-6.3,4.8c-3.5,4.6-2.9,11.3-6,16.1
						c-0.2-9.7,0.7-19.5,2.9-29c-2.7,2-5.4,4-8,6.1c-0.8,0.6-1.8,1.3-2.8,0.9c-0.9-0.3-1.3-1.3-1.8-2.1c-2.8-5.4-9-5.7-10.7-11.2
						c0,0-1.7,0.6-1.6,0.7C939.6,238.3,942.8,228.5,948.2,219.7z"/>
					<linearGradient id="XMLID_390_" gradientUnits="userSpaceOnUse" x1="1068.2235" y1="658.269" x2="1068.2235" y2="706.4747">
						<stop  offset="0" style="stop-color:#673C4D;stop-opacity:0"/>
						<stop  offset="1" style="stop-color:#996D82"/>
					</linearGradient>
					<path id="XMLID_71_" class="st82" d="M1088.3,680.2c1.9-3,5.1-4.9,8.2-6.7c13.1-7.6,26.2-15.2,39.3-22.9
						c-18.4,4.6-36.8,9.2-54.2,16.7c-6.5,2.8-13.1,6.1-20.1,6.6c-5.7,0.4-11.3-1.1-16.8-2.6c-14.7-3.9-29.3-7.8-44-11.7
						c19.3,7.8,30.7,36.5,52,35.8c-0.6,11.1-1.8,22.1-3.8,33.1c1.5-3,2.8-6,4.1-9c3.7-9.2,7.6-18.3,13.5-26.2
						c3.7-0.4,7.8-1.6,11.5-2c1.5,15.3,6.7,29.6,13.3,43.6c-3.7-14.8-6.4-29.6-5.5-44.7C1086,686.6,1086.5,683.1,1088.3,680.2z"/>
					<g id="XMLID_266_">
						<linearGradient id="XMLID_391_" gradientUnits="userSpaceOnUse" x1="898.028" y1="902.2942" x2="904.4525" y2="902.2942">
							<stop  offset="0" style="stop-color:#BCBEC0"/>
							<stop  offset="1" style="stop-color:#A7A9AC;stop-opacity:0"/>
						</linearGradient>
						<path id="XMLID_248_" class="st83" d="M900.4,907.3c0,0,0,0-0.1-0.1c-0.1-0.1-0.2-0.1-0.4-0.2c-0.3-0.2-0.7-0.6-1.1-1.2
							c-0.4-0.6-0.6-1.4-0.7-2.2c-0.1-0.9,0-1.8,0.4-2.7c0.2-0.4,0.4-0.9,0.7-1.2c0.3-0.4,0.6-0.7,1-1c0.7-0.5,1.4-0.9,2.1-1
							c0.7-0.2,1.2-0.2,1.6-0.1c0.2,0,0.3,0.1,0.4,0.1c0.1,0,0.2,0,0.2,0s-0.2,0.1-0.5,0.2c-0.3,0.1-0.8,0.4-1.3,0.7
							c-0.5,0.3-1,0.8-1.4,1.3c-0.2,0.3-0.4,0.5-0.6,0.8c-0.2,0.3-0.3,0.5-0.5,0.9c-0.5,1.3-0.6,2.7-0.4,3.9
							c0.1,0.6,0.2,1.1,0.4,1.4C900.3,907.1,900.4,907.3,900.4,907.3z"/>
						<linearGradient id="XMLID_392_" gradientUnits="userSpaceOnUse" x1="910.2899" y1="905.3387" x2="916.0249" y2="905.3387">
							<stop  offset="0" style="stop-color:#BCBEC0"/>
							<stop  offset="1" style="stop-color:#A7A9AC;stop-opacity:0"/>
						</linearGradient>
						<path id="XMLID_252_" class="st84" d="M913.3,910.6c-0.3-0.1-0.5-0.2-0.7-0.4c-0.2-0.2-0.4-0.3-0.6-0.5
							c-0.4-0.4-0.7-0.9-1-1.4c-0.5-1-0.7-2.3-0.5-3.5l0.1-0.4l0.1-0.5c0.1-0.3,0.2-0.6,0.4-0.8c0.3-0.5,0.6-1,1.1-1.4
							c0.4-0.4,0.9-0.8,1.4-1c0.3-0.1,0.5-0.2,0.8-0.3c0.3-0.1,0.6-0.1,0.8-0.2l0.1,0c0.7,0.1,0.9,0.8,0.7,1.2
							c-0.1-0.4-0.6-0.6-0.7-0.5l0.1,0c-0.2,0.1-0.4,0.3-0.6,0.4c-0.2,0.1-0.4,0.3-0.5,0.5c-0.3,0.3-0.6,0.7-0.9,1
							c-0.3,0.4-0.5,0.8-0.7,1.2c-0.1,0.2-0.2,0.4-0.2,0.6c0,0.1-0.1,0.2-0.1,0.3l-0.1,0.3c-0.2,0.8-0.2,1.8,0,2.7
							c0,0.2,0.1,0.5,0.2,0.7c0.1,0.2,0.2,0.5,0.2,0.7c0.1,0.2,0.2,0.5,0.3,0.7C913,910.1,913.1,910.3,913.3,910.6z"/>
						<linearGradient id="XMLID_393_" gradientUnits="userSpaceOnUse" x1="918.6507" y1="908.3372" x2="923.0632" y2="908.3372">
							<stop  offset="0" style="stop-color:#BCBEC0"/>
							<stop  offset="1" style="stop-color:#A7A9AC;stop-opacity:0"/>
						</linearGradient>
						<path id="XMLID_257_" class="st85" d="M921.5,912.6c0,0-0.2-0.1-0.4-0.3c-0.3-0.2-0.6-0.4-1-0.8c-0.4-0.4-0.7-0.9-1-1.6
							c-0.3-0.7-0.5-1.4-0.4-2.3c0-0.3,0-0.3,0.1-0.6c0-0.2,0.1-0.4,0.2-0.6c0.2-0.4,0.4-0.7,0.6-1c0.5-0.6,1.1-1,1.7-1.2
							c0.3-0.1,0.6-0.1,0.8-0.1c0.2,0,0.4,0,0.6,0.1c0.2,0,0.3,0.1,0.4,0.1c0.1,0,0.1,0.1,0.1,0.1s-0.2,0.1-0.4,0.2
							c-0.3,0.1-0.6,0.3-0.9,0.6c-0.3,0.3-0.6,0.7-0.8,1.2c-0.1,0.2-0.2,0.5-0.3,0.7c0,0.1-0.1,0.3-0.1,0.3c0,0,0,0.3-0.1,0.4
							c-0.1,1.1,0.2,2.2,0.5,3.2c0.2,0.5,0.3,0.9,0.4,1.2C921.5,912.4,921.5,912.6,921.5,912.6z"/>
						<linearGradient id="XMLID_394_" gradientUnits="userSpaceOnUse" x1="929.6762" y1="905.6993" x2="947.5167" y2="905.6993">
							<stop  offset="0" style="stop-color:#BCBEC0"/>
							<stop  offset="1" style="stop-color:#A7A9AC;stop-opacity:0"/>
						</linearGradient>
						<path id="XMLID_259_" class="st86" d="M932.7,914.7c0,0-0.1-0.1-0.3-0.2c-0.2-0.1-0.4-0.3-0.7-0.6c-0.2-0.1-0.3-0.3-0.4-0.5
							c-0.2-0.2-0.3-0.4-0.5-0.7c-0.3-0.5-0.6-1.1-0.8-1.8c-0.2-0.7-0.4-1.5-0.4-2.3c0-0.8,0.1-1.7,0.4-2.6c0.3-0.9,0.7-1.8,1.3-2.6
							l0.2-0.3l0.3-0.3l0.5-0.5c0.4-0.3,0.8-0.7,1.2-1c0.8-0.6,1.7-1,2.6-1.3c0.9-0.3,1.8-0.6,2.6-0.8c0.8-0.2,1.7-0.4,2.4-0.6
							c0.8-0.2,1.5-0.3,2.1-0.5c0.6-0.2,1.3-0.3,1.8-0.5c0.5-0.2,1-0.3,1.3-0.5c0.7-0.3,1.2-0.5,1.2-0.5s-0.1,0.1-0.2,0.2
							c-0.2,0.1-0.4,0.4-0.7,0.6c-0.3,0.2-0.7,0.5-1.2,0.8c-0.5,0.3-1.1,0.6-1.7,0.8c-1.3,0.6-2.8,1.1-4.4,1.6
							c-0.8,0.3-1.6,0.6-2.4,0.9c-0.8,0.3-1.6,0.7-2.2,1.2c-0.4,0.2-0.6,0.5-1,0.7l-0.5,0.5l-0.1,0.1c0,0-0.1,0.1-0.1,0.1l-0.2,0.2
							c-0.5,0.6-0.9,1.3-1.2,2c-0.3,0.7-0.4,1.5-0.5,2.2c-0.1,0.7,0,1.4,0,2.1c0.1,0.6,0.2,1.2,0.4,1.7c0.1,0.3,0.2,0.5,0.3,0.7
							c0.1,0.2,0.2,0.4,0.3,0.6c0.2,0.3,0.3,0.6,0.5,0.8C932.6,914.6,932.7,914.7,932.7,914.7z"/>
					</g>
					<linearGradient id="XMLID_395_" gradientUnits="userSpaceOnUse" x1="908.5991" y1="548.9299" x2="855.8276" y2="525.7845">
						<stop  offset="0" style="stop-color:#FF9991"/>
						<stop  offset="1" style="stop-color:#FF9B92;stop-opacity:0"/>
					</linearGradient>
					<path id="XMLID_274_" class="st87" d="M930,492.4c-6-16-10.5-32.5-13.4-49.4c-9.8,14.3-25.5,24.5-42.6,27.7
						c8.6,2.3,17.3,2.4,25.9,0.2c0.3,12.3-3.4,24.7-10.4,34.8c7.2-3.7,12.7-10.4,15-18.2c4.2,7.2,4,16.4,1.3,24.3
						c-2.7,7.9-7.8,14.8-12.9,21.4c-9.3,11.9-20.2,23.7-34.6,28c9,3.5,19.9,1.3,26.7-5.5c-2.4,8.1-4.9,16.3-9.9,23.1
						c-2.7,3.6-6,6.6-8.8,10.2c-9.8,12.8-10.3,30.3-10.3,46.4c1-11,2.2-22.5,8.1-31.9c8.3-13.3,25.4-21.7,27.4-37.2
						c-2.4,2.7-4.8,5.4-7.1,8.1c1.5-4.8,3.1-9.6,4.8-14.3c0.5-1.2,1-2.6,2.1-3.3c1.2-0.9,2.9-0.9,4.4-1c14.5-0.9,25.5-14.8,28-29.2
						c2.5-14.3-1.5-28.9-5.4-42.9c-2.2,0.6-4.5,1.2-6.7,1.9c2.5-3.1,4.2-6.8,4.9-10.7c9.1,9.3,11.1,23.4,11.4,36.4
						c0.2,9.6-0.2,19.2-1.3,28.7c1.7-2.9,3.1-5.9,4.2-9.1C935,518.5,933,505,930,492.4z"/>
					<g id="XMLID_277_">
						<linearGradient id="XMLID_396_" gradientUnits="userSpaceOnUse" x1="1053.0088" y1="522.4988" x2="1260.3026" y2="522.4988">
							<stop  offset="0" style="stop-color:#FDB79E"/>
							<stop  offset="1" style="stop-color:#FF9991"/>
						</linearGradient>
						<path id="XMLID_280_" class="st88" d="M1255.6,548.1c-12.8-0.4-26-3.7-37.8-8.6c-23.8-9.8-45.2-25.2-69.5-33.9
							c27.3,8.9,54.7,17.9,82,26.8c-35.4-14.2-69.9-30.3-103.5-48.3c-2.2,1.2-7.2,1.9-9.4,3.1c21.1,24.7,45.9,47.1,75.4,60.8
							c15.2,7,31.8,11.5,48.5,12.7c2.7-1.1,5.3-2.6,7.6-4.4C1251.6,554.1,1253.8,551.3,1255.6,548.1z"/>
					</g>
				</g>
			</g>
		</g>
		<g id="XMLID_44_">
			<path id="XMLID_276_" class="st1" d="M313.3,137.3c0,0.9-0.3,1.5-0.8,2.1c-0.5,0.5-1.2,0.8-2.1,0.8H297V99.3h13.4
				c0.9,0,1.5,0.3,2.1,0.8c0.5,0.5,0.8,1.2,0.8,2.1v12.1c0,1.1-0.5,2-1.5,2.7c-1,0.6-1.9,1.1-2.9,1.7l3.1,2c0.9,0.6,1.4,1.4,1.4,2.6
				V137.3z M309.6,114.8v-12.3h-9v14.7h5.3L309.6,114.8z M309.7,136.9v-14.1l-3.7-2.4h-5.4v16.5H309.7z"/>
			<path id="XMLID_292_" class="st1" d="M348,140.1h-13.4V99.3h13.2v3.2h-9.6v15.2h8.8v3.3h-8.8v15.9h9.8V140.1z"/>
			<path id="XMLID_296_" class="st1" d="M381.8,102.5h-9.5V118h8.8v3.3h-8.8v18.9h-3.6V99.3h13.1V102.5z"/>
			<path id="XMLID_298_" class="st1" d="M419,137.3c0,0.9-0.3,1.5-0.8,2.1c-0.5,0.5-1.2,0.8-2.1,0.8h-11.4c-0.9,0-1.5-0.3-2.1-0.8
				c-0.5-0.5-0.8-1.2-0.8-2.1v-35c0-0.9,0.3-1.5,0.8-2.1c0.5-0.5,1.2-0.8,2.1-0.8H416c0.9,0,1.6,0.3,2.1,0.8
				c0.5,0.5,0.8,1.2,0.8,2.1V137.3z M415.3,136.9v-34.4h-10v34.4H415.3z"/>
			<path id="XMLID_307_" class="st1" d="M457.8,140.1H454l-7.6-21.9l0.5-0.7h6.5v-15h-9.3v37.6h-3.6V99.3h13.7
				c0.9,0,1.5,0.3,2.1,0.8c0.5,0.5,0.8,1.2,0.8,2.1v15.5c0,2-1.3,2.9-4,2.9c-0.3,0-0.6,0-1.1,0c-0.5,0-0.9,0-1.1,0
				C453.1,127.1,455.5,133.6,457.8,140.1z"/>
			<path id="XMLID_309_" class="st1" d="M491.6,140.1h-13.4V99.3h13.2v3.2h-9.6v15.2h8.8v3.3h-8.8v15.9h9.8V140.1z"/>
		</g>
		<g id="XMLID_46_">
			<path id="XMLID_47_" class="st1" d="M964.3,140.1h-3.6l-1.4-9.1h-8.1l-1.4,9.1h-3.5V140l7.3-40.8h3.6L964.3,140.1z M958.8,127.9
				l-3.6-22.1l-3.6,22.1H958.8z"/>
			<path id="XMLID_50_" class="st1" d="M997.3,102.5h-9.5V118h8.8v3.3h-8.8v18.9h-3.6V99.3h13.1V102.5z"/>
			<path id="XMLID_233_" class="st1" d="M1031.3,102.5h-6.3v37.6h-3.6v-37.6h-6.4v-3.2h16.3V102.5z"/>
			<path id="XMLID_263_" class="st1" d="M1063.9,140.1h-13.4V99.3h13.2v3.2h-9.6v15.2h8.8v3.3h-8.8v15.9h9.8V140.1z"/>
			<path id="XMLID_270_" class="st1" d="M1101.9,140.1h-3.8l-7.6-21.9l0.5-0.7h6.5v-15h-9.3v37.6h-3.6V99.3h13.7
				c0.9,0,1.5,0.3,2.1,0.8c0.5,0.5,0.8,1.2,0.8,2.1v15.5c0,2-1.3,2.9-4,2.9c-0.3,0-0.6,0-1.1,0c-0.5,0-0.9,0-1.1,0
				C1097.2,127.1,1099.6,133.6,1101.9,140.1z"/>
		</g>
	</g>
</g>
</svg>
