<?xml version="1.0" encoding="utf-8"?>
<!-- Generator: Adobe Illustrator 19.0.0, SVG Export Plug-In . SVG Version: 6.00 Build 0)  -->
<svg version="1.1" id="Layer_1" xmlns="http://www.w3.org/2000/svg" xmlns:xlink="http://www.w3.org/1999/xlink" x="0px" y="0px"
	 width="595.3px" height="841.9px" viewBox="0 0 595.3 841.9" style="enable-background:new 0 0 595.3 841.9;" xml:space="preserve"
	>
<style type="text/css">
	.st0{clip-path:url(#XMLID_197_);}
	.st1{fill:#D0FCFA;}
	.st2{fill:#FFFFFF;}
	.st3{fill:#243B5D;}
	.st4{fill:#8BA7C1;}
	.st5{fill:#3896AF;}
	.st6{fill:#FCB595;}
	.st7{fill:#CC7C60;}
	.st8{fill:#5E230A;}
	.st9{fill:#3A1305;}
	.st10{fill:#FCE4DB;}
	.st11{fill:#095860;}
	.st12{fill:#33999E;}
	.st13{fill:#063B44;}
	.st14{fill:#FF440B;}
	.st15{fill:#2BB7FF;}
	.st16{fill:#FCCAB6;}
	.st17{fill:#DD9376;}
	.st18{fill:#3F251B;}
	.st19{fill:#BF917F;}
	.st20{fill:#915E14;}
	.st21{fill:#7A490F;}
	.st22{fill:#896255;}
	.st23{fill:url(#XMLID_224_);}
	.st24{fill:#F9CEBD;}
	.st25{fill:#AF7325;}
	.st26{fill:#76828E;}
	.st27{fill:#B2B9BF;}
	.st28{fill:#176682;}
	.st29{fill:#0C3E4C;}
	.st30{fill:#D6DFE5;}
	.st31{fill:#535D66;}
	.st32{fill:#F7941E;}
	.st33{fill:#FF7BC4;}
	.st34{fill:#F9B2DD;}
	.st35{fill:#DD5BA8;}
	.st36{fill:#772310;}
	.st37{fill:#FF9C00;}
	.st38{fill:#C64F4F;}
	.st39{fill:url(#XMLID_225_);}
	.st40{fill:#9E0E45;}
	.st41{fill:#D83276;}
	.st42{fill:#754C29;}
	.st43{fill:#A97C50;}
	.st44{fill:#7334A5;}
	.st45{fill:#9B3929;}
	.st46{fill:#F99F95;}
	.st47{fill:#B7398B;}
	.st48{fill:#BE1E2D;}
</style>
<g id="XMLID_189_">
	<defs>
		<rect id="XMLID_157_" width="595.3" height="841.9"/>
	</defs>
	<clipPath id="XMLID_197_">
		<use xlink:href="#XMLID_157_"  style="overflow:visible;"/>
	</clipPath>
	<g id="XMLID_152_" class="st0">
		<g id="XMLID_210_">
			<rect id="XMLID_156_" x="-100.9" class="st1" width="442.7" height="743.6"/>
			<rect id="XMLID_185_" x="303.6" class="st2" width="7.5" height="759.2"/>
			<rect id="XMLID_207_" x="115.1" class="st2" width="7.5" height="759.2"/>
			<rect id="XMLID_204_" y="750.5" class="st3" width="841.9" height="46.1"/>
			<rect id="XMLID_201_" y="738.6" class="st2" width="841.9" height="11.9"/>
			<rect id="XMLID_194_" x="122.6" class="st3" width="33.2" height="759.2"/>
			<rect id="XMLID_155_" x="311.1" class="st3" width="33.2" height="759.2"/>
			<rect id="XMLID_196_" x="341.8" class="st4" width="500.1" height="759.2"/>
		</g>
		<rect id="XMLID_153_" y="790" class="st5" width="595.3" height="51.9"/>
		<g id="XMLID_105_">
			<path id="XMLID_68_" class="st6" d="M194.5,634c-1,4.4-2.5,9.9-3.6,14.3c-16.4,3.6-33.8,0.6-49.4-5.7c-7.4-3-14.5-6.7-21.2-11.1
				c4.1,39.5-12,80.8-7.9,120.3c4.6,45.1,11.9,90,21.8,134.3c29.7,6.1,63,8.3,90.6-4.2c-2.7-67.3,1.4-134.9,12.1-201.4
				c2.7-17,5.9-33.9,9.2-50.9c-5.8,2.7-12,4.4-18.4,5.3C216.8,636.5,205.2,636.4,194.5,634z"/>
			<path id="XMLID_77_" class="st7" d="M190.9,648.4c0,0-24.8,174.3-10.7,228.3c0,0,5.9-208.9,21-241.5l-6.2-17.9L190.9,648.4z"/>
			<path id="XMLID_115_" class="st8" d="M268.1,465.2c-0.3,55.4-11.6,109.9-22.1,164.5c-5.8,2.7-12,4.4-18.4,5.3
				c-10.8,1.5-22.4,1.4-33.1-0.9c-1,4.4-2.5,9.9-3.6,14.3c-16.4,3.6-33.8,0.5-49.4-5.7c-3.9-1.6-7.7-3.4-11.5-5.4
				c-1.6-0.8-3.2-1.7-4.8-2.7c-1.7-1-3.3-2-4.9-3c-0.1-0.8-0.1-1.5-0.2-2.3c-0.2-1.5-0.4-3-0.5-4.6v0c-3-26.2-4.3-52.7-3.9-79.1
				c0.4-26,2.5-51.9,6-77.6l3.3-8.7h0.1c0.8,0,1.6,0,2.4,0c2.2,0,4.4-0.1,6.6-0.1c1.2,0,2.4-0.1,3.6-0.1c33.1-1.1,64.3-6.3,97.9-7.1
				c11-0.3,22.4-0.4,32.3,4.3C269.2,459.6,268.1,461.6,268.1,465.2z"/>
			<path id="XMLID_104_" class="st9" d="M181,492.4c21.7,2.2,43.6-0.7,65.2-3.6c-13.6,8.6-29.5,13.1-45.5,14.9
				c-16,1.8-32.2,1-48.2-0.4c13,3,26.4,3.8,39.7,3.8c16.8,0,34.2-1.1,49.3-8.6s27.5-22.5,27.3-39.3c-33.3,12.6-69.8,16.3-105,10.8
				c-9.9-1.6-19.7-3.8-29.6-5.2c-2.8-0.4-9.3-2.6-10.4,1.4c-0.9,3.4,4.7,6.6,6.9,8.2C145.3,485.1,163.2,490.6,181,492.4z"/>
			<g id="XMLID_56_">
				<path id="XMLID_108_" class="st10" d="M129.9,594.6c-0.2,14.2-0.1,28.4,0.2,42.6c-1.6-0.8-3.2-1.7-4.8-2.7c-0.6-33,0.1-66,2-99
					c1.5-25.5,3.5-51,6.8-76.4c1.2,0,2.4-0.1,3.6-0.1c-1.1,10.8-2.1,21.5-3,32.4C131.9,525.8,130.3,560.2,129.9,594.6z"/>
				<path id="XMLID_107_" class="st10" d="M119.1,613.3c0.1,3.8,0.3,7.6,0.4,11.4c-3-26.2-4.3-52.7-3.9-79.1
					c1.3-28.9,4-57.8,9.3-86.3c0.8,0,1.6,0,2.4,0c-3.5,32.7-7,65.4-8.2,98.4C118.7,576.2,118.6,594.8,119.1,613.3z"/>
			</g>
			<path id="XMLID_89_" class="st11" d="M271.1,233.3c-12.4-14.6-25.3-25.7-42.4-34.1c-1,1.5-2,3-2.8,4.6c-3.1,6-5.2,12.7-9.9,17.5
				c-4.7,4.8-11.5,7.1-18.2,7.8c-17.7,1.8-37.2-7.9-45.8-23.6c-18.1,9.7-36.6,21.9-51.5,35.9c-24.2,22.8-26,62.2-26.5,95.4
				c-0.2,12,0.8,24.1,4.3,35.5c8.8,28.5,23.9,36.9,39.4,62.3c5.9,9.8,2,22.1,4,33.3c13.2,11.5,30.5,17.6,47.9,19.6
				c17.4,2,35,0.3,52.4-1.9c17.1-2.1,36.9-8.9,48.4-21.7c6.4-38.1,12.8-76.3,14.5-115C286.6,310.5,296.1,262.7,271.1,233.3z"/>
			<path id="XMLID_110_" class="st12" d="M259,220.4c-8.9-8.5-18.6-15.5-30.3-21.3C227.7,200.6,247.4,215.7,259,220.4z"/>
			<path id="XMLID_64_" class="st13" d="M275.7,397c-38.2,10.8-77.8,16.9-117.6,18c6.4-7.1,12.8-14.2,19.2-21.3
				c-24.2,8.7-49.6,14.1-75.3,16c-8.7-32.3,2.5-67.7,19-96.7c6.9-12.2,10.5-26.2,10.4-40.2c8.2,11,10.2,25.7,8.1,39.2
				c-2.2,13.5-8.1,26.2-14.8,38.1c21.8,14.2,49.5,14.5,75.5,14.3c4.4,0,10.1-1.2,10.7-5.5c17.7,5.1,38.3,13,55.1,20.6
				C271.4,382,276.1,391,275.7,397z"/>
			<g id="XMLID_67_">
				<polygon id="XMLID_71_" class="st2" points="154.3,326.8 149.3,324 148.4,325.4 155.3,328.8 				"/>
				<polygon id="XMLID_70_" class="st14" points="190.1,342.6 153,324.5 151,328.8 190.1,350.1 				"/>
				<polygon id="XMLID_72_" class="st14" points="151,323.4 149,326.8 141.5,324.5 145.5,319.1 				"/>
			</g>
			<g id="XMLID_63_">
				<path id="XMLID_69_" class="st6" d="M321.3,294.5c-0.1-3.4-0.3-6.8-0.6-10.3c-7.7,0.6-15.4,2.4-22.6,5.2
					c-8.7,3.3-17,7.9-24.5,13.5c5.1,18.1,14.9,34.6,11.9,53.5c-1.1,6.8-3.3,12.5-5.2,19.1c-0.4,1.3-0.8,2.7-0.6,4.1
					c0.2,1.4,1.1,2.6,1.9,3.8c7.5,10.6,14.9,21.1,22.4,31.7c0.7,1,2.8,2.7,4,2.6c6.3-6,12.7-12.1,17.3-19.5
					c6.2-10.1,8.8-22.2,8.9-34.1c0.2-11.9-1.9-23.7-4.3-35.3C327.8,317.1,321.8,306.4,321.3,294.5z"/>
				<path id="XMLID_98_" class="st7" d="M321.3,294.3c-0.1-3.4-0.3-6.7-0.6-10.1c-7.7,0.6-15.4,2.4-22.6,5.2
					c-8.7,3.3-17,7.9-24.5,13.5c0.1,0.2,0.1,0.5,0.2,0.7C288.3,296.3,304.8,293.8,321.3,294.3z"/>
				<path id="XMLID_94_" class="st11" d="M320.8,284.2c-0.5-6.5-1.5-12.9-3.7-18.9c-3.7-10-10.8-18.7-19.9-24.3
					c-12.8-7.9-29.3-9.8-40-20.4c6.9,23.1,11.4,45.9,14,69.9c0.5,4.2,1.4,8.4,2.5,12.4c7.5-5.6,15.7-10.2,24.5-13.5
					C305.4,286.7,313.1,284.8,320.8,284.2z"/>
			</g>
			<path id="XMLID_73_" class="st11" d="M122.1,298.7c-1.1-2.6-2.4-5.1-4-7.4c0.2-19.8,1.7-39.5,4.6-59c0.2-1.2-1.9-3.4-0.9-4
				c-13.7,4.9-27.6,9.9-40,17.6s-23.4,18.4-28.9,31.9c-3.6,8.9-4.6,18.5-6.3,27.9c11.7-6.1,24.5-10.1,37.5-11.9
				C97,292.2,110.8,293,122.1,298.7z"/>
			<g id="XMLID_95_">
				<path id="XMLID_100_" class="st12" d="M75.2,262.9c15.8-14.6,38.4-23.6,59-17.5c-4.9-5.3-11.1-9.4-17.9-11.8
					c17-14.8,36.4-26.6,57.3-35.2c16.9-7,23.3-11.5,1-2.4c-9.6,3.9-18.1,7.6-22.6,9.5c-14.1,7.6-28.4,16.6-41.1,26.8
					c-10,3.8-19.9,7.9-29,13.5c-12.4,7.7-23.4,18.4-28.9,31.9c-2.9,7.2-4.1,14.8-5.4,22.5C55.3,286.6,63.8,273.5,75.2,262.9z"/>
			</g>
			<path id="XMLID_93_" class="st6" d="M220.2,353.1c-4.8-10.8-15.5-18.8-27.2-19.2c-1.6-0.1-3.1,0.8-4.4,1.6
				c-7.5,4.9-13.3,11.7-16.9,20c-12.9,3.4-25,6-40.1,7.8c-6.2-1.6-14.1-1.9-19.9-4.8c3.1-11.7,10.4-21.9,13-33.7
				c1.9-8.7,0.8-17.9-2.6-26.1c-11.3-5.7-25.1-6.5-37.9-4.8c-13.1,1.7-25.8,5.8-37.5,11.9c-0.5,2.7-1,5.3-1.7,7.9
				c-6.2,24.5-16.5,52.1-12.4,77.1c1.6,10,4.6,20.1,10.9,27.9c1.8,2.3,4,4.4,6.7,5.6c5.2,2.2,11.1,0.6,16.4-1.1
				c40.5-12.9,80.1-28.6,118.4-46.9c14.2-6.8,22-14.9,35.6-23C220.9,353.1,220.3,353.4,220.2,353.1z"/>
			<path id="XMLID_99_" class="st7" d="M220.2,353.1c-1.7-3.8-4.2-7.3-7.2-10.2c-14.2,10.6-26.9,23.4-37.5,37.8
				c3.2-1.5,6.4-3,9.6-4.5c14.2-6.8,22-14.9,35.6-23C220.9,353.1,220.3,353.4,220.2,353.1z"/>
			<path id="XMLID_80_" class="st9" d="M241.7,536c-13.9,7.8-28,16.9-41.2,25.9c-9.9-10-20.7-19-32.3-27c1.9,2.5,3.6,3.8,5.5,6.3
				c7.1,9.5,14.8,19.8,22.2,29.7c0,0,6.5,16.5-1.3,63.1c0,0,9.8-21.7,12.7-60.5C220,562.2,231.4,549.8,241.7,536z"/>
			<path id="XMLID_65_" class="st15" d="M255.9,408.8c18.9-24,37.5-47.1,55.5-71.8c-29-4-56.5-6.3-85.7-8.2
				c-19.5,27.3-41,53-64.5,77C191.2,410,225.8,411.8,255.9,408.8z"/>
			<path id="XMLID_103_" class="st2" d="M300.8,335.4l-10.7-1.5c-7.1-0.9-14.3-1.7-21.4-2.5l-10.7-1.1l-10.7-0.9
				c-7.2-0.6-14.3-1.1-21.5-1.6l-0.5,0l-0.3,0.4l-7.4,10.1c-2.5,3.4-5,6.7-7.5,10c-2.6,3.3-5.1,6.6-7.7,9.9l-3.9,4.9l-4,4.9
				c-2.7,3.2-5.3,6.4-8,9.6c-2.7,3.2-5.5,6.3-8.2,9.5l-4.2,4.7l-4.2,4.7l-8.5,9.3l4.5-4.4l4.4-4.5c2.9-3,5.8-6,8.7-9.1
				c2.8-3.1,5.7-6.2,8.5-9.3c2.8-3.1,5.5-6.3,8.3-9.5c2.7-3.2,5.4-6.4,8-9.7c2.6-3.3,5.2-6.5,7.8-9.8c2.6-3.3,5.1-6.6,7.6-10
				l3.7-5.1l3.3-4.7c7,0.4,14,0.9,20.9,1.4l21.4,1.7l10.7,0.9l10.7,1c7.1,0.7,14.3,1.4,21.4,2.2
				C307.9,336.5,304.3,335.9,300.8,335.4z"/>
			<path id="XMLID_66_" class="st6" d="M319.4,378.7c-7.7-7.8-19.2-10.8-30.1-10.5c-10.9,0.3-21.6,3.4-32.1,6.3
				c-10.5,2.9-32.7,3.8-32.7,4.2c0.2,0,0.6-0.5,0.5-0.6c-0.1-0.1-0.1-0.3,0-0.5c1.1-2,2.1-4.1,3-6.3c0.8-1.9,1.5-4.1,0.7-6
				c-0.7-1.7-2.5-2.7-3.8-3.9c-2.2-2.1-3.3-5.2-5.8-6.9c-0.6-0.4-1.3-0.7-2-0.6c-1.3,0.2-1.9,1.6-2.1,2.9c-0.5,2.6-0.2,5.3,0.9,7.7
				c1.2,2.7,3.2,5.1,3.5,8c-3.1,0.7-6.8-0.1-9.9-0.2c-0.6,0-1.3-0.1-1.9-0.3c-0.6-0.2-1.2-0.7-1.7-1.1c-2.8-2.5-5.1-5.5-7-8.7
				c-0.4-0.6-0.7-1.3-1.3-1.8c-0.6-0.5-1.4-0.8-2-0.5c-0.9,0.4-1.1,1.4-1.2,2.4c-0.3,3.6,0.5,7.2,2.4,10.2c-1.5-1.8-3.3-3.5-4.7-5.3
				c-0.7-0.9-1.6-1.8-2.8-1.9c-1.6,0-2.5,1.7-2.9,3.3c-0.9,3.8-0.3,8,1.7,11.5c-1.3-1-2.9-1.8-4.2-2.9c-0.4-0.4-0.9-0.7-1.5-0.8
				c-0.8-0.1-1.6,0.6-1.8,1.3s-0.2,1.6-0.1,2.4c0.4,2.2,1.4,4.4,2.8,6.2c-1.1-1-3-2.3-4.1-3.3c-0.4-0.3-0.8-0.7-1.4-0.7
				c-0.7,0-1.2,0.7-1.2,1.4c-0.1,0.7,0.2,1.3,0.5,1.9c2.6,5.5,7.4,10,13,12.3c7.6,3.1,15.6,7.1,23.6,9.1c16.1,4,32.2,7.9,48.2,11.9
				c5.6,1.4,11.3,2.8,17,3.6c8.7,1.3,17.5,1.3,26.2,0.1c1.7-0.2,3.5-0.6,4.8-1.7c0.9-0.7,1.4-1.7,2-2.7c3.4-6.1,6.9-12.3,8.8-19
				C322.6,392.5,324.3,383.7,319.4,378.7z"/>
			<path id="XMLID_62_" class="st7" d="M111.8,358.5c0,0-30.8-11.8-52.8,4.8L111.8,358.5z"/>
			<g id="XMLID_96_">
				<path id="XMLID_97_" class="st16" d="M71.8,415.9c-2.4-0.3-5-0.8-6.3-2.9c-1-1.6-0.9-3.8-2-5.3c-2.5-3.5-8-0.9-12.3-0.4
					c-6.5,0.7-12.3-4.7-14.4-10.9c-2-6.2-1.2-12.9-0.3-19.4c2.8-21,5.6-42.1,8.5-63.1c-6.2,24.4-16.3,51.8-12.3,76.6
					c1.6,10,4.6,20.1,10.9,27.9c1.8,2.3,4,4.4,6.7,5.6c5.2,2.2,11.1,0.6,16.4-1.1c7.1-2.3,14.1-4.6,21.1-7
					C82.5,416.5,77.2,416.5,71.8,415.9z"/>
			</g>
			<path id="XMLID_91_" class="st6" d="M197.8,229.1c6.7-0.7,13.5-3,18.2-7.8c4.7-4.8,6.9-11.5,9.9-17.5c0.8-1.6,1.7-3.1,2.8-4.6
				c-0.3-0.2-0.6-0.3-1-0.5c-1.1-16-3.8-31-4.8-47c-10.9-1.3-21.8-2.6-32.8-3.9c-12-1.4-26.9-2.7-38.4,0.6c0.7,19,0.8,38,0.3,57
				C160.6,221.1,180.1,230.8,197.8,229.1z"/>
			<path id="XMLID_106_" class="st16" d="M151.7,148.5c0.7,19,0.8,38,0.3,57c2.9,5.3,7.1,9.9,12,13.6c-7.5-22.8-10-47.4-10-71.2
				C153.2,148.1,152.4,148.3,151.7,148.5z"/>
			<g id="XMLID_74_">
				<path id="XMLID_92_" class="st17" d="M184.4,205.5c4.4,3.8,9.8,7.6,15.6,6.8c5.8-0.8,10-5.9,13.4-10.7
					c4.6-6.5,8.7-13.3,12.6-20.3c-1.2-9.8-2.5-19.5-3.1-29.6c-10.9-1.3-21.8-2.6-32.8-3.9c-12-1.4-26.9-2.7-38.4,0.6
					c0.2,4.8,0.3,9.6,0.4,14.4C159.8,179.1,170.8,193.8,184.4,205.5z"/>
			</g>
			<path id="XMLID_58_" class="st17" d="M228.1,111.1c1.8-1.6,3.9-3,6.2-3.1c0.4,0,0.7,0,1,0.3c0.3,0.3,0.4,0.8,0.4,1.3
				c-0.1,5.5-1.5,10.8-2.8,16.1c-1.4,5.5-3,11.3-6.8,15.6c-0.3,0.3-0.6,0.6-0.9,0.7c-0.9,0.2-1.7-0.8-2.1-1.6c-1.7-3.5-3-7.2-3.8-11
				C217.9,122.8,223.4,115.3,228.1,111.1z"/>
			<path id="XMLID_59_" class="st7" d="M228.5,118.3c1-1.4,2.5-2.9,4.2-2.6c-1.6,2.2-3.1,4.4-4.4,6.7c-0.1,0.2-0.2,0.3-0.2,0.5
				c0.1,0.3,0.5,0.4,0.8,0.5c1,0.3,1.6,1.4,1.4,2.4c-1.2,0-2.4,0.1-3.7,0.1c0.7,2.8,0.9,5.7,0.6,8.6c-0.1,1-0.5,2.2-1.5,2.2
				C223,129.7,223.9,124.8,228.5,118.3z"/>
			<path id="XMLID_45_" class="st6" d="M154.6,69.6c4.5-6.5,13.5-7.5,21.4-7.9c7.9-0.4,16-0.7,23.7,1.4c7.7,2.1,15,7,17.9,14.4
				c3.9,9.8,4.4,21.1,3.9,31.7c-0.3,7.4-1.4,15.1,1.7,21.8c1.7,3.7,4.5,6.7,6.2,10.3c3.8,7.9,1.8,17.3-1.2,25.5
				c-2.4,6.5-5.6,12.8-10.3,17.9s-11.1,8.9-18,9.5c-9.7,0.9-18.8-4.4-27.1-9.5c-4.2-2.6-8.5-5.2-11.8-8.8c-3.3-3.6-5.5-8.1-7.2-12.7
				c-8.8-22.8-7.9-48.1-5-72.3C149.7,82.3,149.7,76.7,154.6,69.6z"/>
			<g id="XMLID_101_">
				<path id="XMLID_102_" class="st16" d="M154.9,132.3c0.7-5.4-0.9-10.8-0.9-16.3c0-6.3,2-12.4,2.9-18.7c1.5-10.2,0-21.1,1-31.2
					c-1.3,0.9-2.4,2-3.4,3.4c-4.9,7.1-4.9,12.8-5.9,21.4c-2.8,24.2-3.8,49.6,5,72.3c1.8,4.6,4,9,7.2,12.7c1.8,2,4,3.7,6.3,5.3
					c-7.5-10.7-15.1-24.4-15.1-36.2C152.1,140.7,154.3,136.7,154.9,132.3z"/>
			</g>
			<path id="XMLID_47_" class="st18" d="M175.1,125.2c0.4,0.6,0.9,1.3,1.7,1.3c1,0,1.6-1.2,1.7-2.3c0.5-4.9-2.8-9.5-2.7-14.5
				c0-1,0.2-2,0-3c-1.3-5.9-3.9,5-3.9,6.8C171.7,117.6,172.8,121.7,175.1,125.2z"/>
			<path id="XMLID_48_" class="st18" d="M203.3,123.3c0.2,1.1,0.7,2.4,1.8,2.6c1,0.2,1.9-0.5,2.3-1.4c0.4-0.9,0.3-1.9,0.3-2.9
				c-0.3-5.1-0.7-10.1-1-15.2c-0.4-5.6-3.1,2-3.4,3.4C202.4,114.2,202.3,118.8,203.3,123.3z"/>
			<path id="XMLID_49_" class="st18" d="M174.3,97.2c-5.3-0.5-10.8,0.7-15.4,3.3c1.7-2.4,4.4-3.9,7.3-4.7c2.8-0.8,5.8-1,8.7-1.2
				c2.5-0.1,5.7-0.1,7.5,2C181,98.8,176.5,97.5,174.3,97.2z"/>
			<path id="XMLID_50_" class="st18" d="M205.4,96.9c4.4-1,9.1-0.6,13.2,1.2c-6.5-2.8-14.9-6.9-21.5-1.2
				C198.8,99.2,203.1,97.4,205.4,96.9z"/>
			<g id="XMLID_85_">
				<path id="XMLID_86_" class="st19" d="M223.2,141.6c-8.1,0.8-16.1-7.2-24.2-6.3c-12.7,1.4-24.2,11.4-36.8,9.3
					c-0.6,9-0.8,18.1,0.6,27c0.4,2.5,0.9,5,1.6,7.4c2.6,2.1,5.5,3.9,8.4,5.7c8.3,5.1,17.4,10.4,27.1,9.5c6.9-0.6,13.3-4.4,18-9.5
					c2.9-3.2,5.2-6.8,7.2-10.6C226.2,163.3,225.6,152.3,223.2,141.6z"/>
			</g>
			<path id="XMLID_54_" class="st6" d="M215,148.8c-15.6,1.9-31.3,2.9-47,2.9c0.2,8,0.1,15.5,3.5,22.7c3.4,7.2,10.6,13.2,18.5,12.8
				c-0.2-2.3-0.5-4.6-0.7-6.8c-3.5,0-6.8-2.5-7.7-5.9c8.9,1.9,18.1,2,27,0.5c-1.5,2.4-4,4.3-6.7,5.1c-0.8,2.6,0.6,7.2,0.6,7.2
				c2.7,0.2,9.2-3.1,10.7-5.4c3-4.4,2.9-10.2,2.7-15.5C215.7,160.5,215.2,154.5,215,148.8z"/>
			<path id="XMLID_53_" class="st2" d="M215,148.8c-15.6,1.9-31.3,2.9-47,2.9c-0.2,5-0.6,10,3,13.4c2.8,2.7,7,3.2,10.9,3.5
				c6.1,0.4,12.2,0.6,18.3,0.5c1.8,0,3.6-0.1,5.3-0.6c3.7-1.2,6.3-4.5,7.6-8.1C214.4,156.8,214.8,152.6,215,148.8z"/>
			<g id="XMLID_78_">
				<path id="XMLID_87_" class="st18" d="M171.3,162.3c0.1,0,0.1-0.1,0.2-0.1c0,0,0,0.1,0,0.1c4.3,0.3,8.7,0,12.9-0.7
					c-4.7-0.1-9.4-0.4-14-1.7c-0.7-2.7-1.1-5.4-1.3-8.2c-0.4,0-0.8,0-1.1,0c-0.2,5-0.6,10,3,13.4c0.4,0.4,0.8,0.7,1.3,1
					c-0.3-1.3-0.5-2.5-0.7-3.8C171.5,162.3,171.4,162.3,171.3,162.3z"/>
				<path id="XMLID_88_" class="st2" d="M171.3,162.3c0.1,0,0.1,0,0.2,0c0,0,0-0.1,0-0.1C171.4,162.2,171.4,162.2,171.3,162.3z"/>
				<path id="XMLID_90_" class="st18" d="M215,148.8c-0.7,0.1-1.5,0.2-2.2,0.3c0.1,3.1,0,6.2-0.5,9.3c-3.9,1.6-8,2-12.3,2.2
					c3.8,0.6,7.7,0.5,11.5-0.3c0,1.2,0,2.3,0,3.5c0.7-1.1,1.3-2.2,1.7-3.4C214.4,156.8,214.8,152.6,215,148.8z"/>
			</g>
			<path id="XMLID_57_" class="st20" d="M223.1,130.9c-2-9.9,2.1-16.1,5.7-25.6s7.6-19.2,6.8-29.2c1.6,0.4,2.9,0.9,4.5,1.3
				c-2.4-4.6-5.2-8.9-8.4-12.9c-0.8-1-1.7-2-2.9-2.4c3-2.3,5.4-5.5,6.8-9c-3.7-0.3-7.4-0.7-11.1-1.4c2-0.4,3.9-1.4,5.4-2.9
				C214.6,49,201.1,37.6,185.8,37c-10.8-0.4-20,5.8-29.8,10.3c-4.6,2.1-9.4,4.7-12.2,8.9c-4.6,6.7-3.3,15.7-2.6,23.8
				c0.9,10.7,0.6,21.5,1.2,32.2c0.5,10.7,2,21.6,6.2,31.5c-0.1-8.4-3.9-16.8-0.3-24.3c6.1-12.7,6.2-27.3,5.6-41.3
				c-0.1-1.5,1.2-3.6,2.2-4.6c0.9-0.8,2.1-1.3,3.3-1.7c8.6-3,18.3-2.7,26.9,0.6c2.1,0.8,4.1,1.8,6.3,1.9c3,0.1,5.8-1.6,8.7-2.6
				c3.1-1.1,8.3-1.9,11.5-1.2c4.3,8.6,7.1,18.1,7.9,27.7C221.8,110.1,217.8,120.1,223.1,130.9z"/>
			<g id="XMLID_114_">
				<path id="XMLID_116_" class="st21" d="M152,96.6c-0.6-5.1-1.1-10.1-1.7-15.2c-1.7-0.2-3.2-1.5-4.1-3c-0.9-1.5-1.2-3.3-1.6-5
					c-0.7,2.4-1.2,4.9-1.3,7.5c-0.9-4-1.5-8.1-1.8-12.2c-0.3,2.5-0.5,4.9-0.7,7.4c0.1,1.3,0.2,2.7,0.4,4c0.9,10.7,0.6,21.5,1.2,32.2
					c0.5,10.7,2,21.6,6.2,31.5c-0.1-8.4-3.9-16.8-0.3-24.3c5.9-12.4,6.2-26.6,5.6-40.3c-0.1-0.3-0.2-0.6-0.3-0.9
					C154,84.3,153.5,90.6,152,96.6z"/>
				<path id="XMLID_118_" class="st21" d="M220.9,83.6c-1.5-2.6-2.8-5.4-3.6-8.2c0.5,3.2,0.9,6.5,1.1,9.7c1.1,4.2,2,8.6,2.3,12.9
					c1,12-3,22.1,2.4,32.9c-2-9.9,2.1-16.1,5.7-25.6c3.6-9.2,7.5-18.8,6.8-28.7c-4.5-3.2-9.8-5.5-15.3-5.8
					C221.4,75,221.6,79.4,220.9,83.6z"/>
			</g>
			<path id="XMLID_60_" class="st16" d="M138.3,110.1c-0.8-0.5-1.8-1-2.8-0.9c-2.1,0.3-2.7,3-2.7,5c0.2,7.7,2.7,15.2,5.3,22.5
				c0.6,1.8,1.2,3.6,2.3,5.1c1,1.3,2.2,2.4,3.5,3.4c2.7,2,5.8,3.9,9.1,3.8c0.6-8.2-0.5-16.5-2.3-24.5
				C149.4,118.2,143.7,113.4,138.3,110.1z"/>
			<path id="XMLID_61_" class="st17" d="M145.1,119.6c-2.1-2-5.1-3.4-8-2.9c3.8,0.7,7,3.8,7.8,7.6c-1.4-1.6-4.4-1-5.2,1
				c1.6,0,3.2,0.1,4.5,0.8s2.2,2.6,1.5,4c-0.9,1.7-3.8,2-3.9,3.9c0,0.9,0.7,1.7,1.5,2.2c2.1,1.4,4.9,1.7,7.3,0.7
				c-1.4-1-2.9-1.9-4.3-2.9c0.6-1.4,2.1-2.3,3.6-2.3C152,131.6,145.7,120.2,145.1,119.6z"/>
			<path id="XMLID_1_" class="st21" d="M149.4,139.4c-0.7-14.6-1.3-29.2-2-43.9c-0.1-1.6-0.1-3.3,0.9-4.6c-0.2,0.3,3.5,10,3.6,11.5
				c0.3,3.1,0.2,6.3,0.4,9.3C152.8,121.1,152.2,130.3,149.4,139.4z"/>
			<path id="XMLID_52_" class="st22" d="M209,138c-2.2,1.9-5.2,3.3-8.1,2.8c-2.9-0.5-5.1-2.9-7.1-5.1c-1.6-1.8-3.2-3.8-3.2-6.2
				c7.6,0.5,16.5,0,23.8,1.9C213.9,133.7,210.9,136.3,209,138z"/>
			<linearGradient id="XMLID_224_" gradientUnits="userSpaceOnUse" x1="188.584" y1="130.3991" x2="219.5797" y2="130.3991">
				<stop  offset="0" style="stop-color:#FCB595"/>
				<stop  offset="1" style="stop-color:#FC5B95"/>
			</linearGradient>
			<path id="XMLID_51_" class="st23" d="M213.1,123.8c1.3-0.2,2.7-0.3,3.9,0.2c1.4,0.5,2.5,1.9,2.6,3.4c0.1,1.9-1,3.6-2.3,4.9
				c-3.5,3.5-8.6,5.1-13.5,4.8s-9.6-2.5-13.3-5.7c-0.8-0.7-1.6-1.5-1.8-2.5C187.8,125,209.7,124.2,213.1,123.8z"/>
			<path id="XMLID_55_" class="st24" d="M195,125.7c0,0,0.2,0,0.5-0.1c0.3-0.1,0.8-0.2,1.5-0.3c1.3-0.2,3.1-0.6,5.3-0.8
				c2.2-0.3,4.8-0.6,7.5-0.8c1.4-0.1,2.8-0.2,4.2-0.4c1.4-0.2,3.2-0.1,4.5,1c0.6,0.5,1.1,1.2,1.4,2c0.1,0.4,0.2,0.8,0.2,1.2
				c0,0.2,0,0.4,0,0.6c0,0.2,0,0.4-0.1,0.6c-0.3,1.6-1.3,2.8-2.3,3.8c-1,1-2.1,1.8-3.3,2.4c-1.1,0.6-2.3,1.1-3.3,1.4
				c-2.1,0.7-4,0.8-5.3,0.8c-0.6,0-1.2,0-1.5-0.1c-0.3,0-0.5,0-0.5,0s0.7,0,2-0.1c0.6-0.1,1.4-0.1,2.3-0.3c0.9-0.2,1.8-0.4,2.9-0.8
				c1-0.4,2.1-0.9,3.1-1.5c1.1-0.7,2-1.5,3-2.4c0.9-0.9,1.7-2.1,2-3.4c0.3-1.3-0.2-2.6-1.2-3.5c-0.2-0.2-0.5-0.4-0.8-0.5
				c-0.3-0.1-0.6-0.2-0.9-0.3c-0.7-0.1-1.3-0.1-2,0c-1.4,0.2-2.9,0.2-4.2,0.3c-2.7,0.2-5.3,0.3-7.5,0.5c-2.2,0.2-4,0.3-5.3,0.5
				C195.7,125.6,195,125.7,195,125.7z"/>
			<path id="XMLID_76_" class="st13" d="M273.2,302.7c-2.3-17.4-13.6-33.1-13.7-50.7c5.2,6.7,10.4,14.4,12.8,22.5
				S275.5,294.4,273.2,302.7z"/>
		</g>
		<path id="XMLID_109_" class="st25" d="M214.7,51.8c-2.6,2-6,3.1-9.3,2.9c1,1,1.7,2.3,2,3.6c-16.4,4.4-34,4.2-50.2-0.7
			c0.3-1,0.6-2,0.9-3.1c-3.2,1.2-6.3,2.5-9.5,3.7c0-1.5,0.8-3,2.1-3.7c-3.8,2.2-6.5,6.1-7.2,10.5c1.2-1.6,2.5-3,3.7-4.6
			c-0.2,1.4-0.3,2.8-0.5,4.3c1.8-1.3,3.6-2.7,5.5-4c0.1,1,0.1,2.1,0.2,3.1c20.9,3.5,42.5,3.4,63.3-0.4c-1.4-1.9-2.2-4.5-3.7-6.4
			c1.7,1.3,3.5,2.5,5.5,3.4c-0.7-1.2-1.4-2.4-2.1-3.6c3.7,0.4,7.6,0.1,11.2-1C222.6,54.7,218.3,54,214.7,51.8z"/>
		<g id="XMLID_147_">
			<g id="XMLID_146_">
				<path id="XMLID_40_" class="st26" d="M344.7,849.3c1.4-3,27.7-67.9,108.5-136.6l136.7-28.5l-5-20L444.1,695
					c0,0-96.1,76.3-125.1,154.3H344.7z"/>
				<path id="XMLID_38_" class="st27" d="M390.6,853c1.4-3,14.9-60.5,95.6-129.1L623,695.4l-5-20l-140.8,30.8
					c0,0-83.2,68.9-112.2,146.9H390.6z"/>
				<path id="XMLID_150_" class="st26" d="M618,675.3l-140.8,30.8c0,0-2.7,2.2-7.3,6.3l151.4-23.5L618,675.3z"/>
				<g id="XMLID_36_">
					<path id="XMLID_35_" class="st28" d="M436.9,670.7c0,0-5.4,4.6,0,24.6l34.5,17.3l138.2-31.3L605,638L436.9,670.7z"/>
					<g id="XMLID_142_">
						<path id="XMLID_143_" class="st29" d="M436.9,670.7c0,0-5.4,4.6,0,24.6l34.5,17.3l13.7-3.1l-1.4-16.9L436.9,670.7z"/>
					</g>
					<path id="XMLID_37_" class="st5" d="M471.4,712.7c0,0-8.2-22,0-26l135.5-30.7l2.7,25.4L471.4,712.7z"/>
				</g>
				<path id="XMLID_144_" class="st30" d="M390.6,817.6c0,0,0.7-1.5,2-4c0.7-1.3,1.5-2.8,2.5-4.5c1-1.8,2.1-3.7,3.4-5.8
					c1.3-2.1,2.7-4.4,4.3-6.7c0.8-1.2,1.6-2.4,2.4-3.6c0.8-1.2,1.7-2.5,2.6-3.7c1.7-2.5,3.6-5.1,5.5-7.7c2-2.6,4-5.2,5.9-7.8
					c2.1-2.6,4.1-5.1,6.2-7.6c2.1-2.5,4.1-4.9,6.1-7.3c2.1-2.3,4-4.5,5.9-6.6c1.9-2.1,3.8-4,5.4-5.8c1.7-1.8,3.3-3.4,4.7-4.8
					c1.4-1.4,2.7-2.6,3.7-3.6c2-2,3.2-3.1,3.2-3.1s-1.1,1.3-3,3.4c-0.9,1.1-2.1,2.4-3.4,3.9c-1.3,1.5-2.8,3.2-4.4,5.1
					c-1.6,1.9-3.3,3.9-5.2,6c-1.8,2.2-3.7,4.4-5.7,6.8c-1.9,2.4-4,4.8-6,7.3c-2,2.5-4,5.1-6.1,7.7c-2,2.6-4,5.2-6,7.7
					c-1.9,2.6-3.9,5.1-5.7,7.6c-1.8,2.5-3.6,4.9-5.2,7.2c-1.6,2.3-3.1,4.5-4.5,6.5c-1.4,2-2.7,3.9-3.7,5.6c-1.1,1.7-2,3.1-2.8,4.3
					c-0.8,1.2-1.4,2.2-1.8,2.8C390.9,817.3,390.6,817.6,390.6,817.6z"/>
				<path id="XMLID_145_" class="st27" d="M353.6,798.3c0,0,0.9-1.5,2.5-4c0.8-1.2,1.8-2.8,3-4.5c1.2-1.7,2.6-3.6,4.1-5.7
					c1.6-2.1,3.2-4.3,5.1-6.6c0.9-1.2,1.9-2.4,2.8-3.6c1-1.2,2-2.4,3-3.7c2-2.5,4.2-5,6.4-7.6c2.3-2.5,4.6-5.1,6.8-7.7
					c2.4-2.5,4.7-5.1,7.1-7.5c2.4-2.4,4.7-4.8,7-7.1c2.3-2.3,4.6-4.5,6.7-6.5c2.1-2.1,4.2-4,6.1-5.7c1.9-1.8,3.6-3.4,5.3-4.7
					c1.6-1.4,3-2.6,4.1-3.6c2.3-2,3.6-3.1,3.6-3.1s-1.2,1.2-3.4,3.4c-1.1,1.1-2.4,2.3-3.9,3.8c-1.5,1.5-3.1,3.2-5,5
					c-1.8,1.8-3.8,3.8-5.9,5.9c-2.1,2.1-4.2,4.4-6.5,6.7c-2.2,2.3-4.5,4.8-6.8,7.2c-2.3,2.5-4.6,5-7,7.5c-2.3,2.6-4.6,5.1-6.9,7.6
					c-2.2,2.6-4.5,5-6.5,7.5c-2.1,2.4-4.1,4.8-6,7.1c-1.9,2.3-3.7,4.4-5.3,6.4c-1.6,2-3.1,3.8-4.4,5.5c-1.3,1.6-2.4,3.1-3.3,4.3
					c-0.9,1.2-1.6,2.1-2.1,2.8C353.9,797.9,353.6,798.3,353.6,798.3z"/>
			</g>
			<g id="XMLID_20_">
				<polygon id="XMLID_44_" class="st31" points="-6,599 135.5,864 154.5,853 -3.5,568 				"/>
				<polygon id="XMLID_46_" class="st26" points="113.3,787.5 29.5,858.5 -18,858.5 -18,689 53.5,642.5 				"/>
				<polygon id="XMLID_181_" class="st31" points="53.5,642.5 17.3,666.1 66.5,827.1 113.3,787.5 				"/>
				<polygon id="XMLID_41_" class="st26" points="29.5,612 160.9,853 188,844 53.5,596 				"/>
				<polygon id="XMLID_42_" class="st27" points="53.5,596 65,604 202,846.5 188,844 				"/>
				<polygon id="XMLID_151_" class="st31" points="87.7,689.7 160.9,853 188,844 158,788.7 				"/>
				<polygon id="XMLID_39_" class="st27" points="89,690 103,678.7 160.9,785.1 144.6,798 				"/>
				<g id="XMLID_148_">
					<polygon id="XMLID_149_" class="st30" points="144.3,799.5 87.7,689.7 102.4,677.9 103.6,679.4 90.3,690.3 144.9,796.5 
						160.3,784.3 161.5,785.9 					"/>
				</g>
				<path id="XMLID_43_" class="st27" d="M44.4,639.3c-12-0.1-20.7,5-26.9,13.8l83,163.9c13.6,2.5,24.5-2.3,31.5-17L44.4,639.3z"/>
				<path id="XMLID_154_" class="st26" d="M27.6,643.6c-2.7,1.6-5.2,3.7-7.4,6.1l87,167.9c3,0,5.8-0.5,8.4-1.4L27.6,643.6z"/>
				<path id="XMLID_183_" class="st30" d="M38.7,639.7c-1.9,0.3-3.7,0.7-5.4,1.3l91.6,169.4c1.2-1.2,2.3-2.6,3.4-4.1L38.7,639.7z"/>
			</g>
			<g id="XMLID_134_">
				<g id="XMLID_83_">
					
						<rect id="XMLID_141_" x="343.3" y="480.2" transform="matrix(8.595521e-002 0.9963 -0.9963 8.595521e-002 822.713 121.2106)" class="st32" width="4" height="57.6"/>
				</g>
				<path id="XMLID_32_" class="st17" d="M463.4,597.8c-47.1-18.9-97.6-29-148.3-29.5c-6.8-0.1-14.4,0.3-19.3,5
					c-48.9,46.7-70.4,99.5-128.1,159.8c-3.7,23.9,77.7-71.6,113.6-108.9c5.5-5.7,11.3-11.2,18.1-15.2c10.5-6.1,22.7-8.3,34.7-9.8
					C377.3,594,420.1,595.3,463.4,597.8z"/>
				<path id="XMLID_123_" class="st6" d="M379.5,574.3c-24.3-4-49.5-4.5-73.5,1.1c-4.6,1.1-8.8,3.7-11.7,7.5
					c-43.1,55.3-82,112.5-132.1,161.6c-3.8,3.8,2.2,12.1,7.6,12.7c19.3-15.3,39.3-31.4,60.6-43.7c26.3-15.1,55.7-29.6,69.4-56.6
					c6.1-12.1,9.1-26.6,19.9-34.8c29,7.6,55.7,22.6,83,35c26.7,12.2,55.1,22.7,84.4,22.5c-5.6-30-16.6-58.9-32.3-85
					C430.7,586.1,404.2,578.3,379.5,574.3z"/>
				<g id="XMLID_200_">
					<path id="XMLID_218_" class="st16" d="M379.5,574.3c-24.3-4-49.5-4.5-73.5,1.1c-4.6,1.1-8.8,3.7-11.7,7.5
						c-42.5,54.6-81,111-130.2,159.7c0.7-0.6,1.4-1.2,2.1-1.8c52-42.5,90.7-98.6,130-153.1c1.7-2.4,3.5-4.8,5.8-6.5
						c4.6-3.3,25.8-6,31.5-6c9.6,0,20.2,0.6,29.7,2.2c31.8,5.3,63.2,12.6,94.1,21.8c-0.9-1.5-1.8-3-2.7-4.5
						C430.7,586.1,404.2,578.3,379.5,574.3z"/>
				</g>
				<path id="XMLID_124_" class="st33" d="M521,462.6c2.7-22.9,5.3-46.1,2.1-68.9c-0.9-6-3-10.4-7.2-14.7
					c-19.7,7.7-38.7,17.4-56.5,28.9c-13.2,8.5-26.1,18.3-34.4,31.6s-11.2,30.9-4,44.9c3.5,6.7,9,12.1,12.8,18.7
					c25.4,3.6,50.6,8.3,75.6,14.1C510.2,498.6,518.9,481.2,521,462.6z"/>
				<g id="XMLID_199_">
					<path id="XMLID_206_" class="st34" d="M418.4,463.3c1.8-17.7,14.8-32.2,28.9-43.1c11.3-8.7,23.7-16.1,34.3-25.4
						c-7.6,4.1-15,8.4-22.3,13.1c-13.2,8.5-26.1,18.3-34.4,31.6s-11.2,30.9-4,44.9c0.1,0.1,0.1,0.2,0.2,0.3
						C418.9,477.8,417.6,470.6,418.4,463.3z"/>
				</g>
				<g id="XMLID_129_">
					<path id="XMLID_132_" class="st35" d="M473.2,468.4c-4-7-5.2-15.9-1.6-23.1c-16.3,3.5-30.6,14.9-37.7,29.9
						c-5.7,0.1-11.5-1.1-16.8-3.3c0.5,4.3,1.8,8.5,3.8,12.4c3.5,6.7,9,12.1,12.8,18.7c25.4,3.6,50.6,8.3,75.6,14.1
						c0.4-7.6,2-15,4-22.3c-7.9-2.4-15.6-5.7-22.8-10C483.7,480.7,477.2,475.4,473.2,468.4z"/>
				</g>
				<path id="XMLID_126_" class="st33" d="M530.1,589.7c-23.8-5.3-48.6-5.7-72.5-1.4c1.1,2.8,2.2,5.6,3.3,8.4
					c-2.1-0.7-4.1-1.5-6.2-2.2c15.8,26.1,26.7,55,32.3,85c0.6,0,1.2,0,1.9,0c12-0.3,24.2-2.5,34.3-9c19-12.2,28.4-41.6,17.5-61.3
					C537.1,602.8,533.5,596.3,530.1,589.7z"/>
				<path id="XMLID_127_" class="st6" d="M530.1,589.7c-11.1-21.6-20.4-44.2-20.9-68.2c0-1.4,0-2.9,0.1-4.3
					c-25-5.7-50.2-10.4-75.6-14.1c0,0,0,0,0,0.1c6,10.7,6.7,23.4,8.8,35.6c2.9,17.1,8.8,33.4,15.1,49.6
					C481.6,584,506.4,584.4,530.1,589.7z"/>
				<path id="XMLID_128_" class="st17" d="M509.2,521.5c0-1.4,0-2.9,0.1-4.3c-25-5.7-50.2-10.4-75.6-14.1c0,0,0,0,0,0.1
					c5.5,9.8,57.8,52.2,83.8,58.5C512.7,548.7,509.5,535.3,509.2,521.5z"/>
				<path id="XMLID_6_" class="st6" d="M512.1,384c0.8-22,2.6-44,5.2-65.9c-4.2,7.6-11.2,11.8-17.8,17.5c-9,7.7-18,15.4-26.9,23.1
					c2,0.3,4,1.3,4.7,3.1c0.8,1.8,0.9,3.8,1,5.8c0.7,13.7,0.2,27.5-1.4,41.2C488.7,399.7,499.3,391.5,512.1,384z"/>
				<path id="XMLID_125_" class="st17" d="M512.8,368.6c1-16.9,2.4-33.8,4.5-50.6c-4.2,7.6-11.2,11.8-17.8,17.5
					c-9,7.7-18,15.4-26.9,23.1c2,0.3,4,1.3,4.7,3.1c0.8,1.8,0.9,3.8,1,5.8c0,0.3,0,0.5,0,0.8C489.7,368.9,501.6,370.2,512.8,368.6z"
					/>
				<path id="XMLID_19_" class="st36" d="M580.5,400.5c-2.9,3.1-6.3,5.8-10.4,6.8c-4.1,1-8.9,0.1-11.5-3.2c-3.2-4-2.2-9.9,0-14.6
					c2.2-4.6,5.5-8.7,6.9-13.7c1.8-6.4-0.2-13.7-5-18.3c-2.9-2.8-6.9-4.8-9-8.3c-2.3-3.8-1.8-8.7-0.2-12.8c1.7-4.1,4.5-7.6,6.9-11.3
					c4.3-6.5,7.7-13.7,10.5-21c2.7-6.9,5.1-14.1,5.2-21.5c0.1-7.4-2.2-15.1-7.6-20.1c-5.4-5-14.3-6.5-20.4-2.4
					c-3.5,9.7-7,21.1-8.5,31.3c-4.7,5.6-10.2,11.3-14.9,16.9c7.5,1.7,11.9,10.3,11.7,18s-3.7,15-6.7,22.1
					c-5.4,12.8-9.5,26.8-7.7,40.6c1.7,13.8,10.4,27.5,23.7,31.7c7.5,2.4,16,1.5,22.9-2.4C573.3,414.5,578.8,408.2,580.5,400.5z"/>
				<path id="XMLID_18_" class="st37" d="M548.5,255.3c1.1,0.8,1.7,2.1,2.1,3.3c2,6,0.6,12.6-1.2,18.7c-1.6,5.5-3.6,11-7.2,15.4
					c-3.6,4.4-9,7.7-14.8,7.4c-0.5,0-1-0.1-1.3-0.5c-0.3-0.4-0.3-0.9-0.2-1.3c0.7-7,2.8-13.7,5-20.3c2.3-6.9,4.6-13.9,7-20.8
					C539,254,545.8,253.2,548.5,255.3z"/>
				<path id="XMLID_111_" class="st36" d="M449.5,237.9c-3.2,3.2-8.8,9.4-12.8,18.2c-1.5,3.2-1.7,6.9-1.8,10.5
					c-0.4,13.1,2.5,26.2,8.5,37.9c6.1-34.5,26.7-67.3,57.9-83.4c-9.1-2.8-18.8,1-27.6,3.3C465,226.6,455.8,231.7,449.5,237.9z"/>
				<path id="XMLID_2_" class="st6" d="M436,275.6c-0.6,11.1,1.9,22.9-2.9,32.9c-4,8.4-13,14.9-13.3,24.2c-0.1,3.9,1.4,7.7,3.2,11.2
					c4.3,8,10.5,15,18,20.1c5,3.5,10.8,6.1,16.9,6.5c9.4,0.6,18.2-4.3,26.1-9.5c14.2-9.2,28.2-20.5,33.9-36.3
					c1.8-4.9,2.6-10.1,3.5-15.2c3.3-19.4,6.6-39,5.2-58.6c-0.5-7.1-2-14.8-7.4-19.4c-5.6-4.8-13.8-4.9-21.2-4.8
					c-7.8,0.2-16.4-1.1-24-0.2c-6.8,0.8-13.8,6.1-18.7,10.5C444.3,246.8,436.8,260.9,436,275.6z"/>
				<g id="XMLID_198_">
					<path id="XMLID_223_" class="st16" d="M428.7,346.3c-3-5.4-5.4-11.7-3.7-17.7c1.1-3.8,3.7-7,6-10.3c6.6-9.9,9.8-22,8.8-33.8
						c-0.4-5.2-1.7-10.4-1-15.6c0.7-5.4,3.5-10.3,6.3-14.9c3.7-6.2,7.6-12.3,11.8-18.2c-0.5,0.5-1.1,0.9-1.6,1.3
						c-11,9.7-18.4,23.8-19.2,38.5c-0.6,11.1,1.9,22.9-2.9,32.9c-4,8.4-13,14.9-13.3,24.2c-0.1,3.9,1.4,7.7,3.2,11.2
						c4.3,8,10.5,15,18,20.1c1.8,1.2,3.7,2.3,5.6,3.3C439.4,361.6,433.2,354.4,428.7,346.3z"/>
				</g>
				<path id="XMLID_3_" class="st36" d="M455,237c-0.3,8.2,1.1,16.4,4,24c18-10.2,40-16.5,60.5-14.2c-1.8,6.4-4.5,12-6.5,18.3
					c-2,6.3-3.2,13.1-1.6,19.5c0.6,2.5,1.7,4.8,2.7,7.2c1.3,2.9,2.6,5.7,3.8,8.6c3.9,8.8-0.4,17.9-2.7,27.2
					c-1.4,5.5-1.7,11.2-1.3,16.9c16.1-25.6,26.2-54.4,29.1-84.5c0.8-8.7,0.8-18.4-4.9-25.1c-2.2-2.6-5.1-4.5-8.1-6.1
					c-11.6-6.3-25.6-10.9-38.7-9.2S458.5,226.3,455,237z"/>
				<path id="XMLID_4_" class="st6" d="M546.5,286.4c1.7-0.3,3.6-0.3,4.7,1c0.7,0.9,0.7,2,0.6,3.1c-0.9,10.6-9.2,19-17.6,25.5
					c-6.1,4.7-13,9.1-20.7,8.9c-0.8,0,5.5-21.1,7.5-23.7C527,293.4,536.7,287.9,546.5,286.4z"/>
				<path id="XMLID_5_" class="st7" d="M533.4,302c2.3-1,5.3-1.6,7.1,0.1c-4.2,0.7-8.2,2.6-11.5,5.2c3.3,1,5.6,4.7,5,8.1
					c-0.1,0.6-4.2-3.8-4.5-3.9c-2.5-1.1-4.6-0.7-7,0.5C522.9,307.2,529.4,303.7,533.4,302z"/>
				<path id="XMLID_7_" class="st33" d="M545,244c-7,2.3-14.3,3.7-21.6,4.1c-0.2,0.9-0.4,1.7,0,2.6c3.8,0.1,7.7-0.6,11.5-1.4
					c-2.8,3.3-7.3,4.7-11.5,5.9c-0.3,2-0.8,4.1-0.6,6.1c6.6-0.7,13-3.1,18.5-6.8c2.2-1.5,4.4-3.5,4.4-6.2
					C545.6,246.7,545,244,545,244z"/>
				<path id="XMLID_8_" class="st36" d="M454.2,266.4c-3.5-2.9-7.6-5.9-12.1-5.4c-2.4,0.3-4.6,1.6-6,3.5
					C441.5,262.9,449.2,263.9,454.2,266.4z"/>
				<path id="XMLID_16_" class="st38" d="M439.5,344.8c-0.3,0.8-0.2,1.8,0.2,2.7c1.6,3.4,6.1,4,9.8,3.9c12.1-0.3,24.8-3.5,33.4-12
					c-8,2.6-16.4,3.6-24.8,3.1C452.8,342.1,442.4,337.6,439.5,344.8z"/>
				<path id="XMLID_9_" class="st36" d="M497.7,275.7c-1.4-4.7-5.5-8.4-10.3-9.4c-1.9-0.4-3.8-0.4-5.7-0.4c-4.5,0-9.3,0.2-12.8,3
					c0.7,0.9,2.8,1,3.9,0.9c2.4-0.2,4.8-0.4,7.2-0.6c2.1-0.2,4.2-0.3,6.2-0.1c4.1,0.5,7.9,2.6,10.5,5.9
					C497.1,275.4,497.3,276.1,497.7,275.7z"/>
				<path id="XMLID_11_" class="st18" d="M446.6,280.2c1.1,0.2,2.2,0.2,3.2,0.8c1.4,0.9,1.7,2.9,1.8,4.6c0.3,4.8,0.6,9.8-0.9,14.4
					c-0.4,1.2-0.9,2.4-1.9,3.3c-1,0.8-2.5,1.1-3.5,0.4c-0.7-0.5-1.1-1.3-1.3-2.2c-0.9-3.1-0.6-6.4,0.4-9.4c0.9-3.1,2.4-5.9,3.9-8.7
					c-0.9,1.6-7.1-4.9-7.6-5.8C442.5,278.7,444.3,279.8,446.6,280.2z"/>
				<path id="XMLID_117_" class="st18" d="M479.2,283.4c1.1,0.2,2.2,0.2,3.2,0.8c1.4,0.9,1.7,2.9,1.8,4.6c0.3,4.8,0.6,9.8-0.9,14.4
					c-0.4,1.2-0.9,2.4-1.9,3.3c-1,0.8-2.5,1.1-3.5,0.4c-0.7-0.5-1.1-1.3-1.3-2.2c-0.9-3.1-0.6-6.4,0.4-9.4c0.9-3.1,2.4-5.9,3.9-8.7
					c-0.9,1.6-7.1-4.9-7.6-5.8C475.1,281.9,477,283.1,479.2,283.4z"/>
				<path id="XMLID_15_" class="st38" d="M456.7,321c5.3,0.4,10.4,1.9,15.5,3c3.8,0.8,7.6,1.4,11.4,1.8c-3.4,3.7-8.5,5.5-13.5,5.9
					c-5,0.4-10-0.6-14.9-1.7c-3.9-0.9-10.6-2.1-12.9-5.7C445.8,321,452.1,320.6,456.7,321z"/>
				<linearGradient id="XMLID_225_" gradientUnits="userSpaceOnUse" x1="437.237" y1="307.9624" x2="461.5829" y2="307.9624">
					<stop  offset="0" style="stop-color:#FC5B95"/>
					<stop  offset="1" style="stop-color:#FCB595"/>
				</linearGradient>
				<path id="XMLID_12_" class="st39" d="M440.9,301.3c-0.7,0-1.5,0.1-2.1,0.4c-0.8,0.5-1.2,1.4-1.4,2.3c-0.5,2.5,0.7,5.2,2.7,6.9
					c1.9,1.7,4.5,2.7,7,3.2c2.5,0.5,5.2,0.7,7.7,0c2.5-0.6,4.9-2.1,6.2-4.3c0.6-0.9,0.9-2.1,0.6-3.1c-1.3-4-6-3-9.1-3.5
					C448.5,302.6,444.8,301.3,440.9,301.3z"/>
				<path id="XMLID_121_" class="st24" d="M452.3,303.3c0,0-0.5,0-1.4-0.2c-0.9-0.1-2.1-0.3-3.6-0.6c-1.5-0.3-3.2-0.6-5-0.7
					c-0.9,0-1.9-0.1-2.7,0.1c-0.8,0.2-1.4,0.9-1.6,1.8c-0.3,0.9-0.3,1.8-0.1,2.7c0.2,0.9,0.5,1.8,1,2.5c0.5,0.8,1,1.4,1.7,2
					c0.6,0.6,1.3,1,1.9,1.4c1.3,0.7,2.5,1.2,3.3,1.5c0.8,0.3,1.3,0.4,1.3,0.4s-0.5,0-1.4-0.2c-0.9-0.2-2.1-0.5-3.5-1.1
					c-1.4-0.7-3-1.7-4-3.4c-0.5-0.8-1-1.8-1.2-2.8c-0.2-1-0.2-2.1,0.1-3.2c0.3-1,1.1-2.1,2.3-2.4c1.1-0.3,2.1-0.1,3.1-0.1
					c1.9,0.2,3.6,0.7,5.1,1c1.5,0.4,2.7,0.7,3.5,1C451.8,303.2,452.3,303.3,452.3,303.3z"/>
				<path id="XMLID_13_" class="st40" d="M480.9,324.7c1.3-0.2,2.7-0.4,4,0.2c2.1,1,2.7,3.7,2.5,6.1c-0.5,5.7-4.2,11.1-9.4,13.5
					c-3.1,1.5-6.7,1.9-10.1,2.1c-6.5,0.4-13.1,0-19.5-1c-1.5-0.2-3-0.6-4.1-1.6c-1.7-1.7-1.3-4.5-0.9-6.8c0.6-3.2,1.3-6.5,1.9-9.7
					c-1.3-0.8-2.8-1.5-3.4-2.8c2.6-0.6,6.3,0.9,9.1,1.2c3.4,0.4,6.8,0.5,10.2,0.5C467.8,326.3,474.4,325.7,480.9,324.7z"/>
				<g id="XMLID_119_">
					<path id="XMLID_120_" class="st2" d="M449.5,329.8c0.2,0.2,0.5,0.3,0.8,0.4c12.2,2.8,24.9,2.8,37.1,0c0-2.1-0.7-4.4-2.5-5.2
						c-1.2-0.6-2.6-0.4-4-0.2c-6.5,0.9-13.1,1.6-19.6,1.6c-3.4,0-6.8-0.1-10.2-0.5c-0.6-0.1-1.2-0.2-1.8-0.3c0,1.1,0,2.2,0,3.4
						C449.3,329.2,449.3,329.6,449.5,329.8z"/>
					<path id="XMLID_122_" class="st41" d="M458.1,346.7c3.3,0.2,6.5,0.2,9.8,0c3.5-0.2,7-0.6,10.1-2.1c3.7-1.7,6.7-4.9,8.2-8.7
						C476.2,337.3,466.5,341,458.1,346.7z"/>
				</g>
				<path id="XMLID_25_" class="st6" d="M521.6,508.3c-27.5-3.9-55.2-7.2-82.8-10c-1.6,2.3-2.3,5.7-1.7,8.5
					c24.8,17.1,52,30.6,80.6,40c9.2,3,18.9,5.6,28.3,3.7c4-0.8,8.1-2.7,10.2-6.1c1.8-2.9,2-6.4,2.1-9.8
					c1.4-39.4-6.7-78.5-17.7-116.3c-3.7-12.8-8-25.8-16.3-36.2c-2.6-3.2-7-7.7-10.3-5.2c-13.6,10.5-22.6,25.9-29.4,41.6
					c-1.5,3.5-3,7.2-3.3,11c-0.4,5.9,2.1,11.7,5.7,16.4s8.3,8.4,12.9,12.1c3.1,2.5,6.3,5,9.4,7.5
					C514.3,477.9,521.1,506.9,521.6,508.3z"/>
				<g id="XMLID_21_">
					<polygon id="XMLID_29_" class="st42" points="407.5,468.5 359,476.5 370,544.5 422.3,532 420.5,523.9 387.5,531 379,481.5 
						409,475.5 					"/>
					<polygon id="XMLID_30_" class="st43" points="379,481.5 360,482.8 408.4,472.5 409,475.5 					"/>
					<polygon id="XMLID_31_" class="st43" points="387.5,531 368.9,537.6 421.2,527 420.5,523.9 					"/>
					<path id="XMLID_28_" class="st42" d="M418.8,537.6c-7.5-25.7-13.5-51.8-18.1-78.1c4.2-1.3,7.6-3.9,11.9-3.2
						c5,26.2,10.7,52.1,15.8,78.3C425.7,535.5,421.4,536.6,418.8,537.6z"/>
				</g>
				<path id="XMLID_26_" class="st11" d="M445.3,521.5c-1.8-8-2.4-16.3-1.7-24.5c-2.8,0.2-5.6-2.6-7.6-4.5c-2.1-1.9-3.9-4.2-6.4-5.5
					c-2.9-1.6-6.3-1.8-9.5-2.1c0,1-0.6,1.5-0.6,2.5c-5.4,1.1-10.7,2.2-16.1,3.3c-1.4,0.3-3,0.7-3.7,2c-1.4,2.5,2,5,2.7,7.8
					c0.6,2.2-0.4,4.6,0.7,6.6c0.6,1.2,1.9,1.8,2.7,2.9c1.6,2,1.3,5,2.3,7.4c1.9,4.6,7.6,5.9,12.5,6.6
					C428.6,525.1,437.9,525,445.3,521.5z"/>
				<g id="XMLID_136_">
					<path id="XMLID_139_" class="st35" d="M151.6,771.8c1.4,0.7,3.2,0.3,4.7-0.2c12-4,21.5-14.8,23.9-27.3c0.1-0.5,0.2-1,0-1.5
						c-0.3-1.1-1.6-1.5-2.7-2c-5-2.5-4.5-9.8-7.3-14.6c-0.6-1-1.4-1.9-2.4-2.1c-13.4-3.2-28.2-8.9-38.3-18.2
						c-2.3-2.1-4.5-4.4-7.1-6.1c-3.9-2.5-8.8-3.4-13.4-2.4c4.9,23.7,29.8,39,35.6,62.6C145.6,764.5,147.4,769.9,151.6,771.8z"/>
					<g id="XMLID_137_">
						<path id="XMLID_138_" class="st44" d="M116.5,697.6c-2.5-0.6-5.1-0.6-7.6-0.1c4.9,23.7,29.8,39,35.6,62.6
							c1.1,4.4,2.9,9.9,7.1,11.8c1.4,0.7,3.2,0.3,4.7-0.2c2-0.7,4-1.6,5.9-2.6c-9-10.5-13.8-24.8-21.3-36.8
							C133.4,720.2,123,709.9,116.5,697.6z"/>
					</g>
				</g>
				<g id="XMLID_34_">
					<path id="XMLID_33_" class="st35" d="M151.6,780.8c1.4,0.7,3.2,0.3,4.7-0.2c12-4,21.5-14.8,23.9-27.3c0.1-0.5,0.2-1,0-1.5
						c-0.3-1.1-1.6-1.5-2.7-2c-5-2.5-4.5-9.8-7.3-14.6c-0.6-1-1.4-1.9-2.4-2.1c-13.4-3.2-28.2-8.9-38.3-18.2
						c-2.3-2.1-4.5-4.4-7.1-6.1c-3.9-2.5-8.8-3.4-13.4-2.4c4.9,23.7,29.8,39,35.6,62.6C145.6,773.5,147.4,778.9,151.6,780.8z"/>
					<g id="XMLID_22_">
						<path id="XMLID_131_" class="st44" d="M116.5,706.6c-2.5-0.6-5.1-0.6-7.6-0.1c4.9,23.7,29.8,39,35.6,62.6
							c1.1,4.4,2.9,9.9,7.1,11.8c1.4,0.7,3.2,0.3,4.7-0.2c2-0.7,4-1.6,5.9-2.6c-9-10.5-13.8-24.8-21.3-36.8
							C133.4,729.2,123,718.9,116.5,706.6z"/>
					</g>
				</g>
				<g id="XMLID_84_">
					<rect id="XMLID_140_" x="-6" y="511.2" class="st32" width="309.7" height="4"/>
				</g>
				<path id="XMLID_112_" class="st45" d="M477.7,225.5c-2.5,2.1-6.1,3.8-8.7,5.9c4.3-0.9,8.6-1.8,12.9-2.6
					c-0.2,1.3-0.4,2.6-0.6,3.8c9.6,1.7,19.5,1.5,29.1-0.6c1.7-0.4,3.9-1.6,3.3-3.3c3.1,1.2,6.1,2.6,9.1,4.1c0.5-1.3,0-2.9-1.2-3.7
					c6.1,1.2,11.8,4.4,16,8.9c-3.3-3.1-7.5-5.3-11.9-6.1c1.7,1.1,2.9,2.8,3.6,4.8c-1.2-0.7-2.4-1.3-3.5-2c0.4,1.2,0.6,2.4,0.5,3.7
					c-3.2,2.3-8.5,0.8-9.9-3c0.1,1.5,0.2,3,0.3,4.5c-13.6,4.6-28.7,4.5-42.3-0.1c0.3-1.6,0.6-3.2,0.9-4.8c-3.4,3.8-8.6,5.9-13.6,5.7
					c0.7-3.2,2.5-6.2,5.1-8.2c-4.2,0.6-8.3,2-11.9,4.3C459.3,230.8,472.7,226.4,477.7,225.5z"/>
				<path id="XMLID_113_" class="st45" d="M518.5,263.8c-0.4,1.7-0.6,3.5-0.5,5.3c1-0.6,1.9-1.4,2.5-2.4c-0.2,1.2,1.1,2.2,2.4,2.3
					s2.4-0.5,3.6-0.8c2.8-0.6,6.3,0.1,8.3-1.9c-0.1,1.8,0.2,3.6,0.8,5.4c1.2-2.5,2.3-5.1,3-7.8c0,1.6,0,3.1,0,4.7
					c0.2,0.2,0.5-0.2,0.6-0.5c0.5-2.4,1-4.8,1.5-7.2c0,6.9-1.1,13.8-3.4,20.4c0.1-2.2,0.1-4.5,0.2-6.7c-0.4,2-1.7,3.7-3.4,4.8
					c-0.5-1.4-0.7-2.8-0.6-4.3c-4.1,2-9,2.4-13.4,1c-0.3-1.1-0.6-2.2-1-3.3c-0.1-0.3-2.1,3-2.2,3.3c-0.6,1.7-0.4,3.6-1.2,5.2
					C512.6,276.1,516.1,268.6,518.5,263.8z"/>
				<ellipse id="XMLID_10_" class="st46" cx="481.6" cy="311.3" rx="13.3" ry="3.3"/>
				<path id="XMLID_14_" class="st36" d="M512.6,370.9c-4.5-4.4-6.3-11.3-4.5-17.4c1.5-5.2,5.4-9.5,6.4-14.8
					c1.4-7.7-3.8-15.2-3.7-23c0.1-7.6,5.1-14.1,9.8-20.1c-1.5,7.2-4.5,12.3-4,19.7c0.5,6.7,5.1,12.8,4.7,19.5c-0.4,5.5-4,10-6.3,15
					C511.7,356.8,510.5,363.5,512.6,370.9z"/>
				<path id="XMLID_17_" class="st17" d="M509.5,465.5c-2.6-10.1-7.4-19.9-10-30c-0.4-1.7-0.9-3.5-1.9-5c-2.1-2.9-6.2-4.1-7.8-7.3
					C489.8,439.4,500.1,452.4,509.5,465.5z"/>
				<g id="XMLID_27_">
					<path id="XMLID_130_" class="st17" d="M540.7,418.2c-3.7-12.8-8-25.8-16.3-36.2c-0.7-0.9-1.6-1.9-2.5-2.8
						c33.1,68.8,31.8,137.6,29.1,153.4c-0.7,3.9-1.9,8.1-5.4,10.1c-2,1.2-4.5,1.3-6.8,1.3c-12.5,0.2-25.1-0.8-37.4-3.1
						c5.4,2.1,10.8,4.1,16.3,5.9c9.2,3,18.9,5.6,28.3,3.7c4-0.8,8.1-2.7,10.2-6.1c1.8-2.9,2-6.4,2.1-9.8
						C559.8,495.2,551.7,456.1,540.7,418.2z"/>
				</g>
				<g id="XMLID_133_">
					<path id="XMLID_135_" class="st35" d="M540.6,609.2c-2.8-5-5.6-10.1-8.3-15.2c1.1,5.5,1.7,11.1,1.6,16.7
						c-13.5-2.9-27-5.7-40.5-8.6c7.5,5.2,14.7,10.6,21.8,16.3c8.1,6.5,16.8,16.4,12.8,26c-8.7-5.6-17.3-11.4-25.6-17.6
						c1.6,8.8,9.3,16.2,8.3,25c-0.5,4.8-3.5,8.9-6.7,12.6c-4.9,5.6-10.4,10.6-16.4,15c0.3,0,0.7,0,1,0c12-0.3,24.2-2.5,34.3-9
						C542.1,658.3,551.5,628.9,540.6,609.2z"/>
				</g>
				<path id="XMLID_23_" class="st47" d="M531.9,631.8c-5.4-12.7-17-22.1-29.8-27.3c-12.8-5.3-27.4-7.2-41.2-7.8
					c17.1,3.6,33.5,8.7,49.4,16.1C518.8,616.7,528.7,622.9,531.9,631.8z"/>
				<path id="XMLID_24_" class="st47" d="M512.9,646c-3.1-9.4-6.3-19-13-26.4c-5.5-6-12.8-10-20-13.8c-6.4-3.4-12.7-6.7-19.1-10.1
					C480.2,609.1,501,625.8,512.9,646z"/>
				<g id="XMLID_75_">
					<path id="XMLID_79_" class="st48" d="M318.6,521.9l-1.7-0.4c-1.5-0.4-3.5-0.8-5.6-1.2c-2.3-0.5-4.7-1-7.1-1.5
						c-2.3-0.6-4-2.5-4.4-4.8c-0.4-2.4,0.7-4.6,2.7-5.9c4-2.4,8.1-4.6,12.3-6.5l1.5-0.7l1,1.3c3.7,5,4.4,12,2,18.1L318.6,521.9z
						 M314.9,505.8c-3.5,1.7-7,3.5-10.3,5.6c-1,0.6-0.9,1.6-0.9,1.8c0,0.3,0.3,1.3,1.4,1.6c2.3,0.6,4.6,1,6.9,1.5
						c1.4,0.3,2.8,0.6,4,0.8C317.2,513.2,316.7,509.1,314.9,505.8z"/>
				</g>
			</g>
		</g>
	</g>
</g>
</svg>
